<?xml version="1.0" encoding="utf-8" standalone="no"?>
<!DOCTYPE svg PUBLIC "-//W3C//DTD SVG 1.1//EN"
  "http://www.w3.org/Graphics/SVG/1.1/DTD/svg11.dtd">
<!-- Created with matplotlib (https://matplotlib.org/) -->
<svg height="864pt" version="1.1" viewBox="0 0 576 864" width="576pt" xmlns="http://www.w3.org/2000/svg" xmlns:xlink="http://www.w3.org/1999/xlink">
 <defs>
  <style type="text/css">
*{stroke-linecap:butt;stroke-linejoin:round;white-space:pre;}
  </style>
 </defs>
 <g id="figure_1">
  <g id="patch_1">
   <path d="M 0 864 
L 576 864 
L 576 0 
L 0 0 
z
" style="fill:#ffffff;"/>
  </g>
  <g id="axes_1">
   <g id="patch_2">
    <path d="M 72 299.350588 
L 518.4 299.350588 
L 518.4 103.68 
L 72 103.68 
z
" style="fill:#ffffff;"/>
   </g>
   <g id="matplotlib.axis_1">
    <g id="xtick_1">
     <g id="line2d_1">
      <defs>
       <path d="M 0 0 
L 0 3.5 
" id="m2df71308bc" style="stroke:#000000;stroke-width:0.8;"/>
      </defs>
      <g>
       <use style="stroke:#000000;stroke-width:0.8;" x="72" xlink:href="#m2df71308bc" y="299.350588"/>
      </g>
     </g>
    </g>
    <g id="xtick_2">
     <g id="line2d_2">
      <g>
       <use style="stroke:#000000;stroke-width:0.8;" x="146.4" xlink:href="#m2df71308bc" y="299.350588"/>
      </g>
     </g>
    </g>
    <g id="xtick_3">
     <g id="line2d_3">
      <g>
       <use style="stroke:#000000;stroke-width:0.8;" x="220.8" xlink:href="#m2df71308bc" y="299.350588"/>
      </g>
     </g>
    </g>
    <g id="xtick_4">
     <g id="line2d_4">
      <g>
       <use style="stroke:#000000;stroke-width:0.8;" x="295.2" xlink:href="#m2df71308bc" y="299.350588"/>
      </g>
     </g>
    </g>
    <g id="xtick_5">
     <g id="line2d_5">
      <g>
       <use style="stroke:#000000;stroke-width:0.8;" x="369.6" xlink:href="#m2df71308bc" y="299.350588"/>
      </g>
     </g>
    </g>
    <g id="xtick_6">
     <g id="line2d_6">
      <g>
       <use style="stroke:#000000;stroke-width:0.8;" x="444" xlink:href="#m2df71308bc" y="299.350588"/>
      </g>
     </g>
    </g>
    <g id="xtick_7">
     <g id="line2d_7">
      <g>
       <use style="stroke:#000000;stroke-width:0.8;" x="518.4" xlink:href="#m2df71308bc" y="299.350588"/>
      </g>
     </g>
    </g>
   </g>
   <g id="matplotlib.axis_2">
    <g id="ytick_1">
     <g id="line2d_8">
      <defs>
       <path d="M 0 0 
L -3.5 0 
" id="mffd74051a0" style="stroke:#000000;stroke-width:0.8;"/>
      </defs>
      <g>
       <use style="stroke:#000000;stroke-width:0.8;" x="72" xlink:href="#mffd74051a0" y="290.456471"/>
      </g>
     </g>
     <g id="text_1">
      <!-- 0.0 -->
      <defs>
       <path d="M 31.78125 66.40625 
Q 24.171875 66.40625 20.328125 58.90625 
Q 16.5 51.421875 16.5 36.375 
Q 16.5 21.390625 20.328125 13.890625 
Q 24.171875 6.390625 31.78125 6.390625 
Q 39.453125 6.390625 43.28125 13.890625 
Q 47.125 21.390625 47.125 36.375 
Q 47.125 51.421875 43.28125 58.90625 
Q 39.453125 66.40625 31.78125 66.40625 
z
M 31.78125 74.21875 
Q 44.046875 74.21875 50.515625 64.515625 
Q 56.984375 54.828125 56.984375 36.375 
Q 56.984375 17.96875 50.515625 8.265625 
Q 44.046875 -1.421875 31.78125 -1.421875 
Q 19.53125 -1.421875 13.0625 8.265625 
Q 6.59375 17.96875 6.59375 36.375 
Q 6.59375 54.828125 13.0625 64.515625 
Q 19.53125 74.21875 31.78125 74.21875 
z
" id="DejaVuSans-48"/>
       <path d="M 10.6875 12.40625 
L 21 12.40625 
L 21 0 
L 10.6875 0 
z
" id="DejaVuSans-46"/>
      </defs>
      <g transform="translate(49.096875 294.255689)scale(0.1 -0.1)">
       <use xlink:href="#DejaVuSans-48"/>
       <use x="63.623047" xlink:href="#DejaVuSans-46"/>
       <use x="95.410156" xlink:href="#DejaVuSans-48"/>
      </g>
     </g>
    </g>
    <g id="ytick_2">
     <g id="line2d_9">
      <g>
       <use style="stroke:#000000;stroke-width:0.8;" x="72" xlink:href="#mffd74051a0" y="254.869587"/>
      </g>
     </g>
     <g id="text_2">
      <!-- 0.2 -->
      <defs>
       <path d="M 19.1875 8.296875 
L 53.609375 8.296875 
L 53.609375 0 
L 7.328125 0 
L 7.328125 8.296875 
Q 12.9375 14.109375 22.625 23.890625 
Q 32.328125 33.6875 34.8125 36.53125 
Q 39.546875 41.84375 41.421875 45.53125 
Q 43.3125 49.21875 43.3125 52.78125 
Q 43.3125 58.59375 39.234375 62.25 
Q 35.15625 65.921875 28.609375 65.921875 
Q 23.96875 65.921875 18.8125 64.3125 
Q 13.671875 62.703125 7.8125 59.421875 
L 7.8125 69.390625 
Q 13.765625 71.78125 18.9375 73 
Q 24.125 74.21875 28.421875 74.21875 
Q 39.75 74.21875 46.484375 68.546875 
Q 53.21875 62.890625 53.21875 53.421875 
Q 53.21875 48.921875 51.53125 44.890625 
Q 49.859375 40.875 45.40625 35.40625 
Q 44.1875 33.984375 37.640625 27.21875 
Q 31.109375 20.453125 19.1875 8.296875 
z
" id="DejaVuSans-50"/>
      </defs>
      <g transform="translate(49.096875 258.668806)scale(0.1 -0.1)">
       <use xlink:href="#DejaVuSans-48"/>
       <use x="63.623047" xlink:href="#DejaVuSans-46"/>
       <use x="95.410156" xlink:href="#DejaVuSans-50"/>
      </g>
     </g>
    </g>
    <g id="ytick_3">
     <g id="line2d_10">
      <g>
       <use style="stroke:#000000;stroke-width:0.8;" x="72" xlink:href="#mffd74051a0" y="219.282704"/>
      </g>
     </g>
     <g id="text_3">
      <!-- 0.4 -->
      <defs>
       <path d="M 37.796875 64.3125 
L 12.890625 25.390625 
L 37.796875 25.390625 
z
M 35.203125 72.90625 
L 47.609375 72.90625 
L 47.609375 25.390625 
L 58.015625 25.390625 
L 58.015625 17.1875 
L 47.609375 17.1875 
L 47.609375 0 
L 37.796875 0 
L 37.796875 17.1875 
L 4.890625 17.1875 
L 4.890625 26.703125 
z
" id="DejaVuSans-52"/>
      </defs>
      <g transform="translate(49.096875 223.081923)scale(0.1 -0.1)">
       <use xlink:href="#DejaVuSans-48"/>
       <use x="63.623047" xlink:href="#DejaVuSans-46"/>
       <use x="95.410156" xlink:href="#DejaVuSans-52"/>
      </g>
     </g>
    </g>
    <g id="ytick_4">
     <g id="line2d_11">
      <g>
       <use style="stroke:#000000;stroke-width:0.8;" x="72" xlink:href="#mffd74051a0" y="183.695821"/>
      </g>
     </g>
     <g id="text_4">
      <!-- 0.6 -->
      <defs>
       <path d="M 33.015625 40.375 
Q 26.375 40.375 22.484375 35.828125 
Q 18.609375 31.296875 18.609375 23.390625 
Q 18.609375 15.53125 22.484375 10.953125 
Q 26.375 6.390625 33.015625 6.390625 
Q 39.65625 6.390625 43.53125 10.953125 
Q 47.40625 15.53125 47.40625 23.390625 
Q 47.40625 31.296875 43.53125 35.828125 
Q 39.65625 40.375 33.015625 40.375 
z
M 52.59375 71.296875 
L 52.59375 62.3125 
Q 48.875 64.0625 45.09375 64.984375 
Q 41.3125 65.921875 37.59375 65.921875 
Q 27.828125 65.921875 22.671875 59.328125 
Q 17.53125 52.734375 16.796875 39.40625 
Q 19.671875 43.65625 24.015625 45.921875 
Q 28.375 48.1875 33.59375 48.1875 
Q 44.578125 48.1875 50.953125 41.515625 
Q 57.328125 34.859375 57.328125 23.390625 
Q 57.328125 12.15625 50.6875 5.359375 
Q 44.046875 -1.421875 33.015625 -1.421875 
Q 20.359375 -1.421875 13.671875 8.265625 
Q 6.984375 17.96875 6.984375 36.375 
Q 6.984375 53.65625 15.1875 63.9375 
Q 23.390625 74.21875 37.203125 74.21875 
Q 40.921875 74.21875 44.703125 73.484375 
Q 48.484375 72.75 52.59375 71.296875 
z
" id="DejaVuSans-54"/>
      </defs>
      <g transform="translate(49.096875 187.495039)scale(0.1 -0.1)">
       <use xlink:href="#DejaVuSans-48"/>
       <use x="63.623047" xlink:href="#DejaVuSans-46"/>
       <use x="95.410156" xlink:href="#DejaVuSans-54"/>
      </g>
     </g>
    </g>
    <g id="ytick_5">
     <g id="line2d_12">
      <g>
       <use style="stroke:#000000;stroke-width:0.8;" x="72" xlink:href="#mffd74051a0" y="148.108937"/>
      </g>
     </g>
     <g id="text_5">
      <!-- 0.8 -->
      <defs>
       <path d="M 31.78125 34.625 
Q 24.75 34.625 20.71875 30.859375 
Q 16.703125 27.09375 16.703125 20.515625 
Q 16.703125 13.921875 20.71875 10.15625 
Q 24.75 6.390625 31.78125 6.390625 
Q 38.8125 6.390625 42.859375 10.171875 
Q 46.921875 13.96875 46.921875 20.515625 
Q 46.921875 27.09375 42.890625 30.859375 
Q 38.875 34.625 31.78125 34.625 
z
M 21.921875 38.8125 
Q 15.578125 40.375 12.03125 44.71875 
Q 8.5 49.078125 8.5 55.328125 
Q 8.5 64.0625 14.71875 69.140625 
Q 20.953125 74.21875 31.78125 74.21875 
Q 42.671875 74.21875 48.875 69.140625 
Q 55.078125 64.0625 55.078125 55.328125 
Q 55.078125 49.078125 51.53125 44.71875 
Q 48 40.375 41.703125 38.8125 
Q 48.828125 37.15625 52.796875 32.3125 
Q 56.78125 27.484375 56.78125 20.515625 
Q 56.78125 9.90625 50.3125 4.234375 
Q 43.84375 -1.421875 31.78125 -1.421875 
Q 19.734375 -1.421875 13.25 4.234375 
Q 6.78125 9.90625 6.78125 20.515625 
Q 6.78125 27.484375 10.78125 32.3125 
Q 14.796875 37.15625 21.921875 38.8125 
z
M 18.3125 54.390625 
Q 18.3125 48.734375 21.84375 45.5625 
Q 25.390625 42.390625 31.78125 42.390625 
Q 38.140625 42.390625 41.71875 45.5625 
Q 45.3125 48.734375 45.3125 54.390625 
Q 45.3125 60.0625 41.71875 63.234375 
Q 38.140625 66.40625 31.78125 66.40625 
Q 25.390625 66.40625 21.84375 63.234375 
Q 18.3125 60.0625 18.3125 54.390625 
z
" id="DejaVuSans-56"/>
      </defs>
      <g transform="translate(49.096875 151.908156)scale(0.1 -0.1)">
       <use xlink:href="#DejaVuSans-48"/>
       <use x="63.623047" xlink:href="#DejaVuSans-46"/>
       <use x="95.410156" xlink:href="#DejaVuSans-56"/>
      </g>
     </g>
    </g>
    <g id="ytick_6">
     <g id="line2d_13">
      <g>
       <use style="stroke:#000000;stroke-width:0.8;" x="72" xlink:href="#mffd74051a0" y="112.522054"/>
      </g>
     </g>
     <g id="text_6">
      <!-- 1.0 -->
      <defs>
       <path d="M 12.40625 8.296875 
L 28.515625 8.296875 
L 28.515625 63.921875 
L 10.984375 60.40625 
L 10.984375 69.390625 
L 28.421875 72.90625 
L 38.28125 72.90625 
L 38.28125 8.296875 
L 54.390625 8.296875 
L 54.390625 0 
L 12.40625 0 
z
" id="DejaVuSans-49"/>
      </defs>
      <g transform="translate(49.096875 116.321273)scale(0.1 -0.1)">
       <use xlink:href="#DejaVuSans-49"/>
       <use x="63.623047" xlink:href="#DejaVuSans-46"/>
       <use x="95.410156" xlink:href="#DejaVuSans-48"/>
      </g>
     </g>
    </g>
   </g>
   <g id="line2d_14">
    <path clip-path="url(#pf22eaf9cc7)" d="M 72 290.456469 
L 76.509091 290.456469 
L 81.018182 290.456469 
L 85.527273 290.456468 
L 90.036364 290.456467 
L 94.545455 290.456466 
L 99.054545 290.456464 
L 103.563636 290.456459 
L 108.072727 290.456451 
L 112.581818 290.456432 
L 117.090909 290.456384 
L 121.6 290.456245 
L 126.109091 290.45576 
L 130.618182 290.453735 
L 135.127273 290.443765 
L 139.636364 290.38963 
L 144.145455 290.100804 
L 148.654545 288.775365 
L 153.163636 284.074293 
L 157.672727 271.959032 
L 162.181818 249.878107 
L 166.690909 221.445644 
L 171.2 194.948027 
L 175.709091 176.92256 
L 180.218182 170.038643 
L 184.727273 174.188098 
L 189.236364 183.822618 
L 193.745455 190.69454 
L 198.254545 196.103647 
L 202.763636 207.589576 
L 207.272727 225.371 
L 211.781818 233.318686 
L 216.290909 234.092172 
L 220.8 238.072683 
L 225.309091 244.466096 
L 229.818182 252.55018 
L 234.327273 260.193384 
L 238.836364 262.53851 
L 243.345455 264.964292 
L 247.854545 263.04107 
L 252.363636 247.362292 
L 256.872727 240.932282 
L 261.381818 250.24144 
L 265.890909 263.361198 
L 270.4 272.226253 
L 274.909091 273.136794 
L 279.418182 270.506088 
L 283.927273 272.759926 
L 288.436364 246.705618 
L 292.945455 262.534172 
L 297.454545 206.908249 
L 301.963636 173.692069 
L 306.472727 170.480095 
L 310.981818 180.535875 
L 315.490909 208.055156 
L 320 216.717302 
L 324.509091 192.473575 
L 329.018182 168.596573 
L 333.527273 156.894341 
L 338.036364 159.823778 
L 342.545455 170.935102 
L 347.054545 185.680878 
L 351.563636 197.750036 
L 356.072727 210.783885 
L 360.581818 224.310693 
L 365.090909 237.883711 
L 369.6 251.106739 
L 374.109091 263.583536 
L 378.618182 274.54497 
L 383.127273 282.563019 
L 387.636364 286.887927 
L 392.145455 288.683062 
L 396.654545 289.40506 
L 401.163636 289.76425 
L 405.672727 290.004262 
L 410.181818 290.157619 
L 414.690909 290.256438 
L 419.2 290.321333 
L 423.709091 290.364768 
L 428.218182 290.396116 
L 432.727273 290.417855 
L 437.236364 290.432446 
L 441.745455 290.441884 
L 446.254545 290.447778 
L 450.763636 290.451353 
L 455.272727 290.453475 
L 459.781818 290.454719 
L 464.290909 290.455443 
L 468.8 290.455865 
L 473.309091 290.45611 
L 477.818182 290.456254 
L 482.327273 290.456339 
L 486.836364 290.45639 
L 491.345455 290.456421 
L 495.854545 290.456439 
L 500.363636 290.456451 
L 504.872727 290.456458 
L 509.381818 290.456462 
L 513.890909 290.456465 
L 518.4 290.456467 
" style="fill:none;stroke:#1f77b4;stroke-linecap:square;stroke-width:1.5;"/>
   </g>
   <g id="line2d_15">
    <path clip-path="url(#pf22eaf9cc7)" d="M 72 290.404418 
L 76.509091 290.399386 
L 81.018182 290.393058 
L 85.527273 290.384951 
L 90.036364 290.374342 
L 94.545455 290.360106 
L 99.054545 290.340437 
L 103.563636 290.312307 
L 108.072727 290.270402 
L 112.581818 290.204899 
L 117.090909 290.096557 
L 121.6 289.905374 
L 126.109091 289.543566 
L 130.618182 288.812081 
L 135.127273 287.266472 
L 139.636364 284.014761 
L 144.145455 277.694581 
L 148.654545 267.304226 
L 153.163636 254.098405 
L 157.672727 242.646532 
L 162.181818 238.381861 
L 166.690909 242.71917 
L 171.2 251.833586 
L 175.709091 260.888515 
L 180.218182 267.341672 
L 184.727273 270.570457 
L 189.236364 269.996806 
L 193.745455 263.874554 
L 198.254545 249.983177 
L 202.763636 229.082747 
L 207.272727 211.61347 
L 211.781818 215.529758 
L 216.290909 227.929073 
L 220.8 239.423369 
L 225.309091 248.911067 
L 229.818182 256.923673 
L 234.327273 263.70342 
L 238.836364 266.335296 
L 243.345455 268.870375 
L 247.854545 267.854612 
L 252.363636 256.526298 
L 256.872727 250.730019 
L 261.381818 253.799054 
L 265.890909 259.70621 
L 270.4 265.56163 
L 274.909091 265.96208 
L 279.418182 247.814974 
L 283.927273 240.643637 
L 288.436364 255.373295 
L 292.945455 226.873496 
L 297.454545 251.264497 
L 301.963636 263.28463 
L 306.472727 266.35533 
L 310.981818 266.983872 
L 315.490909 260.557998 
L 320 245.3953 
L 324.509091 239.587901 
L 329.018182 251.386327 
L 333.527273 262.528575 
L 338.036364 264.652614 
L 342.545455 261.954174 
L 347.054545 257.202977 
L 351.563636 251.752124 
L 356.072727 244.824729 
L 360.581818 236.498429 
L 365.090909 227.13988 
L 369.6 217.651925 
L 374.109091 209.900334 
L 378.618182 207.162876 
L 383.127273 212.435657 
L 387.636364 222.288591 
L 392.145455 228.282158 
L 396.654545 227.498104 
L 401.163636 223.271365 
L 405.672727 223.54487 
L 410.181818 225.025837 
L 414.690909 226.897895 
L 419.2 229.298536 
L 423.709091 232.70697 
L 428.218182 240.910084 
L 432.727273 249.676913 
L 437.236364 258.233339 
L 441.745455 265.912607 
L 446.254545 272.323219 
L 450.763636 277.370302 
L 455.272727 281.170338 
L 459.781818 283.940395 
L 464.290909 285.915062 
L 468.8 287.302229 
L 473.309091 288.267912 
L 477.818182 288.936834 
L 482.327273 289.399202 
L 486.836364 289.718763 
L 491.345455 289.939913 
L 495.854545 290.093315 
L 500.363636 290.200049 
L 504.872727 290.274576 
L 509.381818 290.326822 
L 513.890909 290.363604 
L 518.4 290.389614 
" style="fill:none;stroke:#ff7f0e;stroke-linecap:square;stroke-width:1.5;"/>
   </g>
   <g id="line2d_16">
    <path clip-path="url(#pf22eaf9cc7)" d="M 72 290.456471 
L 76.509091 290.456471 
L 81.018182 290.456471 
L 85.527273 290.456471 
L 90.036364 290.456471 
L 94.545455 290.456471 
L 99.054545 290.456471 
L 103.563636 290.456471 
L 108.072727 290.456471 
L 112.581818 290.456471 
L 117.090909 290.456471 
L 121.6 290.456471 
L 126.109091 290.456471 
L 130.618182 290.456471 
L 135.127273 290.456471 
L 139.636364 290.456471 
L 144.145455 290.456471 
L 148.654545 290.456471 
L 153.163636 290.456471 
L 157.672727 290.456471 
L 162.181818 290.456471 
L 166.690909 290.456471 
L 171.2 290.456471 
L 175.709091 290.45647 
L 180.218182 290.45647 
L 184.727273 290.456468 
L 189.236364 290.456445 
L 193.745455 290.456204 
L 198.254545 290.452413 
L 202.763636 290.356089 
L 207.272727 288.662706 
L 211.781818 282.489044 
L 216.290909 274.714654 
L 220.8 264.087491 
L 225.309091 253.492007 
L 229.818182 245.404702 
L 234.327273 241.784966 
L 238.836364 243.532915 
L 243.345455 245.83399 
L 247.854545 245.352952 
L 252.363636 239.950001 
L 256.872727 238.376203 
L 261.381818 233.976835 
L 265.890909 232.160038 
L 270.4 238.536774 
L 274.909091 249.117897 
L 279.418182 252.27157 
L 283.927273 231.581231 
L 288.436364 255.681757 
L 292.945455 230.418654 
L 297.454545 251.811306 
L 301.963636 261.723256 
L 306.472727 260.323049 
L 310.981818 253.443842 
L 315.490909 242.506207 
L 320 254.374748 
L 324.509091 277.561465 
L 329.018182 283.873455 
L 333.527273 283.058975 
L 338.036364 279.349699 
L 342.545455 273.531231 
L 347.054545 267.762987 
L 351.563636 264.619574 
L 356.072727 262.123004 
L 360.581818 260.397197 
L 365.090909 259.265352 
L 369.6 258.030401 
L 374.109091 255.110859 
L 378.618182 247.723473 
L 383.127273 233.464165 
L 387.636364 216.418088 
L 392.145455 206.034454 
L 396.654545 205.136282 
L 401.163636 209.623434 
L 405.672727 213.48409 
L 410.181818 217.889801 
L 414.690909 222.982067 
L 419.2 228.610013 
L 423.709091 234.890788 
L 428.218182 244.177467 
L 432.727273 253.474458 
L 437.236364 262.079812 
L 441.745455 269.46447 
L 446.254545 275.39118 
L 450.763636 279.893683 
L 455.272727 283.172916 
L 459.781818 285.489168 
L 464.290909 287.091046 
L 468.8 288.183682 
L 473.309091 288.922751 
L 477.818182 289.420437 
L 482.327273 289.755017 
L 486.836364 289.980013 
L 491.345455 290.131574 
L 495.854545 290.233946 
L 500.363636 290.303332 
L 504.872727 290.350547 
L 509.381818 290.382817 
L 513.890909 290.404977 
L 518.4 290.420268 
" style="fill:none;stroke:#2ca02c;stroke-linecap:square;stroke-width:1.5;"/>
   </g>
   <g id="line2d_17">
    <path clip-path="url(#pf22eaf9cc7)" d="M 72 112.574118 
L 76.509091 112.579134 
L 81.018182 112.585476 
L 85.527273 112.593569 
L 90.036364 112.604185 
L 94.545455 112.618428 
L 99.054545 112.638091 
L 103.563636 112.666239 
L 108.072727 112.708142 
L 112.581818 112.773664 
L 117.090909 112.882044 
L 121.6 113.073382 
L 126.109091 113.435663 
L 130.618182 114.169175 
L 135.127273 115.724758 
L 139.636364 119.030613 
L 144.145455 125.639619 
L 148.654545 137.355459 
L 153.163636 155.262449 
L 157.672727 178.829733 
L 162.181818 205.175545 
L 166.690909 229.271003 
L 171.2 246.654602 
L 175.709091 255.625838 
L 180.218182 256.058231 
L 184.727273 248.684338 
L 189.236364 239.635054 
L 193.745455 238.919624 
L 198.254545 247.561908 
L 202.763636 258.140695 
L 207.272727 264.613783 
L 211.781818 265.671635 
L 216.290909 264.24244 
L 220.8 263.486205 
L 225.309091 262.913968 
L 229.818182 262.425498 
L 234.327273 263.440696 
L 238.836364 266.125162 
L 243.345455 268.943686 
L 247.854545 272.51554 
L 252.363636 278.449282 
L 256.872727 280.56401 
L 261.381818 276.297354 
L 265.890909 264.073425 
L 270.4 247.111486 
L 274.909091 246.303966 
L 279.418182 264.624055 
L 283.927273 263.405206 
L 288.436364 255.340006 
L 292.945455 289.134571 
L 297.454545 290.417929 
L 301.963636 290.448618 
L 306.472727 290.454089 
L 310.981818 290.455424 
L 315.490909 290.456046 
L 320 290.45636 
L 324.509091 290.456453 
L 329.018182 290.456468 
L 333.527273 290.45647 
L 338.036364 290.45647 
L 342.545455 290.45647 
L 347.054545 290.45647 
L 351.563636 290.45647 
L 356.072727 290.45647 
L 360.581818 290.456471 
L 365.090909 290.456471 
L 369.6 290.456471 
L 374.109091 290.456471 
L 378.618182 290.456471 
L 383.127273 290.456471 
L 387.636364 290.456471 
L 392.145455 290.456471 
L 396.654545 290.456471 
L 401.163636 290.456471 
L 405.672727 290.456471 
L 410.181818 290.456471 
L 414.690909 290.456471 
L 419.2 290.456471 
L 423.709091 290.456471 
L 428.218182 290.456471 
L 432.727273 290.456471 
L 437.236364 290.456471 
L 441.745455 290.456471 
L 446.254545 290.456471 
L 450.763636 290.456471 
L 455.272727 290.456471 
L 459.781818 290.456471 
L 464.290909 290.456471 
L 468.8 290.456471 
L 473.309091 290.456471 
L 477.818182 290.456471 
L 482.327273 290.456471 
L 486.836364 290.456471 
L 491.345455 290.456471 
L 495.854545 290.456471 
L 500.363636 290.456471 
L 504.872727 290.456471 
L 509.381818 290.456471 
L 513.890909 290.456471 
L 518.4 290.456471 
" style="fill:none;stroke:#d62728;stroke-linecap:square;stroke-width:1.5;"/>
   </g>
   <g id="line2d_18">
    <path clip-path="url(#pf22eaf9cc7)" d="M 72 290.456471 
L 76.509091 290.456471 
L 81.018182 290.456471 
L 85.527273 290.456471 
L 90.036364 290.456471 
L 94.545455 290.456471 
L 99.054545 290.456471 
L 103.563636 290.456471 
L 108.072727 290.456471 
L 112.581818 290.456471 
L 117.090909 290.45647 
L 121.6 290.45647 
L 126.109091 290.45647 
L 130.618182 290.456469 
L 135.127273 290.456467 
L 139.636364 290.456462 
L 144.145455 290.456446 
L 148.654545 290.456407 
L 153.163636 290.456324 
L 157.672727 290.456175 
L 162.181818 290.455953 
L 166.690909 290.455662 
L 171.2 290.455262 
L 175.709091 290.454557 
L 180.218182 290.452918 
L 184.727273 290.448572 
L 189.236364 290.437024 
L 193.745455 290.403031 
L 198.254545 290.246783 
L 202.763636 289.178829 
L 207.272727 284.086974 
L 211.781818 277.338813 
L 216.290909 273.369598 
L 220.8 269.278178 
L 225.309091 264.564804 
L 229.818182 257.043891 
L 234.327273 245.225482 
L 238.836364 235.816052 
L 243.345455 225.735609 
L 247.854545 225.583767 
L 252.363636 252.060053 
L 256.872727 263.74543 
L 261.381818 260.033264 
L 265.890909 255.047076 
L 270.4 250.911793 
L 274.909091 239.827198 
L 279.418182 239.131245 
L 283.927273 265.957947 
L 288.436364 261.247266 
L 292.945455 265.387041 
L 297.454545 273.945951 
L 301.963636 285.199361 
L 306.472727 286.735374 
L 310.981818 282.928926 
L 315.490909 272.772531 
L 320 267.404217 
L 324.509091 274.268545 
L 329.018182 280.03513 
L 333.527273 281.409569 
L 338.036364 280.065389 
L 342.545455 277.470962 
L 347.054545 273.244629 
L 351.563636 269.769735 
L 356.072727 266.159837 
L 360.581818 262.685158 
L 365.090909 259.602505 
L 369.6 257.102403 
L 374.109091 255.296727 
L 378.618182 254.460148 
L 383.127273 255.428622 
L 387.636364 258.296862 
L 392.145455 260.891776 
L 396.654545 261.852023 
L 401.163636 261.232416 
L 405.672727 256.858241 
L 410.181818 250.8182 
L 414.690909 243.755073 
L 419.2 235.661585 
L 423.709091 225.928946 
L 428.218182 208.407807 
L 432.727273 190.322237 
L 437.236364 173.145874 
L 441.745455 158.072509 
L 446.254545 145.729288 
L 450.763636 136.176124 
L 455.272727 129.094729 
L 459.781818 124.007177 
L 464.290909 120.429911 
L 468.8 117.949679 
L 473.309091 116.244704 
L 477.818182 115.077947 
L 482.327273 114.280906 
L 486.836364 113.736292 
L 491.345455 113.363565 
L 495.854545 113.107766 
L 500.363636 112.931636 
L 504.872727 112.809893 
L 509.381818 112.725366 
L 513.890909 112.66643 
L 518.4 112.625121 
" style="fill:none;stroke:#9467bd;stroke-linecap:square;stroke-width:1.5;"/>
   </g>
   <g id="patch_3">
    <path d="M 72 299.350588 
L 72 103.68 
" style="fill:none;stroke:#000000;stroke-linecap:square;stroke-linejoin:miter;stroke-width:0.8;"/>
   </g>
   <g id="patch_4">
    <path d="M 518.4 299.350588 
L 518.4 103.68 
" style="fill:none;stroke:#000000;stroke-linecap:square;stroke-linejoin:miter;stroke-width:0.8;"/>
   </g>
   <g id="patch_5">
    <path d="M 72 299.350588 
L 518.4 299.350588 
" style="fill:none;stroke:#000000;stroke-linecap:square;stroke-linejoin:miter;stroke-width:0.8;"/>
   </g>
   <g id="patch_6">
    <path d="M 72 103.68 
L 518.4 103.68 
" style="fill:none;stroke:#000000;stroke-linecap:square;stroke-linejoin:miter;stroke-width:0.8;"/>
   </g>
   <g id="text_7">
    <!-- P(mixture). $\Pi$ (Y-axis must sum to one.) -->
    <defs>
     <path d="M 19.671875 64.796875 
L 19.671875 37.40625 
L 32.078125 37.40625 
Q 38.96875 37.40625 42.71875 40.96875 
Q 46.484375 44.53125 46.484375 51.125 
Q 46.484375 57.671875 42.71875 61.234375 
Q 38.96875 64.796875 32.078125 64.796875 
z
M 9.8125 72.90625 
L 32.078125 72.90625 
Q 44.34375 72.90625 50.609375 67.359375 
Q 56.890625 61.8125 56.890625 51.125 
Q 56.890625 40.328125 50.609375 34.8125 
Q 44.34375 29.296875 32.078125 29.296875 
L 19.671875 29.296875 
L 19.671875 0 
L 9.8125 0 
z
" id="DejaVuSans-80"/>
     <path d="M 31 75.875 
Q 24.46875 64.65625 21.28125 53.65625 
Q 18.109375 42.671875 18.109375 31.390625 
Q 18.109375 20.125 21.3125 9.0625 
Q 24.515625 -2 31 -13.1875 
L 23.1875 -13.1875 
Q 15.875 -1.703125 12.234375 9.375 
Q 8.59375 20.453125 8.59375 31.390625 
Q 8.59375 42.28125 12.203125 53.3125 
Q 15.828125 64.359375 23.1875 75.875 
z
" id="DejaVuSans-40"/>
     <path d="M 52 44.1875 
Q 55.375 50.25 60.0625 53.125 
Q 64.75 56 71.09375 56 
Q 79.640625 56 84.28125 50.015625 
Q 88.921875 44.046875 88.921875 33.015625 
L 88.921875 0 
L 79.890625 0 
L 79.890625 32.71875 
Q 79.890625 40.578125 77.09375 44.375 
Q 74.3125 48.1875 68.609375 48.1875 
Q 61.625 48.1875 57.5625 43.546875 
Q 53.515625 38.921875 53.515625 30.90625 
L 53.515625 0 
L 44.484375 0 
L 44.484375 32.71875 
Q 44.484375 40.625 41.703125 44.40625 
Q 38.921875 48.1875 33.109375 48.1875 
Q 26.21875 48.1875 22.15625 43.53125 
Q 18.109375 38.875 18.109375 30.90625 
L 18.109375 0 
L 9.078125 0 
L 9.078125 54.6875 
L 18.109375 54.6875 
L 18.109375 46.1875 
Q 21.1875 51.21875 25.484375 53.609375 
Q 29.78125 56 35.6875 56 
Q 41.65625 56 45.828125 52.96875 
Q 50 49.953125 52 44.1875 
z
" id="DejaVuSans-109"/>
     <path d="M 9.421875 54.6875 
L 18.40625 54.6875 
L 18.40625 0 
L 9.421875 0 
z
M 9.421875 75.984375 
L 18.40625 75.984375 
L 18.40625 64.59375 
L 9.421875 64.59375 
z
" id="DejaVuSans-105"/>
     <path d="M 54.890625 54.6875 
L 35.109375 28.078125 
L 55.90625 0 
L 45.3125 0 
L 29.390625 21.484375 
L 13.484375 0 
L 2.875 0 
L 24.125 28.609375 
L 4.6875 54.6875 
L 15.28125 54.6875 
L 29.78125 35.203125 
L 44.28125 54.6875 
z
" id="DejaVuSans-120"/>
     <path d="M 18.3125 70.21875 
L 18.3125 54.6875 
L 36.8125 54.6875 
L 36.8125 47.703125 
L 18.3125 47.703125 
L 18.3125 18.015625 
Q 18.3125 11.328125 20.140625 9.421875 
Q 21.96875 7.515625 27.59375 7.515625 
L 36.8125 7.515625 
L 36.8125 0 
L 27.59375 0 
Q 17.1875 0 13.234375 3.875 
Q 9.28125 7.765625 9.28125 18.015625 
L 9.28125 47.703125 
L 2.6875 47.703125 
L 2.6875 54.6875 
L 9.28125 54.6875 
L 9.28125 70.21875 
z
" id="DejaVuSans-116"/>
     <path d="M 8.5 21.578125 
L 8.5 54.6875 
L 17.484375 54.6875 
L 17.484375 21.921875 
Q 17.484375 14.15625 20.5 10.265625 
Q 23.53125 6.390625 29.59375 6.390625 
Q 36.859375 6.390625 41.078125 11.03125 
Q 45.3125 15.671875 45.3125 23.6875 
L 45.3125 54.6875 
L 54.296875 54.6875 
L 54.296875 0 
L 45.3125 0 
L 45.3125 8.40625 
Q 42.046875 3.421875 37.71875 1 
Q 33.40625 -1.421875 27.6875 -1.421875 
Q 18.265625 -1.421875 13.375 4.4375 
Q 8.5 10.296875 8.5 21.578125 
z
M 31.109375 56 
z
" id="DejaVuSans-117"/>
     <path d="M 41.109375 46.296875 
Q 39.59375 47.171875 37.8125 47.578125 
Q 36.03125 48 33.890625 48 
Q 26.265625 48 22.1875 43.046875 
Q 18.109375 38.09375 18.109375 28.8125 
L 18.109375 0 
L 9.078125 0 
L 9.078125 54.6875 
L 18.109375 54.6875 
L 18.109375 46.1875 
Q 20.953125 51.171875 25.484375 53.578125 
Q 30.03125 56 36.53125 56 
Q 37.453125 56 38.578125 55.875 
Q 39.703125 55.765625 41.0625 55.515625 
z
" id="DejaVuSans-114"/>
     <path d="M 56.203125 29.59375 
L 56.203125 25.203125 
L 14.890625 25.203125 
Q 15.484375 15.921875 20.484375 11.0625 
Q 25.484375 6.203125 34.421875 6.203125 
Q 39.59375 6.203125 44.453125 7.46875 
Q 49.3125 8.734375 54.109375 11.28125 
L 54.109375 2.78125 
Q 49.265625 0.734375 44.1875 -0.34375 
Q 39.109375 -1.421875 33.890625 -1.421875 
Q 20.796875 -1.421875 13.15625 6.1875 
Q 5.515625 13.8125 5.515625 26.8125 
Q 5.515625 40.234375 12.765625 48.109375 
Q 20.015625 56 32.328125 56 
Q 43.359375 56 49.78125 48.890625 
Q 56.203125 41.796875 56.203125 29.59375 
z
M 47.21875 32.234375 
Q 47.125 39.59375 43.09375 43.984375 
Q 39.0625 48.390625 32.421875 48.390625 
Q 24.90625 48.390625 20.390625 44.140625 
Q 15.875 39.890625 15.1875 32.171875 
z
" id="DejaVuSans-101"/>
     <path d="M 8.015625 75.875 
L 15.828125 75.875 
Q 23.140625 64.359375 26.78125 53.3125 
Q 30.421875 42.28125 30.421875 31.390625 
Q 30.421875 20.453125 26.78125 9.375 
Q 23.140625 -1.703125 15.828125 -13.1875 
L 8.015625 -13.1875 
Q 14.5 -2 17.703125 9.0625 
Q 20.90625 20.125 20.90625 31.390625 
Q 20.90625 42.671875 17.703125 53.65625 
Q 14.5 64.65625 8.015625 75.875 
z
" id="DejaVuSans-41"/>
     <path id="DejaVuSans-32"/>
     <path d="M 65.375 72.90625 
L 65.375 0 
L 55.515625 0 
L 55.515625 64.59375 
L 19.671875 64.59375 
L 19.671875 0 
L 9.8125 0 
L 9.8125 72.90625 
z
" id="DejaVuSans-928"/>
     <path d="M -0.203125 72.90625 
L 10.40625 72.90625 
L 30.609375 42.921875 
L 50.6875 72.90625 
L 61.28125 72.90625 
L 35.5 34.71875 
L 35.5 0 
L 25.59375 0 
L 25.59375 34.71875 
z
" id="DejaVuSans-89"/>
     <path d="M 4.890625 31.390625 
L 31.203125 31.390625 
L 31.203125 23.390625 
L 4.890625 23.390625 
z
" id="DejaVuSans-45"/>
     <path d="M 34.28125 27.484375 
Q 23.390625 27.484375 19.1875 25 
Q 14.984375 22.515625 14.984375 16.5 
Q 14.984375 11.71875 18.140625 8.90625 
Q 21.296875 6.109375 26.703125 6.109375 
Q 34.1875 6.109375 38.703125 11.40625 
Q 43.21875 16.703125 43.21875 25.484375 
L 43.21875 27.484375 
z
M 52.203125 31.203125 
L 52.203125 0 
L 43.21875 0 
L 43.21875 8.296875 
Q 40.140625 3.328125 35.546875 0.953125 
Q 30.953125 -1.421875 24.3125 -1.421875 
Q 15.921875 -1.421875 10.953125 3.296875 
Q 6 8.015625 6 15.921875 
Q 6 25.140625 12.171875 29.828125 
Q 18.359375 34.515625 30.609375 34.515625 
L 43.21875 34.515625 
L 43.21875 35.40625 
Q 43.21875 41.609375 39.140625 45 
Q 35.0625 48.390625 27.6875 48.390625 
Q 23 48.390625 18.546875 47.265625 
Q 14.109375 46.140625 10.015625 43.890625 
L 10.015625 52.203125 
Q 14.9375 54.109375 19.578125 55.046875 
Q 24.21875 56 28.609375 56 
Q 40.484375 56 46.34375 49.84375 
Q 52.203125 43.703125 52.203125 31.203125 
z
" id="DejaVuSans-97"/>
     <path d="M 44.28125 53.078125 
L 44.28125 44.578125 
Q 40.484375 46.53125 36.375 47.5 
Q 32.28125 48.484375 27.875 48.484375 
Q 21.1875 48.484375 17.84375 46.4375 
Q 14.5 44.390625 14.5 40.28125 
Q 14.5 37.15625 16.890625 35.375 
Q 19.28125 33.59375 26.515625 31.984375 
L 29.59375 31.296875 
Q 39.15625 29.25 43.1875 25.515625 
Q 47.21875 21.78125 47.21875 15.09375 
Q 47.21875 7.46875 41.1875 3.015625 
Q 35.15625 -1.421875 24.609375 -1.421875 
Q 20.21875 -1.421875 15.453125 -0.5625 
Q 10.6875 0.296875 5.421875 2 
L 5.421875 11.28125 
Q 10.40625 8.6875 15.234375 7.390625 
Q 20.0625 6.109375 24.8125 6.109375 
Q 31.15625 6.109375 34.5625 8.28125 
Q 37.984375 10.453125 37.984375 14.40625 
Q 37.984375 18.0625 35.515625 20.015625 
Q 33.0625 21.96875 24.703125 23.78125 
L 21.578125 24.515625 
Q 13.234375 26.265625 9.515625 29.90625 
Q 5.8125 33.546875 5.8125 39.890625 
Q 5.8125 47.609375 11.28125 51.796875 
Q 16.75 56 26.8125 56 
Q 31.78125 56 36.171875 55.265625 
Q 40.578125 54.546875 44.28125 53.078125 
z
" id="DejaVuSans-115"/>
     <path d="M 30.609375 48.390625 
Q 23.390625 48.390625 19.1875 42.75 
Q 14.984375 37.109375 14.984375 27.296875 
Q 14.984375 17.484375 19.15625 11.84375 
Q 23.34375 6.203125 30.609375 6.203125 
Q 37.796875 6.203125 41.984375 11.859375 
Q 46.1875 17.53125 46.1875 27.296875 
Q 46.1875 37.015625 41.984375 42.703125 
Q 37.796875 48.390625 30.609375 48.390625 
z
M 30.609375 56 
Q 42.328125 56 49.015625 48.375 
Q 55.71875 40.765625 55.71875 27.296875 
Q 55.71875 13.875 49.015625 6.21875 
Q 42.328125 -1.421875 30.609375 -1.421875 
Q 18.84375 -1.421875 12.171875 6.21875 
Q 5.515625 13.875 5.515625 27.296875 
Q 5.515625 40.765625 12.171875 48.375 
Q 18.84375 56 30.609375 56 
z
" id="DejaVuSans-111"/>
     <path d="M 54.890625 33.015625 
L 54.890625 0 
L 45.90625 0 
L 45.90625 32.71875 
Q 45.90625 40.484375 42.875 44.328125 
Q 39.84375 48.1875 33.796875 48.1875 
Q 26.515625 48.1875 22.3125 43.546875 
Q 18.109375 38.921875 18.109375 30.90625 
L 18.109375 0 
L 9.078125 0 
L 9.078125 54.6875 
L 18.109375 54.6875 
L 18.109375 46.1875 
Q 21.34375 51.125 25.703125 53.5625 
Q 30.078125 56 35.796875 56 
Q 45.21875 56 50.046875 50.171875 
Q 54.890625 44.34375 54.890625 33.015625 
z
" id="DejaVuSans-110"/>
    </defs>
    <g transform="translate(176.1 97.68)scale(0.12 -0.12)">
     <use transform="translate(0 0.015625)" xlink:href="#DejaVuSans-80"/>
     <use transform="translate(60.302734 0.015625)" xlink:href="#DejaVuSans-40"/>
     <use transform="translate(99.316406 0.015625)" xlink:href="#DejaVuSans-109"/>
     <use transform="translate(196.728516 0.015625)" xlink:href="#DejaVuSans-105"/>
     <use transform="translate(224.511719 0.015625)" xlink:href="#DejaVuSans-120"/>
     <use transform="translate(283.691406 0.015625)" xlink:href="#DejaVuSans-116"/>
     <use transform="translate(322.900391 0.015625)" xlink:href="#DejaVuSans-117"/>
     <use transform="translate(386.279297 0.015625)" xlink:href="#DejaVuSans-114"/>
     <use transform="translate(427.392578 0.015625)" xlink:href="#DejaVuSans-101"/>
     <use transform="translate(488.916016 0.015625)" xlink:href="#DejaVuSans-41"/>
     <use transform="translate(527.929688 0.015625)" xlink:href="#DejaVuSans-46"/>
     <use transform="translate(559.716797 0.015625)" xlink:href="#DejaVuSans-32"/>
     <use transform="translate(591.503906 0.015625)" xlink:href="#DejaVuSans-928"/>
     <use transform="translate(666.699219 0.015625)" xlink:href="#DejaVuSans-32"/>
     <use transform="translate(698.486328 0.015625)" xlink:href="#DejaVuSans-40"/>
     <use transform="translate(737.5 0.015625)" xlink:href="#DejaVuSans-89"/>
     <use transform="translate(798.583984 0.015625)" xlink:href="#DejaVuSans-45"/>
     <use transform="translate(834.667969 0.015625)" xlink:href="#DejaVuSans-97"/>
     <use transform="translate(895.947266 0.015625)" xlink:href="#DejaVuSans-120"/>
     <use transform="translate(955.126953 0.015625)" xlink:href="#DejaVuSans-105"/>
     <use transform="translate(982.910156 0.015625)" xlink:href="#DejaVuSans-115"/>
     <use transform="translate(1035.009766 0.015625)" xlink:href="#DejaVuSans-32"/>
     <use transform="translate(1066.796875 0.015625)" xlink:href="#DejaVuSans-109"/>
     <use transform="translate(1164.208984 0.015625)" xlink:href="#DejaVuSans-117"/>
     <use transform="translate(1227.587891 0.015625)" xlink:href="#DejaVuSans-115"/>
     <use transform="translate(1279.6875 0.015625)" xlink:href="#DejaVuSans-116"/>
     <use transform="translate(1318.896484 0.015625)" xlink:href="#DejaVuSans-32"/>
     <use transform="translate(1350.683594 0.015625)" xlink:href="#DejaVuSans-115"/>
     <use transform="translate(1402.783203 0.015625)" xlink:href="#DejaVuSans-117"/>
     <use transform="translate(1466.162109 0.015625)" xlink:href="#DejaVuSans-109"/>
     <use transform="translate(1563.574219 0.015625)" xlink:href="#DejaVuSans-32"/>
     <use transform="translate(1595.361328 0.015625)" xlink:href="#DejaVuSans-116"/>
     <use transform="translate(1634.570312 0.015625)" xlink:href="#DejaVuSans-111"/>
     <use transform="translate(1695.751953 0.015625)" xlink:href="#DejaVuSans-32"/>
     <use transform="translate(1727.539062 0.015625)" xlink:href="#DejaVuSans-111"/>
     <use transform="translate(1788.720703 0.015625)" xlink:href="#DejaVuSans-110"/>
     <use transform="translate(1852.099609 0.015625)" xlink:href="#DejaVuSans-101"/>
     <use transform="translate(1913.623047 0.015625)" xlink:href="#DejaVuSans-46"/>
     <use transform="translate(1945.410156 0.015625)" xlink:href="#DejaVuSans-41"/>
    </g>
   </g>
  </g>
  <g id="axes_2">
   <g id="patch_7">
    <path d="M 72 534.155294 
L 518.4 534.155294 
L 518.4 338.484706 
L 72 338.484706 
z
" style="fill:#ffffff;"/>
   </g>
   <g id="matplotlib.axis_3">
    <g id="xtick_8">
     <g id="line2d_19">
      <g>
       <use style="stroke:#000000;stroke-width:0.8;" x="72" xlink:href="#m2df71308bc" y="534.155294"/>
      </g>
     </g>
    </g>
    <g id="xtick_9">
     <g id="line2d_20">
      <g>
       <use style="stroke:#000000;stroke-width:0.8;" x="146.4" xlink:href="#m2df71308bc" y="534.155294"/>
      </g>
     </g>
    </g>
    <g id="xtick_10">
     <g id="line2d_21">
      <g>
       <use style="stroke:#000000;stroke-width:0.8;" x="220.8" xlink:href="#m2df71308bc" y="534.155294"/>
      </g>
     </g>
    </g>
    <g id="xtick_11">
     <g id="line2d_22">
      <g>
       <use style="stroke:#000000;stroke-width:0.8;" x="295.2" xlink:href="#m2df71308bc" y="534.155294"/>
      </g>
     </g>
    </g>
    <g id="xtick_12">
     <g id="line2d_23">
      <g>
       <use style="stroke:#000000;stroke-width:0.8;" x="369.6" xlink:href="#m2df71308bc" y="534.155294"/>
      </g>
     </g>
    </g>
    <g id="xtick_13">
     <g id="line2d_24">
      <g>
       <use style="stroke:#000000;stroke-width:0.8;" x="444" xlink:href="#m2df71308bc" y="534.155294"/>
      </g>
     </g>
    </g>
    <g id="xtick_14">
     <g id="line2d_25">
      <g>
       <use style="stroke:#000000;stroke-width:0.8;" x="518.4" xlink:href="#m2df71308bc" y="534.155294"/>
      </g>
     </g>
    </g>
   </g>
   <g id="matplotlib.axis_4">
    <g id="ytick_7">
     <g id="line2d_26">
      <g>
       <use style="stroke:#000000;stroke-width:0.8;" x="72" xlink:href="#mffd74051a0" y="525.273537"/>
      </g>
     </g>
     <g id="text_8">
      <!-- 0.0 -->
      <g transform="translate(49.096875 529.072755)scale(0.1 -0.1)">
       <use xlink:href="#DejaVuSans-48"/>
       <use x="63.623047" xlink:href="#DejaVuSans-46"/>
       <use x="95.410156" xlink:href="#DejaVuSans-48"/>
      </g>
     </g>
    </g>
    <g id="ytick_8">
     <g id="line2d_27">
      <g>
       <use style="stroke:#000000;stroke-width:0.8;" x="72" xlink:href="#mffd74051a0" y="491.903066"/>
      </g>
     </g>
     <g id="text_9">
      <!-- 0.5 -->
      <defs>
       <path d="M 10.796875 72.90625 
L 49.515625 72.90625 
L 49.515625 64.59375 
L 19.828125 64.59375 
L 19.828125 46.734375 
Q 21.96875 47.46875 24.109375 47.828125 
Q 26.265625 48.1875 28.421875 48.1875 
Q 40.625 48.1875 47.75 41.5 
Q 54.890625 34.8125 54.890625 23.390625 
Q 54.890625 11.625 47.5625 5.09375 
Q 40.234375 -1.421875 26.90625 -1.421875 
Q 22.3125 -1.421875 17.546875 -0.640625 
Q 12.796875 0.140625 7.71875 1.703125 
L 7.71875 11.625 
Q 12.109375 9.234375 16.796875 8.0625 
Q 21.484375 6.890625 26.703125 6.890625 
Q 35.15625 6.890625 40.078125 11.328125 
Q 45.015625 15.765625 45.015625 23.390625 
Q 45.015625 31 40.078125 35.4375 
Q 35.15625 39.890625 26.703125 39.890625 
Q 22.75 39.890625 18.8125 39.015625 
Q 14.890625 38.140625 10.796875 36.28125 
z
" id="DejaVuSans-53"/>
      </defs>
      <g transform="translate(49.096875 495.702285)scale(0.1 -0.1)">
       <use xlink:href="#DejaVuSans-48"/>
       <use x="63.623047" xlink:href="#DejaVuSans-46"/>
       <use x="95.410156" xlink:href="#DejaVuSans-53"/>
      </g>
     </g>
    </g>
    <g id="ytick_9">
     <g id="line2d_28">
      <g>
       <use style="stroke:#000000;stroke-width:0.8;" x="72" xlink:href="#mffd74051a0" y="458.532595"/>
      </g>
     </g>
     <g id="text_10">
      <!-- 1.0 -->
      <g transform="translate(49.096875 462.331814)scale(0.1 -0.1)">
       <use xlink:href="#DejaVuSans-49"/>
       <use x="63.623047" xlink:href="#DejaVuSans-46"/>
       <use x="95.410156" xlink:href="#DejaVuSans-48"/>
      </g>
     </g>
    </g>
    <g id="ytick_10">
     <g id="line2d_29">
      <g>
       <use style="stroke:#000000;stroke-width:0.8;" x="72" xlink:href="#mffd74051a0" y="425.162124"/>
      </g>
     </g>
     <g id="text_11">
      <!-- 1.5 -->
      <g transform="translate(49.096875 428.961343)scale(0.1 -0.1)">
       <use xlink:href="#DejaVuSans-49"/>
       <use x="63.623047" xlink:href="#DejaVuSans-46"/>
       <use x="95.410156" xlink:href="#DejaVuSans-53"/>
      </g>
     </g>
    </g>
    <g id="ytick_11">
     <g id="line2d_30">
      <g>
       <use style="stroke:#000000;stroke-width:0.8;" x="72" xlink:href="#mffd74051a0" y="391.791653"/>
      </g>
     </g>
     <g id="text_12">
      <!-- 2.0 -->
      <g transform="translate(49.096875 395.590872)scale(0.1 -0.1)">
       <use xlink:href="#DejaVuSans-50"/>
       <use x="63.623047" xlink:href="#DejaVuSans-46"/>
       <use x="95.410156" xlink:href="#DejaVuSans-48"/>
      </g>
     </g>
    </g>
    <g id="ytick_12">
     <g id="line2d_31">
      <g>
       <use style="stroke:#000000;stroke-width:0.8;" x="72" xlink:href="#mffd74051a0" y="358.421182"/>
      </g>
     </g>
     <g id="text_13">
      <!-- 2.5 -->
      <g transform="translate(49.096875 362.220401)scale(0.1 -0.1)">
       <use xlink:href="#DejaVuSans-50"/>
       <use x="63.623047" xlink:href="#DejaVuSans-46"/>
       <use x="95.410156" xlink:href="#DejaVuSans-53"/>
      </g>
     </g>
    </g>
   </g>
   <g id="line2d_32">
    <path clip-path="url(#p35d70efaa3)" d="M 72 347.378824 
L 76.509091 349.963996 
L 81.018182 352.862195 
L 85.527273 356.152855 
L 90.036364 359.937002 
L 94.545455 364.340471 
L 99.054545 369.516211 
L 103.563636 375.641405 
L 108.072727 382.909164 
L 112.581818 391.507635 
L 117.090909 401.579735 
L 121.6 413.15494 
L 126.109091 426.042073 
L 130.618182 439.707834 
L 135.127273 453.23484 
L 139.636364 465.506251 
L 144.145455 475.615359 
L 148.654545 483.20307 
L 153.163636 488.442757 
L 157.672727 491.768185 
L 162.181818 493.617747 
L 166.690909 494.316983 
L 171.2 494.068343 
L 175.709091 492.994266 
L 180.218182 491.212668 
L 184.727273 488.962075 
L 189.236364 486.952616 
L 193.745455 487.721135 
L 198.254545 496.520547 
L 202.763636 508.132593 
L 207.272727 511.336457 
L 211.781818 509.356401 
L 216.290909 507.560585 
L 220.8 506.990947 
L 225.309091 508.135076 
L 229.818182 510.524623 
L 234.327273 512.940937 
L 238.836364 514.54572 
L 243.345455 515.84875 
L 247.854545 516.060181 
L 252.363636 513.361792 
L 256.872727 511.947174 
L 261.381818 513.759794 
L 265.890909 516.078316 
L 270.4 517.55055 
L 274.909091 517.388699 
L 279.418182 515.178154 
L 283.927273 509.879507 
L 288.436364 511.439953 
L 292.945455 485.978538 
L 297.454545 429.677838 
L 301.963636 440.291679 
L 306.472727 444.202998 
L 310.981818 445.603469 
L 315.490909 449.595725 
L 320 455.745925 
L 324.509091 464.942861 
L 329.018182 474.612682 
L 333.527273 481.760471 
L 338.036364 485.086257 
L 342.545455 486.767365 
L 347.054545 488.219405 
L 351.563636 491.470268 
L 356.072727 494.658848 
L 360.581818 497.816006 
L 365.090909 500.975498 
L 369.6 504.22665 
L 374.109091 507.719204 
L 378.618182 511.503052 
L 383.127273 515.174764 
L 387.636364 518.012521 
L 392.145455 519.803876 
L 396.654545 520.883667 
L 401.163636 521.575134 
L 405.672727 522.000674 
L 410.181818 522.329521 
L 414.690909 522.601744 
L 419.2 522.829531 
L 423.709091 523.016649 
L 428.218182 523.129882 
L 432.727273 523.228566 
L 437.236364 523.314798 
L 441.745455 523.390331 
L 446.254545 523.456637 
L 450.763636 523.514962 
L 455.272727 523.566357 
L 459.781818 523.611715 
L 464.290909 523.651805 
L 468.8 523.687275 
L 473.309091 523.718688 
L 477.818182 523.746526 
L 482.327273 523.771207 
L 486.836364 523.793089 
L 491.345455 523.812486 
L 495.854545 523.82967 
L 500.363636 523.84488 
L 504.872727 523.858322 
L 509.381818 523.87018 
L 513.890909 523.880613 
L 518.4 523.889764 
" style="fill:none;stroke:#1f77b4;stroke-linecap:square;stroke-width:1.5;"/>
   </g>
   <g id="line2d_33">
    <path clip-path="url(#p35d70efaa3)" d="M 72 525.194047 
L 76.509091 525.18963 
L 81.018182 525.184466 
L 85.527273 525.178357 
L 90.036364 525.171037 
L 94.545455 525.162128 
L 99.054545 525.151092 
L 103.563636 525.137125 
L 108.072727 525.119004 
L 112.581818 525.094786 
L 117.090909 525.0613 
L 121.6 525.013206 
L 126.109091 524.941417 
L 130.618182 524.830703 
L 135.127273 524.657141 
L 139.636364 524.388063 
L 144.145455 523.989011 
L 148.654545 523.438231 
L 153.163636 522.738229 
L 157.672727 521.912318 
L 162.181818 520.989204 
L 166.690909 519.985903 
L 171.2 518.886985 
L 175.709091 517.609759 
L 180.218182 515.977935 
L 184.727273 513.83224 
L 189.236364 511.37951 
L 193.745455 509.552722 
L 198.254545 510.324158 
L 202.763636 513.322424 
L 207.272727 513.974427 
L 211.781818 511.005016 
L 216.290909 507.143997 
L 220.8 505.079438 
L 225.309091 506.28297 
L 229.818182 509.873793 
L 234.327273 513.006662 
L 238.836364 513.782502 
L 243.345455 514.46378 
L 247.854545 514.764668 
L 252.363636 514.182286 
L 256.872727 513.92613 
L 261.381818 514.340165 
L 265.890909 514.904 
L 270.4 515.367619 
L 274.909091 515.823174 
L 279.418182 517.616855 
L 283.927273 520.954578 
L 288.436364 521.871356 
L 292.945455 518.843285 
L 297.454545 516.743936 
L 301.963636 515.563584 
L 306.472727 514.262708 
L 310.981818 513.405001 
L 315.490909 510.194584 
L 320 507.494644 
L 324.509091 511.668684 
L 329.018182 516.293996 
L 333.527273 518.313811 
L 338.036364 517.766568 
L 342.545455 515.624851 
L 347.054545 513.468768 
L 351.563636 512.352718 
L 356.072727 511.445021 
L 360.581818 510.785618 
L 365.090909 510.337028 
L 369.6 509.975233 
L 374.109091 509.459399 
L 378.618182 508.429839 
L 383.127273 506.637493 
L 387.636364 504.482119 
L 392.145455 502.877044 
L 396.654545 502.196318 
L 401.163636 502.803091 
L 405.672727 506.080981 
L 410.181818 509.240201 
L 414.690909 511.867244 
L 419.2 514.044294 
L 423.709091 515.875653 
L 428.218182 517.623095 
L 432.727273 519.024446 
L 437.236364 520.151474 
L 441.745455 521.060605 
L 446.254545 521.796265 
L 450.763636 522.393448 
L 455.272727 522.879783 
L 459.781818 523.277126 
L 464.290909 523.602813 
L 468.8 523.870628 
L 473.309091 524.091553 
L 477.818182 524.27438 
L 482.327273 524.426151 
L 486.836364 524.552533 
L 491.345455 524.658096 
L 495.854545 524.746534 
L 500.363636 524.820849 
L 504.872727 524.883479 
L 509.381818 524.936414 
L 513.890909 524.981285 
L 518.4 525.019426 
" style="fill:none;stroke:#ff7f0e;stroke-linecap:square;stroke-width:1.5;"/>
   </g>
   <g id="line2d_34">
    <path clip-path="url(#p35d70efaa3)" d="M 72 508.979922 
L 76.509091 509.297651 
L 81.018182 509.639991 
L 85.527273 510.011166 
L 90.036364 510.416342 
L 94.545455 510.86156 
L 99.054545 511.353467 
L 103.563636 511.898679 
L 108.072727 512.502746 
L 112.581818 513.168683 
L 117.090909 513.895065 
L 121.6 514.674293 
L 126.109091 515.491041 
L 130.618182 516.321464 
L 135.127273 517.133508 
L 139.636364 517.89008 
L 144.145455 518.556334 
L 148.654545 519.108524 
L 153.163636 519.537728 
L 157.672727 519.845526 
L 162.181818 520.035378 
L 166.690909 520.104222 
L 171.2 520.034782 
L 175.709091 519.787053 
L 180.218182 519.297247 
L 184.727273 518.515613 
L 189.236364 517.469206 
L 193.745455 516.153701 
L 198.254545 514.17884 
L 202.763636 510.968406 
L 207.272727 507.160946 
L 211.781818 505.27291 
L 216.290909 505.140166 
L 220.8 505.641265 
L 225.309091 506.815446 
L 229.818182 508.394062 
L 234.327273 509.995965 
L 238.836364 511.435955 
L 243.345455 512.457825 
L 247.854545 511.275095 
L 252.363636 501.974139 
L 256.872727 493.70569 
L 261.381818 495.972512 
L 265.890909 501.397705 
L 270.4 506.895545 
L 274.909091 511.720953 
L 279.418182 515.355774 
L 283.927273 515.325088 
L 288.436364 516.388921 
L 292.945455 512.226618 
L 297.454545 516.886573 
L 301.963636 519.188132 
L 306.472727 519.033018 
L 310.981818 515.079842 
L 315.490909 511.18235 
L 320 511.744298 
L 324.509091 512.858828 
L 329.018182 514.238805 
L 333.527273 514.89994 
L 338.036364 514.541658 
L 342.545455 513.618439 
L 347.054545 512.25285 
L 351.563636 510.451551 
L 356.072727 508.414698 
L 360.581818 506.202617 
L 365.090909 503.943715 
L 369.6 501.932721 
L 374.109091 500.763901 
L 378.618182 501.229329 
L 383.127273 503.411535 
L 387.636364 505.916794 
L 392.145455 507.380056 
L 396.654545 507.708376 
L 401.163636 507.238194 
L 405.672727 506.22449 
L 410.181818 505.127871 
L 414.690909 504.00233 
L 419.2 502.868495 
L 423.709091 501.737138 
L 428.218182 500.555506 
L 432.727273 499.375214 
L 437.236364 498.20079 
L 441.745455 497.036288 
L 446.254545 495.885225 
L 450.763636 494.750539 
L 455.272727 493.634823 
L 459.781818 492.540146 
L 464.290909 491.468175 
L 468.8 490.420192 
L 473.309091 489.397216 
L 477.818182 488.399854 
L 482.327273 487.428533 
L 486.836364 486.483431 
L 491.345455 485.564524 
L 495.854545 484.671611 
L 500.363636 483.804387 
L 504.872727 482.962373 
L 509.381818 482.145087 
L 513.890909 481.351871 
L 518.4 480.582051 
" style="fill:none;stroke:#2ca02c;stroke-linecap:square;stroke-width:1.5;"/>
   </g>
   <g id="line2d_35">
    <path clip-path="url(#p35d70efaa3)" d="M 72 516.236204 
L 76.509091 515.915744 
L 81.018182 515.555577 
L 85.527273 515.145414 
L 90.036364 514.67145 
L 94.545455 514.115573 
L 99.054545 513.455005 
L 103.563636 512.663005 
L 108.072727 511.712171 
L 112.581818 510.582784 
L 117.090909 509.278895 
L 121.6 507.853178 
L 126.109091 506.432328 
L 130.618182 505.21696 
L 135.127273 504.422586 
L 139.636364 504.169352 
L 144.145455 504.411725 
L 148.654545 504.991881 
L 153.163636 505.758626 
L 157.672727 506.630305 
L 162.181818 507.578782 
L 166.690909 508.593023 
L 171.2 509.663347 
L 175.709091 510.778843 
L 180.218182 511.886827 
L 184.727273 512.779111 
L 189.236364 513.130497 
L 193.745455 513.047961 
L 198.254545 513.672885 
L 202.763636 515.425223 
L 207.272727 516.373036 
L 211.781818 516.268204 
L 216.290909 516.021045 
L 220.8 515.884428 
L 225.309091 515.91347 
L 229.818182 516.109433 
L 234.327273 516.393601 
L 238.836364 516.712618 
L 243.345455 516.993167 
L 247.854545 517.273813 
L 252.363636 517.613767 
L 256.872727 517.514069 
L 261.381818 516.677375 
L 265.890909 515.173263 
L 270.4 513.99606 
L 274.909091 515.369765 
L 279.418182 519.926219 
L 283.927273 522.057244 
L 288.436364 524.496183 
L 292.945455 525.184864 
L 297.454545 525.236019 
L 301.963636 525.249304 
L 306.472727 525.256621 
L 310.981818 525.259979 
L 315.490909 525.261176 
L 320 525.260885 
L 324.509091 525.258407 
L 329.018182 525.253336 
L 333.527273 525.247188 
L 338.036364 525.241182 
L 342.545455 525.234817 
L 347.054545 525.231031 
L 351.563636 525.230482 
L 356.072727 525.229336 
L 360.581818 525.227723 
L 365.090909 525.225756 
L 369.6 525.223527 
L 374.109091 525.221111 
L 378.618182 525.218567 
L 383.127273 525.215986 
L 387.636364 525.213578 
L 392.145455 525.211597 
L 396.654545 525.210177 
L 401.163636 525.208853 
L 405.672727 525.206881 
L 410.181818 525.204959 
L 414.690909 525.203153 
L 419.2 525.201503 
L 423.709091 525.200173 
L 428.218182 525.200261 
L 432.727273 525.200394 
L 437.236364 525.200581 
L 441.745455 525.200827 
L 446.254545 525.201135 
L 450.763636 525.201505 
L 455.272727 525.201938 
L 459.781818 525.202431 
L 464.290909 525.202982 
L 468.8 525.203586 
L 473.309091 525.204239 
L 477.818182 525.204938 
L 482.327273 525.205677 
L 486.836364 525.206451 
L 491.345455 525.207256 
L 495.854545 525.208087 
L 500.363636 525.20894 
L 504.872727 525.20981 
L 509.381818 525.210693 
L 513.890909 525.211586 
L 518.4 525.212485 
" style="fill:none;stroke:#d62728;stroke-linecap:square;stroke-width:1.5;"/>
   </g>
   <g id="line2d_36">
    <path clip-path="url(#p35d70efaa3)" d="M 72 525.201249 
L 76.509091 525.199493 
L 81.018182 525.197534 
L 85.527273 525.195356 
L 90.036364 525.19295 
L 94.545455 525.190321 
L 99.054545 525.187509 
L 103.563636 525.184607 
L 108.072727 525.181807 
L 112.581818 525.179448 
L 117.090909 525.178069 
L 121.6 525.178407 
L 126.109091 525.181241 
L 130.618182 525.186988 
L 135.127273 525.195176 
L 139.636364 525.204298 
L 144.145455 525.212451 
L 148.654545 525.218257 
L 153.163636 525.22121 
L 157.672727 525.221369 
L 162.181818 525.21892 
L 166.690909 525.213861 
L 171.2 525.205777 
L 175.709091 525.193513 
L 180.218182 525.174894 
L 184.727273 525.14741 
L 189.236364 525.109168 
L 193.745455 525.047985 
L 198.254545 524.890277 
L 202.763636 524.394282 
L 207.272727 523.265785 
L 211.781818 521.940868 
L 216.290909 520.663518 
L 220.8 518.991105 
L 225.309091 516.800414 
L 229.818182 513.712533 
L 234.327273 510.281425 
L 238.836364 510.092748 
L 243.345455 509.925385 
L 247.854545 509.268944 
L 252.363636 506.954933 
L 256.872727 505.353595 
L 261.381818 505.400035 
L 265.890909 505.811515 
L 270.4 507.483768 
L 274.909091 511.170938 
L 279.418182 512.038227 
L 283.927273 517.338334 
L 288.436364 522.682371 
L 292.945455 524.590529 
L 297.454545 524.850063 
L 301.963636 524.52981 
L 306.472727 523.80292 
L 310.981818 522.745514 
L 315.490909 520.466616 
L 320 518.520156 
L 324.509091 518.235478 
L 329.018182 517.25604 
L 333.527273 515.464744 
L 338.036364 513.567622 
L 342.545455 511.663731 
L 347.054545 511.64668 
L 351.563636 513.092867 
L 356.072727 514.014437 
L 360.581818 514.543484 
L 365.090909 514.795699 
L 369.6 514.904716 
L 374.109091 515.067305 
L 378.618182 515.525195 
L 383.127273 516.319564 
L 387.636364 517.054369 
L 392.145455 517.305403 
L 396.654545 517.019571 
L 401.163636 516.247373 
L 405.672727 515.080724 
L 410.181818 513.798797 
L 414.690909 512.432597 
L 419.2 511.004731 
L 423.709091 509.607936 
L 428.218182 508.908983 
L 432.727273 508.289958 
L 437.236364 507.759452 
L 441.745455 507.323319 
L 446.254545 506.98467 
L 450.763636 506.744088 
L 455.272727 506.599795 
L 459.781818 506.548112 
L 464.290909 506.583688 
L 468.8 506.699967 
L 473.309091 506.889504 
L 477.818182 507.144343 
L 482.327273 507.45625 
L 486.836364 507.817035 
L 491.345455 508.218705 
L 495.854545 508.653643 
L 500.363636 509.114696 
L 504.872727 509.595354 
L 509.381818 510.08964 
L 513.890909 510.592289 
L 518.4 511.098601 
" style="fill:none;stroke:#9467bd;stroke-linecap:square;stroke-width:1.5;"/>
   </g>
   <g id="patch_8">
    <path d="M 72 534.155294 
L 72 338.484706 
" style="fill:none;stroke:#000000;stroke-linecap:square;stroke-linejoin:miter;stroke-width:0.8;"/>
   </g>
   <g id="patch_9">
    <path d="M 518.4 534.155294 
L 518.4 338.484706 
" style="fill:none;stroke:#000000;stroke-linecap:square;stroke-linejoin:miter;stroke-width:0.8;"/>
   </g>
   <g id="patch_10">
    <path d="M 72 534.155294 
L 518.4 534.155294 
" style="fill:none;stroke:#000000;stroke-linecap:square;stroke-linejoin:miter;stroke-width:0.8;"/>
   </g>
   <g id="patch_11">
    <path d="M 72 338.484706 
L 518.4 338.484706 
" style="fill:none;stroke:#000000;stroke-linecap:square;stroke-linejoin:miter;stroke-width:0.8;"/>
   </g>
   <g id="text_14">
    <!-- $\sigma$ of each mixture. -->
    <defs>
     <path d="M 34.671875 47.5625 
Q 27.25 47.5625 22.21875 42.1875 
Q 16.890625 36.578125 15.140625 27.296875 
Q 13.1875 17.484375 16.3125 11.8125 
Q 19.390625 6.203125 26.65625 6.203125 
Q 33.84375 6.203125 39.109375 11.859375 
Q 44.4375 17.53125 46.34375 27.296875 
Q 48.046875 36.234375 45.015625 42.1875 
Q 42.1875 47.5625 34.671875 47.5625 
z
M 36.078125 54.734375 
L 65.921875 54.6875 
L 64.15625 45.703125 
L 54.109375 45.703125 
Q 57.90625 38.09375 55.859375 27.296875 
Q 53.21875 13.875 45.0625 6.25 
Q 36.859375 -1.421875 25.140625 -1.421875 
Q 13.375 -1.421875 8.203125 6.25 
Q 3.03125 13.875 5.671875 27.296875 
Q 8.25 40.765625 16.40625 48.390625 
Q 23.1875 54.734375 36.078125 54.734375 
z
" id="DejaVuSans-Oblique-963"/>
     <path d="M 37.109375 75.984375 
L 37.109375 68.5 
L 28.515625 68.5 
Q 23.6875 68.5 21.796875 66.546875 
Q 19.921875 64.59375 19.921875 59.515625 
L 19.921875 54.6875 
L 34.71875 54.6875 
L 34.71875 47.703125 
L 19.921875 47.703125 
L 19.921875 0 
L 10.890625 0 
L 10.890625 47.703125 
L 2.296875 47.703125 
L 2.296875 54.6875 
L 10.890625 54.6875 
L 10.890625 58.5 
Q 10.890625 67.625 15.140625 71.796875 
Q 19.390625 75.984375 28.609375 75.984375 
z
" id="DejaVuSans-102"/>
     <path d="M 48.78125 52.59375 
L 48.78125 44.1875 
Q 44.96875 46.296875 41.140625 47.34375 
Q 37.3125 48.390625 33.40625 48.390625 
Q 24.65625 48.390625 19.8125 42.84375 
Q 14.984375 37.3125 14.984375 27.296875 
Q 14.984375 17.28125 19.8125 11.734375 
Q 24.65625 6.203125 33.40625 6.203125 
Q 37.3125 6.203125 41.140625 7.25 
Q 44.96875 8.296875 48.78125 10.40625 
L 48.78125 2.09375 
Q 45.015625 0.34375 40.984375 -0.53125 
Q 36.96875 -1.421875 32.421875 -1.421875 
Q 20.0625 -1.421875 12.78125 6.34375 
Q 5.515625 14.109375 5.515625 27.296875 
Q 5.515625 40.671875 12.859375 48.328125 
Q 20.21875 56 33.015625 56 
Q 37.15625 56 41.109375 55.140625 
Q 45.0625 54.296875 48.78125 52.59375 
z
" id="DejaVuSans-99"/>
     <path d="M 54.890625 33.015625 
L 54.890625 0 
L 45.90625 0 
L 45.90625 32.71875 
Q 45.90625 40.484375 42.875 44.328125 
Q 39.84375 48.1875 33.796875 48.1875 
Q 26.515625 48.1875 22.3125 43.546875 
Q 18.109375 38.921875 18.109375 30.90625 
L 18.109375 0 
L 9.078125 0 
L 9.078125 75.984375 
L 18.109375 75.984375 
L 18.109375 46.1875 
Q 21.34375 51.125 25.703125 53.5625 
Q 30.078125 56 35.796875 56 
Q 45.21875 56 50.046875 50.171875 
Q 54.890625 44.34375 54.890625 33.015625 
z
" id="DejaVuSans-104"/>
    </defs>
    <g transform="translate(240.12 332.484706)scale(0.12 -0.12)">
     <use transform="translate(0 0.015625)" xlink:href="#DejaVuSans-Oblique-963"/>
     <use transform="translate(63.378906 0.015625)" xlink:href="#DejaVuSans-32"/>
     <use transform="translate(95.166016 0.015625)" xlink:href="#DejaVuSans-111"/>
     <use transform="translate(156.347656 0.015625)" xlink:href="#DejaVuSans-102"/>
     <use transform="translate(191.552734 0.015625)" xlink:href="#DejaVuSans-32"/>
     <use transform="translate(223.339844 0.015625)" xlink:href="#DejaVuSans-101"/>
     <use transform="translate(284.863281 0.015625)" xlink:href="#DejaVuSans-97"/>
     <use transform="translate(346.142578 0.015625)" xlink:href="#DejaVuSans-99"/>
     <use transform="translate(401.123047 0.015625)" xlink:href="#DejaVuSans-104"/>
     <use transform="translate(464.501953 0.015625)" xlink:href="#DejaVuSans-32"/>
     <use transform="translate(496.289062 0.015625)" xlink:href="#DejaVuSans-109"/>
     <use transform="translate(593.701172 0.015625)" xlink:href="#DejaVuSans-105"/>
     <use transform="translate(621.484375 0.015625)" xlink:href="#DejaVuSans-120"/>
     <use transform="translate(680.664062 0.015625)" xlink:href="#DejaVuSans-116"/>
     <use transform="translate(719.873047 0.015625)" xlink:href="#DejaVuSans-117"/>
     <use transform="translate(783.251953 0.015625)" xlink:href="#DejaVuSans-114"/>
     <use transform="translate(824.365234 0.015625)" xlink:href="#DejaVuSans-101"/>
     <use transform="translate(885.888672 0.015625)" xlink:href="#DejaVuSans-46"/>
    </g>
   </g>
  </g>
  <g id="axes_3">
   <g id="patch_12">
    <path d="M 72 768.96 
L 518.4 768.96 
L 518.4 573.289412 
L 72 573.289412 
z
" style="fill:#ffffff;"/>
   </g>
   <g id="matplotlib.axis_5">
    <g id="xtick_15">
     <g id="line2d_37">
      <g>
       <use style="stroke:#000000;stroke-width:0.8;" x="72" xlink:href="#m2df71308bc" y="768.96"/>
      </g>
     </g>
     <g id="text_15">
      <!-- 15 -->
      <defs>
       <path d="M 10.59375 35.5 
L 73.1875 35.5 
L 73.1875 27.203125 
L 10.59375 27.203125 
z
" id="DejaVuSans-8722"/>
      </defs>
      <g transform="translate(61.447656 783.558437)scale(0.1 -0.1)">
       <use xlink:href="#DejaVuSans-8722"/>
       <use x="83.789062" xlink:href="#DejaVuSans-49"/>
       <use x="147.412109" xlink:href="#DejaVuSans-53"/>
      </g>
     </g>
    </g>
    <g id="xtick_16">
     <g id="line2d_38">
      <g>
       <use style="stroke:#000000;stroke-width:0.8;" x="146.4" xlink:href="#m2df71308bc" y="768.96"/>
      </g>
     </g>
     <g id="text_16">
      <!-- 10 -->
      <g transform="translate(135.847656 783.558437)scale(0.1 -0.1)">
       <use xlink:href="#DejaVuSans-8722"/>
       <use x="83.789062" xlink:href="#DejaVuSans-49"/>
       <use x="147.412109" xlink:href="#DejaVuSans-48"/>
      </g>
     </g>
    </g>
    <g id="xtick_17">
     <g id="line2d_39">
      <g>
       <use style="stroke:#000000;stroke-width:0.8;" x="220.8" xlink:href="#m2df71308bc" y="768.96"/>
      </g>
     </g>
     <g id="text_17">
      <!-- 5 -->
      <g transform="translate(213.428906 783.558437)scale(0.1 -0.1)">
       <use xlink:href="#DejaVuSans-8722"/>
       <use x="83.789062" xlink:href="#DejaVuSans-53"/>
      </g>
     </g>
    </g>
    <g id="xtick_18">
     <g id="line2d_40">
      <g>
       <use style="stroke:#000000;stroke-width:0.8;" x="295.2" xlink:href="#m2df71308bc" y="768.96"/>
      </g>
     </g>
     <g id="text_18">
      <!-- 0 -->
      <g transform="translate(292.01875 783.558437)scale(0.1 -0.1)">
       <use xlink:href="#DejaVuSans-48"/>
      </g>
     </g>
    </g>
    <g id="xtick_19">
     <g id="line2d_41">
      <g>
       <use style="stroke:#000000;stroke-width:0.8;" x="369.6" xlink:href="#m2df71308bc" y="768.96"/>
      </g>
     </g>
     <g id="text_19">
      <!-- 5 -->
      <g transform="translate(366.41875 783.558437)scale(0.1 -0.1)">
       <use xlink:href="#DejaVuSans-53"/>
      </g>
     </g>
    </g>
    <g id="xtick_20">
     <g id="line2d_42">
      <g>
       <use style="stroke:#000000;stroke-width:0.8;" x="444" xlink:href="#m2df71308bc" y="768.96"/>
      </g>
     </g>
     <g id="text_20">
      <!-- 10 -->
      <g transform="translate(437.6375 783.558437)scale(0.1 -0.1)">
       <use xlink:href="#DejaVuSans-49"/>
       <use x="63.623047" xlink:href="#DejaVuSans-48"/>
      </g>
     </g>
    </g>
    <g id="xtick_21">
     <g id="line2d_43">
      <g>
       <use style="stroke:#000000;stroke-width:0.8;" x="518.4" xlink:href="#m2df71308bc" y="768.96"/>
      </g>
     </g>
     <g id="text_21">
      <!-- 15 -->
      <g transform="translate(512.0375 783.558437)scale(0.1 -0.1)">
       <use xlink:href="#DejaVuSans-49"/>
       <use x="63.623047" xlink:href="#DejaVuSans-53"/>
      </g>
     </g>
    </g>
   </g>
   <g id="matplotlib.axis_6">
    <g id="ytick_13">
     <g id="line2d_44">
      <g>
       <use style="stroke:#000000;stroke-width:0.8;" x="72" xlink:href="#mffd74051a0" y="757.265954"/>
      </g>
     </g>
     <g id="text_22">
      <!-- 10 -->
      <g transform="translate(43.895313 761.065172)scale(0.1 -0.1)">
       <use xlink:href="#DejaVuSans-8722"/>
       <use x="83.789062" xlink:href="#DejaVuSans-49"/>
       <use x="147.412109" xlink:href="#DejaVuSans-48"/>
      </g>
     </g>
    </g>
    <g id="ytick_14">
     <g id="line2d_45">
      <g>
       <use style="stroke:#000000;stroke-width:0.8;" x="72" xlink:href="#mffd74051a0" y="714.58859"/>
      </g>
     </g>
     <g id="text_23">
      <!-- 5 -->
      <g transform="translate(50.257812 718.387809)scale(0.1 -0.1)">
       <use xlink:href="#DejaVuSans-8722"/>
       <use x="83.789062" xlink:href="#DejaVuSans-53"/>
      </g>
     </g>
    </g>
    <g id="ytick_15">
     <g id="line2d_46">
      <g>
       <use style="stroke:#000000;stroke-width:0.8;" x="72" xlink:href="#mffd74051a0" y="671.911227"/>
      </g>
     </g>
     <g id="text_24">
      <!-- 0 -->
      <g transform="translate(58.6375 675.710446)scale(0.1 -0.1)">
       <use xlink:href="#DejaVuSans-48"/>
      </g>
     </g>
    </g>
    <g id="ytick_16">
     <g id="line2d_47">
      <g>
       <use style="stroke:#000000;stroke-width:0.8;" x="72" xlink:href="#mffd74051a0" y="629.233864"/>
      </g>
     </g>
     <g id="text_25">
      <!-- 5 -->
      <g transform="translate(58.6375 633.033083)scale(0.1 -0.1)">
       <use xlink:href="#DejaVuSans-53"/>
      </g>
     </g>
    </g>
    <g id="ytick_17">
     <g id="line2d_48">
      <g>
       <use style="stroke:#000000;stroke-width:0.8;" x="72" xlink:href="#mffd74051a0" y="586.5565"/>
      </g>
     </g>
     <g id="text_26">
      <!-- 10 -->
      <g transform="translate(52.275 590.355719)scale(0.1 -0.1)">
       <use xlink:href="#DejaVuSans-49"/>
       <use x="63.623047" xlink:href="#DejaVuSans-48"/>
      </g>
     </g>
    </g>
   </g>
   <g id="line2d_49">
    <path clip-path="url(#p087d98921b)" d="M 72 669.088968 
L 76.509091 669.436457 
L 81.018182 669.829213 
L 85.527273 670.273512 
L 90.036364 670.77641 
L 94.545455 671.345739 
L 99.054545 671.990146 
L 103.563636 672.718944 
L 108.072727 673.542015 
L 112.581818 674.469405 
L 117.090909 675.510779 
L 121.6 676.674416 
L 126.109091 677.965238 
L 130.618182 679.380974 
L 135.127273 680.906367 
L 139.636364 682.507799 
L 144.145455 684.135252 
L 148.654545 685.735152 
L 153.163636 687.266062 
L 157.672727 688.704128 
L 162.181818 690.034379 
L 166.690909 691.232724 
L 171.2 692.242055 
L 175.709091 692.949858 
L 180.218182 693.216844 
L 184.727273 693.056371 
L 189.236364 692.844776 
L 193.745455 693.235387 
L 198.254545 695.143124 
L 202.763636 698.521048 
L 207.272727 700.643418 
L 211.781818 700.869824 
L 216.290909 700.913318 
L 220.8 701.269238 
L 225.309091 702.008187 
L 229.818182 703.052767 
L 234.327273 703.963328 
L 238.836364 704.087018 
L 243.345455 704.214988 
L 247.854545 704.660803 
L 252.363636 706.000352 
L 256.872727 706.799728 
L 261.381818 706.676313 
L 265.890909 706.536645 
L 270.4 706.614692 
L 274.909091 707.182669 
L 279.418182 708.776139 
L 283.927273 708.181727 
L 288.436364 709.391739 
L 292.945455 716.433303 
L 297.454545 724.350896 
L 301.963636 723.325277 
L 306.472727 722.940464 
L 310.981818 723.915395 
L 315.490909 723.546585 
L 320 723.320479 
L 324.509091 724.597036 
L 329.018182 725.870377 
L 333.527273 726.081827 
L 338.036364 725.298566 
L 342.545455 724.097362 
L 347.054545 723.687115 
L 351.563636 723.891724 
L 356.072727 724.167346 
L 360.581818 724.49909 
L 365.090909 724.853456 
L 369.6 725.169607 
L 374.109091 725.34111 
L 378.618182 725.224919 
L 383.127273 724.77829 
L 387.636364 724.258421 
L 392.145455 724.027956 
L 396.654545 724.173419 
L 401.163636 724.533706 
L 405.672727 725.063526 
L 410.181818 725.652333 
L 414.690909 726.24773 
L 419.2 726.846358 
L 423.709091 727.476489 
L 428.218182 728.394618 
L 432.727273 729.295886 
L 437.236364 730.180747 
L 441.745455 731.049581 
L 446.254545 731.902753 
L 450.763636 732.740581 
L 455.272727 733.563349 
L 459.781818 734.371283 
L 464.290909 735.164626 
L 468.8 735.943564 
L 473.309091 736.708274 
L 477.818182 737.458926 
L 482.327273 738.195683 
L 486.836364 738.918683 
L 491.345455 739.628073 
L 495.854545 740.323996 
L 500.363636 741.006572 
L 504.872727 741.67597 
L 509.381818 742.332287 
L 513.890909 742.975694 
L 518.4 743.606329 
" style="fill:none;stroke:#1f77b4;stroke-linecap:square;stroke-width:1.5;"/>
   </g>
   <g id="line2d_50">
    <path clip-path="url(#p087d98921b)" d="M 72 695.683148 
L 76.509091 695.505811 
L 81.018182 695.317824 
L 85.527273 695.119172 
L 90.036364 694.91019 
L 94.545455 694.691719 
L 99.054545 694.465415 
L 103.563636 694.234113 
L 108.072727 694.002343 
L 112.581818 693.77701 
L 117.090909 693.568016 
L 121.6 693.38833 
L 126.109091 693.252251 
L 130.618182 693.169994 
L 135.127273 693.137529 
L 139.636364 693.125954 
L 144.145455 693.081068 
L 148.654545 692.940027 
L 153.163636 692.654298 
L 157.672727 692.199979 
L 162.181818 691.570854 
L 166.690909 690.763761 
L 171.2 689.764738 
L 175.709091 688.541131 
L 180.218182 687.060452 
L 184.727273 685.376272 
L 189.236364 683.717584 
L 193.745455 682.42131 
L 198.254545 681.894541 
L 202.763636 682.260989 
L 207.272727 682.747451 
L 211.781818 682.491767 
L 216.290909 681.764035 
L 220.8 681.012094 
L 225.309091 680.238725 
L 229.818182 679.437167 
L 234.327273 678.727328 
L 238.836364 678.466523 
L 243.345455 678.138675 
L 247.854545 677.531142 
L 252.363636 676.271441 
L 256.872727 675.2411 
L 261.381818 674.684535 
L 265.890909 674.335927 
L 270.4 674.138826 
L 274.909091 674.232042 
L 279.418182 675.056489 
L 283.927273 672.746832 
L 288.436364 672.050664 
L 292.945455 672.876329 
L 297.454545 670.809939 
L 301.963636 670.835281 
L 306.472727 671.109252 
L 310.981818 671.066398 
L 315.490909 670.628628 
L 320 669.856739 
L 324.509091 669.197932 
L 329.018182 668.494489 
L 333.527273 667.680518 
L 338.036364 667.043169 
L 342.545455 666.583556 
L 347.054545 666.229577 
L 351.563636 665.660444 
L 356.072727 665.110552 
L 360.581818 664.579475 
L 365.090909 664.063066 
L 369.6 663.544924 
L 374.109091 662.986003 
L 378.618182 662.328323 
L 383.127273 661.55954 
L 387.636364 660.807227 
L 392.145455 660.24669 
L 396.654545 659.920193 
L 401.163636 659.606743 
L 405.672727 658.843921 
L 410.181818 658.050551 
L 414.690909 657.297292 
L 419.2 656.581522 
L 423.709091 655.900814 
L 428.218182 655.244185 
L 432.727273 654.606918 
L 437.236364 653.988359 
L 441.745455 653.387889 
L 446.254545 652.804878 
L 450.763636 652.238753 
L 455.272727 651.688918 
L 459.781818 651.154826 
L 464.290909 650.635936 
L 468.8 650.131731 
L 473.309091 649.641707 
L 477.818182 649.165387 
L 482.327273 648.702311 
L 486.836364 648.252034 
L 491.345455 647.814131 
L 495.854545 647.388204 
L 500.363636 646.973855 
L 504.872727 646.57072 
L 509.381818 646.178441 
L 513.890909 645.796678 
L 518.4 645.425111 
" style="fill:none;stroke:#ff7f0e;stroke-linecap:square;stroke-width:1.5;"/>
   </g>
   <g id="line2d_51">
    <path clip-path="url(#p087d98921b)" d="M 72 613.209006 
L 76.509091 613.203682 
L 81.018182 613.177292 
L 85.527273 613.124048 
L 90.036364 613.036827 
L 94.545455 612.906896 
L 99.054545 612.723577 
L 103.563636 612.47406 
L 108.072727 612.143134 
L 112.581818 611.713213 
L 117.090909 611.164735 
L 121.6 610.477714 
L 126.109091 609.635971 
L 130.618182 608.636563 
L 135.127273 607.50553 
L 139.636364 606.312823 
L 144.145455 605.169503 
L 148.654545 604.196631 
L 153.163636 603.484661 
L 157.672727 603.074434 
L 162.181818 602.965179 
L 166.690909 603.129787 
L 171.2 603.518874 
L 175.709091 604.053456 
L 180.218182 604.639589 
L 184.727273 605.269296 
L 189.236364 606.138549 
L 193.745455 607.567545 
L 198.254545 609.925281 
L 202.763636 613.246393 
L 207.272727 616.627901 
L 211.781818 618.778 
L 216.290909 620.083177 
L 220.8 621.203551 
L 225.309091 622.075978 
L 229.818182 622.723077 
L 234.327273 623.166433 
L 238.836364 623.30295 
L 243.345455 623.538471 
L 247.854545 623.873853 
L 252.363636 624.289892 
L 256.872727 625.116767 
L 261.381818 626.508034 
L 265.890909 628.139233 
L 270.4 629.376763 
L 274.909091 629.298439 
L 279.418182 629.020582 
L 283.927273 630.864888 
L 288.436364 629.887779 
L 292.945455 630.020943 
L 297.454545 632.833716 
L 301.963636 634.175793 
L 306.472727 634.178629 
L 310.981818 632.438443 
L 315.490909 633.515218 
L 320 636.179021 
L 324.509091 637.484035 
L 329.018182 637.534475 
L 333.527273 637.065669 
L 338.036364 637.38815 
L 342.545455 638.333093 
L 347.054545 638.899185 
L 351.563636 639.557126 
L 356.072727 640.332045 
L 360.581818 641.18094 
L 365.090909 642.064488 
L 369.6 642.945225 
L 374.109091 643.785259 
L 378.618182 644.547087 
L 383.127273 645.210498 
L 387.636364 645.797484 
L 392.145455 646.346987 
L 396.654545 646.866032 
L 401.163636 647.494072 
L 405.672727 648.397055 
L 410.181818 649.234694 
L 414.690909 649.985387 
L 419.2 650.650513 
L 423.709091 651.193209 
L 428.218182 651.285281 
L 432.727273 651.32949 
L 437.236364 651.328965 
L 441.745455 651.286933 
L 446.254545 651.206628 
L 450.763636 651.091246 
L 455.272727 650.943921 
L 459.781818 650.767667 
L 464.290909 650.565348 
L 468.8 650.339697 
L 473.309091 650.093285 
L 477.818182 649.828513 
L 482.327273 649.547618 
L 486.836364 649.252671 
L 491.345455 648.945608 
L 495.854545 648.62818 
L 500.363636 648.302034 
L 504.872727 647.968642 
L 509.381818 647.629376 
L 513.890909 647.285463 
L 518.4 646.938037 
" style="fill:none;stroke:#2ca02c;stroke-linecap:square;stroke-width:1.5;"/>
   </g>
   <g id="line2d_52">
    <path clip-path="url(#p087d98921b)" d="M 72 760.065882 
L 76.509091 759.962324 
L 81.018182 759.853484 
L 85.527273 759.738953 
L 90.036364 759.617943 
L 94.545455 759.488956 
L 99.054545 759.349345 
L 103.563636 759.19444 
L 108.072727 759.016352 
L 112.581818 758.802236 
L 117.090909 758.532425 
L 121.6 758.179374 
L 126.109091 757.709725 
L 130.618182 757.093344 
L 135.127273 756.321234 
L 139.636364 755.424941 
L 144.145455 754.478479 
L 148.654545 753.570089 
L 153.163636 752.762082 
L 157.672727 752.071675 
L 162.181818 751.480674 
L 166.690909 750.956902 
L 171.2 750.471835 
L 175.709091 750.008479 
L 180.218182 749.545993 
L 184.727273 749.00253 
L 189.236364 748.234597 
L 193.745455 747.323862 
L 198.254545 746.922696 
L 202.763636 747.295909 
L 207.272727 746.982549 
L 211.781818 745.991473 
L 216.290909 745.158557 
L 220.8 744.442981 
L 225.309091 743.864418 
L 229.818182 743.342811 
L 234.327273 742.784793 
L 238.836364 742.284049 
L 243.345455 741.753032 
L 247.854545 741.463629 
L 252.363636 741.913147 
L 256.872727 741.885968 
L 261.381818 741.064367 
L 265.890909 740.067132 
L 270.4 739.12317 
L 274.909091 738.565901 
L 279.418182 739.431621 
L 283.927273 737.146592 
L 288.436364 737.223947 
L 292.945455 736.288801 
L 297.454545 725.202713 
L 301.963636 715.689831 
L 306.472727 707.080235 
L 310.981818 699.329877 
L 315.490909 691.395387 
L 320 684.722294 
L 324.509091 678.325589 
L 329.018182 671.626287 
L 333.527273 665.674699 
L 338.036364 661.009316 
L 342.545455 657.205432 
L 347.054545 654.744253 
L 351.563636 653.465149 
L 356.072727 652.346071 
L 360.581818 651.358635 
L 365.090909 650.482573 
L 369.6 649.702839 
L 374.109091 649.008418 
L 378.618182 648.391565 
L 383.127273 647.848207 
L 387.636364 647.378843 
L 392.145455 646.985206 
L 396.654545 646.665021 
L 401.163636 646.370294 
L 405.672727 646.096291 
L 410.181818 645.859065 
L 414.690909 645.642359 
L 419.2 645.446598 
L 423.709091 645.285189 
L 428.218182 645.267169 
L 432.727273 645.257657 
L 437.236364 645.256701 
L 441.745455 645.264243 
L 446.254545 645.280159 
L 450.763636 645.304247 
L 455.272727 645.336262 
L 459.781818 645.375894 
L 464.290909 645.422823 
L 468.8 645.476676 
L 473.309091 645.537081 
L 477.818182 645.603636 
L 482.327273 645.675945 
L 486.836364 645.753605 
L 491.345455 645.83621 
L 495.854545 645.92337 
L 500.363636 646.014687 
L 504.872727 646.109787 
L 509.381818 646.208294 
L 513.890909 646.30987 
L 518.4 646.414165 
" style="fill:none;stroke:#d62728;stroke-linecap:square;stroke-width:1.5;"/>
   </g>
   <g id="line2d_53">
    <path clip-path="url(#p087d98921b)" d="M 72 665.623177 
L 76.509091 665.3477 
L 81.018182 665.020631 
L 85.527273 664.632096 
L 90.036364 664.17049 
L 94.545455 663.622443 
L 99.054545 662.972967 
L 103.563636 662.206069 
L 108.072727 661.305907 
L 112.581818 660.258796 
L 117.090909 659.056116 
L 121.6 657.697633 
L 126.109091 656.194721 
L 130.618182 654.572118 
L 135.127273 652.867406 
L 139.636364 651.12726 
L 144.145455 649.399945 
L 148.654545 647.725109 
L 153.163636 646.125294 
L 157.672727 644.60296 
L 162.181818 643.14267 
L 166.690909 641.713224 
L 171.2 640.265419 
L 175.709091 638.725214 
L 180.218182 636.996877 
L 184.727273 635.005586 
L 189.236364 632.730105 
L 193.745455 630.042225 
L 198.254545 626.420158 
L 202.763636 621.723929 
L 207.272727 617.433978 
L 211.781818 615.598395 
L 216.290909 615.246524 
L 220.8 615.085807 
L 225.309091 615.178205 
L 229.818182 615.54034 
L 234.327273 615.973578 
L 238.836364 616.011307 
L 243.345455 616.016061 
L 247.854545 615.749718 
L 252.363636 614.769517 
L 256.872727 613.717104 
L 261.381818 612.597256 
L 265.890909 611.093404 
L 270.4 609.865187 
L 274.909091 609.876009 
L 279.418182 610.054293 
L 283.927273 605.77807 
L 288.436364 606.819038 
L 292.945455 607.03365 
L 297.454545 607.838605 
L 301.963636 606.30855 
L 306.472727 605.093776 
L 310.981818 604.948199 
L 315.490909 605.403945 
L 320 603.920411 
L 324.509091 603.134891 
L 329.018182 603.13647 
L 333.527273 603.231757 
L 338.036364 603.001508 
L 342.545455 602.673659 
L 347.054545 602.023667 
L 351.563636 601.081813 
L 356.072727 600.286081 
L 360.581818 599.607298 
L 365.090909 599.023851 
L 369.6 598.524889 
L 374.109091 598.11275 
L 378.618182 597.800855 
L 383.127273 597.593015 
L 387.636364 597.453519 
L 392.145455 597.332533 
L 396.654545 597.217815 
L 401.163636 596.988314 
L 405.672727 596.243417 
L 410.181818 595.441849 
L 414.690909 594.676561 
L 419.2 593.947424 
L 423.709091 593.248437 
L 428.218182 592.525534 
L 432.727273 591.826702 
L 437.236364 591.151117 
L 441.745455 590.498032 
L 446.254545 589.866656 
L 450.763636 589.256315 
L 455.272727 588.666258 
L 459.781818 588.095819 
L 464.290909 587.544313 
L 468.8 587.01109 
L 473.309091 586.495483 
L 477.818182 585.996912 
L 482.327273 585.514752 
L 486.836364 585.048448 
L 491.345455 584.597424 
L 495.854545 584.161157 
L 500.363636 583.739095 
L 504.872727 583.33079 
L 509.381818 582.93572 
L 513.890909 582.553454 
L 518.4 582.183529 
" style="fill:none;stroke:#9467bd;stroke-linecap:square;stroke-width:1.5;"/>
   </g>
   <g id="patch_13">
    <path d="M 72 768.96 
L 72 573.289412 
" style="fill:none;stroke:#000000;stroke-linecap:square;stroke-linejoin:miter;stroke-width:0.8;"/>
   </g>
   <g id="patch_14">
    <path d="M 518.4 768.96 
L 518.4 573.289412 
" style="fill:none;stroke:#000000;stroke-linecap:square;stroke-linejoin:miter;stroke-width:0.8;"/>
   </g>
   <g id="patch_15">
    <path d="M 72 768.96 
L 518.4 768.96 
" style="fill:none;stroke:#000000;stroke-linecap:square;stroke-linejoin:miter;stroke-width:0.8;"/>
   </g>
   <g id="patch_16">
    <path d="M 72 573.289412 
L 518.4 573.289412 
" style="fill:none;stroke:#000000;stroke-linecap:square;stroke-linejoin:miter;stroke-width:0.8;"/>
   </g>
   <g id="text_27">
    <!-- $\mu$ (mean value for each mixture.) -->
    <defs>
     <path d="M -1.3125 -20.796875 
L 13.375 54.6875 
L 22.40625 54.6875 
L 15.765625 20.65625 
Q 15.578125 19.625 15.421875 18.359375 
Q 15.28125 17.09375 15.28125 15.828125 
Q 15.28125 11.28125 18.140625 8.828125 
Q 21 6.390625 26.3125 6.390625 
Q 33.546875 6.390625 37.984375 10.484375 
Q 42.4375 14.59375 44 22.796875 
L 50.203125 54.6875 
L 59.1875 54.6875 
L 51.03125 12.640625 
Q 50.828125 11.71875 50.75 11.03125 
Q 50.6875 10.359375 50.6875 9.8125 
Q 50.6875 8.296875 51.296875 7.59375 
Q 51.90625 6.890625 53.21875 6.890625 
Q 53.71875 6.890625 54.5625 7.125 
Q 55.421875 7.375 56.984375 8.015625 
L 55.609375 0.78125 
Q 53.46875 -0.296875 51.515625 -0.859375 
Q 49.5625 -1.421875 47.703125 -1.421875 
Q 44.484375 -1.421875 42.65625 0.625 
Q 40.828125 2.6875 40.828125 6.296875 
Q 38.09375 2.390625 34.296875 0.484375 
Q 30.515625 -1.421875 25.390625 -1.421875 
Q 20.84375 -1.421875 17.453125 0.671875 
Q 14.0625 2.78125 12.984375 6.203125 
L 7.71875 -20.796875 
z
" id="DejaVuSans-Oblique-956"/>
     <path d="M 2.984375 54.6875 
L 12.5 54.6875 
L 29.59375 8.796875 
L 46.6875 54.6875 
L 56.203125 54.6875 
L 35.6875 0 
L 23.484375 0 
z
" id="DejaVuSans-118"/>
     <path d="M 9.421875 75.984375 
L 18.40625 75.984375 
L 18.40625 0 
L 9.421875 0 
z
" id="DejaVuSans-108"/>
    </defs>
    <g transform="translate(195.72 567.289412)scale(0.12 -0.12)">
     <use transform="translate(0 0.015625)" xlink:href="#DejaVuSans-Oblique-956"/>
     <use transform="translate(63.623047 0.015625)" xlink:href="#DejaVuSans-32"/>
     <use transform="translate(95.410156 0.015625)" xlink:href="#DejaVuSans-40"/>
     <use transform="translate(134.423828 0.015625)" xlink:href="#DejaVuSans-109"/>
     <use transform="translate(231.835938 0.015625)" xlink:href="#DejaVuSans-101"/>
     <use transform="translate(293.359375 0.015625)" xlink:href="#DejaVuSans-97"/>
     <use transform="translate(354.638672 0.015625)" xlink:href="#DejaVuSans-110"/>
     <use transform="translate(418.017578 0.015625)" xlink:href="#DejaVuSans-32"/>
     <use transform="translate(449.804688 0.015625)" xlink:href="#DejaVuSans-118"/>
     <use transform="translate(508.984375 0.015625)" xlink:href="#DejaVuSans-97"/>
     <use transform="translate(570.263672 0.015625)" xlink:href="#DejaVuSans-108"/>
     <use transform="translate(598.046875 0.015625)" xlink:href="#DejaVuSans-117"/>
     <use transform="translate(661.425781 0.015625)" xlink:href="#DejaVuSans-101"/>
     <use transform="translate(722.949219 0.015625)" xlink:href="#DejaVuSans-32"/>
     <use transform="translate(754.736328 0.015625)" xlink:href="#DejaVuSans-102"/>
     <use transform="translate(789.941406 0.015625)" xlink:href="#DejaVuSans-111"/>
     <use transform="translate(851.123047 0.015625)" xlink:href="#DejaVuSans-114"/>
     <use transform="translate(892.236328 0.015625)" xlink:href="#DejaVuSans-32"/>
     <use transform="translate(924.023438 0.015625)" xlink:href="#DejaVuSans-101"/>
     <use transform="translate(985.546875 0.015625)" xlink:href="#DejaVuSans-97"/>
     <use transform="translate(1046.826172 0.015625)" xlink:href="#DejaVuSans-99"/>
     <use transform="translate(1101.806641 0.015625)" xlink:href="#DejaVuSans-104"/>
     <use transform="translate(1165.185547 0.015625)" xlink:href="#DejaVuSans-32"/>
     <use transform="translate(1196.972656 0.015625)" xlink:href="#DejaVuSans-109"/>
     <use transform="translate(1294.384766 0.015625)" xlink:href="#DejaVuSans-105"/>
     <use transform="translate(1322.167969 0.015625)" xlink:href="#DejaVuSans-120"/>
     <use transform="translate(1381.347656 0.015625)" xlink:href="#DejaVuSans-116"/>
     <use transform="translate(1420.556641 0.015625)" xlink:href="#DejaVuSans-117"/>
     <use transform="translate(1483.935547 0.015625)" xlink:href="#DejaVuSans-114"/>
     <use transform="translate(1525.048828 0.015625)" xlink:href="#DejaVuSans-101"/>
     <use transform="translate(1586.572266 0.015625)" xlink:href="#DejaVuSans-46"/>
     <use transform="translate(1618.359375 0.015625)" xlink:href="#DejaVuSans-41"/>
    </g>
   </g>
  </g>
 </g>
 <defs>
  <clipPath id="pf22eaf9cc7">
   <rect height="195.670588" width="446.4" x="72" y="103.68"/>
  </clipPath>
  <clipPath id="p35d70efaa3">
   <rect height="195.670588" width="446.4" x="72" y="338.484706"/>
  </clipPath>
  <clipPath id="p087d98921b">
   <rect height="195.670588" width="446.4" x="72" y="573.289412"/>
  </clipPath>
 </defs>
</svg>
