<?xml version="1.0" encoding="utf-8" standalone="no"?>
<!DOCTYPE svg PUBLIC "-//W3C//DTD SVG 1.1//EN"
  "http://www.w3.org/Graphics/SVG/1.1/DTD/svg11.dtd">
<!-- Created with matplotlib (https://matplotlib.org/) -->
<svg height="576pt" version="1.1" viewBox="0 0 576 576" width="576pt" xmlns="http://www.w3.org/2000/svg" xmlns:xlink="http://www.w3.org/1999/xlink">
 <defs>
  <style type="text/css">
*{stroke-linecap:butt;stroke-linejoin:round;white-space:pre;}
  </style>
 </defs>
 <g id="figure_1">
  <g id="patch_1">
   <path d="M 0 576 
L 576 576 
L 576 0 
L 0 0 
z
" style="fill:#ffffff;"/>
  </g>
  <g id="axes_1">
   <g id="patch_2">
    <path d="M 72 512.64 
L 518.4 512.64 
L 518.4 69.12 
L 72 69.12 
z
" style="fill:#ffffff;"/>
   </g>
   <g id="matplotlib.axis_1">
    <g id="xtick_1">
     <g id="line2d_1">
      <defs>
       <path d="M 0 0 
L 0 3.5 
" id="me2562e8da9" style="stroke:#000000;stroke-width:0.8;"/>
      </defs>
      <g>
       <use style="stroke:#000000;stroke-width:0.8;" x="92.290909" xlink:href="#me2562e8da9" y="512.64"/>
      </g>
     </g>
     <g id="text_1">
      <!-- 0 -->
      <defs>
       <path d="M 31.78125 66.40625 
Q 24.171875 66.40625 20.328125 58.90625 
Q 16.5 51.421875 16.5 36.375 
Q 16.5 21.390625 20.328125 13.890625 
Q 24.171875 6.390625 31.78125 6.390625 
Q 39.453125 6.390625 43.28125 13.890625 
Q 47.125 21.390625 47.125 36.375 
Q 47.125 51.421875 43.28125 58.90625 
Q 39.453125 66.40625 31.78125 66.40625 
z
M 31.78125 74.21875 
Q 44.046875 74.21875 50.515625 64.515625 
Q 56.984375 54.828125 56.984375 36.375 
Q 56.984375 17.96875 50.515625 8.265625 
Q 44.046875 -1.421875 31.78125 -1.421875 
Q 19.53125 -1.421875 13.0625 8.265625 
Q 6.59375 17.96875 6.59375 36.375 
Q 6.59375 54.828125 13.0625 64.515625 
Q 19.53125 74.21875 31.78125 74.21875 
z
" id="DejaVuSans-48"/>
      </defs>
      <g transform="translate(89.109659 527.238438)scale(0.1 -0.1)">
       <use xlink:href="#DejaVuSans-48"/>
      </g>
     </g>
    </g>
    <g id="xtick_2">
     <g id="line2d_2">
      <g>
       <use style="stroke:#000000;stroke-width:0.8;" x="173.462663" xlink:href="#me2562e8da9" y="512.64"/>
      </g>
     </g>
     <g id="text_2">
      <!-- 2000 -->
      <defs>
       <path d="M 19.1875 8.296875 
L 53.609375 8.296875 
L 53.609375 0 
L 7.328125 0 
L 7.328125 8.296875 
Q 12.9375 14.109375 22.625 23.890625 
Q 32.328125 33.6875 34.8125 36.53125 
Q 39.546875 41.84375 41.421875 45.53125 
Q 43.3125 49.21875 43.3125 52.78125 
Q 43.3125 58.59375 39.234375 62.25 
Q 35.15625 65.921875 28.609375 65.921875 
Q 23.96875 65.921875 18.8125 64.3125 
Q 13.671875 62.703125 7.8125 59.421875 
L 7.8125 69.390625 
Q 13.765625 71.78125 18.9375 73 
Q 24.125 74.21875 28.421875 74.21875 
Q 39.75 74.21875 46.484375 68.546875 
Q 53.21875 62.890625 53.21875 53.421875 
Q 53.21875 48.921875 51.53125 44.890625 
Q 49.859375 40.875 45.40625 35.40625 
Q 44.1875 33.984375 37.640625 27.21875 
Q 31.109375 20.453125 19.1875 8.296875 
z
" id="DejaVuSans-50"/>
      </defs>
      <g transform="translate(160.737663 527.238438)scale(0.1 -0.1)">
       <use xlink:href="#DejaVuSans-50"/>
       <use x="63.623047" xlink:href="#DejaVuSans-48"/>
       <use x="127.246094" xlink:href="#DejaVuSans-48"/>
       <use x="190.869141" xlink:href="#DejaVuSans-48"/>
      </g>
     </g>
    </g>
    <g id="xtick_3">
     <g id="line2d_3">
      <g>
       <use style="stroke:#000000;stroke-width:0.8;" x="254.634416" xlink:href="#me2562e8da9" y="512.64"/>
      </g>
     </g>
     <g id="text_3">
      <!-- 4000 -->
      <defs>
       <path d="M 37.796875 64.3125 
L 12.890625 25.390625 
L 37.796875 25.390625 
z
M 35.203125 72.90625 
L 47.609375 72.90625 
L 47.609375 25.390625 
L 58.015625 25.390625 
L 58.015625 17.1875 
L 47.609375 17.1875 
L 47.609375 0 
L 37.796875 0 
L 37.796875 17.1875 
L 4.890625 17.1875 
L 4.890625 26.703125 
z
" id="DejaVuSans-52"/>
      </defs>
      <g transform="translate(241.909416 527.238438)scale(0.1 -0.1)">
       <use xlink:href="#DejaVuSans-52"/>
       <use x="63.623047" xlink:href="#DejaVuSans-48"/>
       <use x="127.246094" xlink:href="#DejaVuSans-48"/>
       <use x="190.869141" xlink:href="#DejaVuSans-48"/>
      </g>
     </g>
    </g>
    <g id="xtick_4">
     <g id="line2d_4">
      <g>
       <use style="stroke:#000000;stroke-width:0.8;" x="335.80617" xlink:href="#me2562e8da9" y="512.64"/>
      </g>
     </g>
     <g id="text_4">
      <!-- 6000 -->
      <defs>
       <path d="M 33.015625 40.375 
Q 26.375 40.375 22.484375 35.828125 
Q 18.609375 31.296875 18.609375 23.390625 
Q 18.609375 15.53125 22.484375 10.953125 
Q 26.375 6.390625 33.015625 6.390625 
Q 39.65625 6.390625 43.53125 10.953125 
Q 47.40625 15.53125 47.40625 23.390625 
Q 47.40625 31.296875 43.53125 35.828125 
Q 39.65625 40.375 33.015625 40.375 
z
M 52.59375 71.296875 
L 52.59375 62.3125 
Q 48.875 64.0625 45.09375 64.984375 
Q 41.3125 65.921875 37.59375 65.921875 
Q 27.828125 65.921875 22.671875 59.328125 
Q 17.53125 52.734375 16.796875 39.40625 
Q 19.671875 43.65625 24.015625 45.921875 
Q 28.375 48.1875 33.59375 48.1875 
Q 44.578125 48.1875 50.953125 41.515625 
Q 57.328125 34.859375 57.328125 23.390625 
Q 57.328125 12.15625 50.6875 5.359375 
Q 44.046875 -1.421875 33.015625 -1.421875 
Q 20.359375 -1.421875 13.671875 8.265625 
Q 6.984375 17.96875 6.984375 36.375 
Q 6.984375 53.65625 15.1875 63.9375 
Q 23.390625 74.21875 37.203125 74.21875 
Q 40.921875 74.21875 44.703125 73.484375 
Q 48.484375 72.75 52.59375 71.296875 
z
" id="DejaVuSans-54"/>
      </defs>
      <g transform="translate(323.08117 527.238438)scale(0.1 -0.1)">
       <use xlink:href="#DejaVuSans-54"/>
       <use x="63.623047" xlink:href="#DejaVuSans-48"/>
       <use x="127.246094" xlink:href="#DejaVuSans-48"/>
       <use x="190.869141" xlink:href="#DejaVuSans-48"/>
      </g>
     </g>
    </g>
    <g id="xtick_5">
     <g id="line2d_5">
      <g>
       <use style="stroke:#000000;stroke-width:0.8;" x="416.977923" xlink:href="#me2562e8da9" y="512.64"/>
      </g>
     </g>
     <g id="text_5">
      <!-- 8000 -->
      <defs>
       <path d="M 31.78125 34.625 
Q 24.75 34.625 20.71875 30.859375 
Q 16.703125 27.09375 16.703125 20.515625 
Q 16.703125 13.921875 20.71875 10.15625 
Q 24.75 6.390625 31.78125 6.390625 
Q 38.8125 6.390625 42.859375 10.171875 
Q 46.921875 13.96875 46.921875 20.515625 
Q 46.921875 27.09375 42.890625 30.859375 
Q 38.875 34.625 31.78125 34.625 
z
M 21.921875 38.8125 
Q 15.578125 40.375 12.03125 44.71875 
Q 8.5 49.078125 8.5 55.328125 
Q 8.5 64.0625 14.71875 69.140625 
Q 20.953125 74.21875 31.78125 74.21875 
Q 42.671875 74.21875 48.875 69.140625 
Q 55.078125 64.0625 55.078125 55.328125 
Q 55.078125 49.078125 51.53125 44.71875 
Q 48 40.375 41.703125 38.8125 
Q 48.828125 37.15625 52.796875 32.3125 
Q 56.78125 27.484375 56.78125 20.515625 
Q 56.78125 9.90625 50.3125 4.234375 
Q 43.84375 -1.421875 31.78125 -1.421875 
Q 19.734375 -1.421875 13.25 4.234375 
Q 6.78125 9.90625 6.78125 20.515625 
Q 6.78125 27.484375 10.78125 32.3125 
Q 14.796875 37.15625 21.921875 38.8125 
z
M 18.3125 54.390625 
Q 18.3125 48.734375 21.84375 45.5625 
Q 25.390625 42.390625 31.78125 42.390625 
Q 38.140625 42.390625 41.71875 45.5625 
Q 45.3125 48.734375 45.3125 54.390625 
Q 45.3125 60.0625 41.71875 63.234375 
Q 38.140625 66.40625 31.78125 66.40625 
Q 25.390625 66.40625 21.84375 63.234375 
Q 18.3125 60.0625 18.3125 54.390625 
z
" id="DejaVuSans-56"/>
      </defs>
      <g transform="translate(404.252923 527.238438)scale(0.1 -0.1)">
       <use xlink:href="#DejaVuSans-56"/>
       <use x="63.623047" xlink:href="#DejaVuSans-48"/>
       <use x="127.246094" xlink:href="#DejaVuSans-48"/>
       <use x="190.869141" xlink:href="#DejaVuSans-48"/>
      </g>
     </g>
    </g>
    <g id="xtick_6">
     <g id="line2d_6">
      <g>
       <use style="stroke:#000000;stroke-width:0.8;" x="498.149677" xlink:href="#me2562e8da9" y="512.64"/>
      </g>
     </g>
     <g id="text_6">
      <!-- 10000 -->
      <defs>
       <path d="M 12.40625 8.296875 
L 28.515625 8.296875 
L 28.515625 63.921875 
L 10.984375 60.40625 
L 10.984375 69.390625 
L 28.421875 72.90625 
L 38.28125 72.90625 
L 38.28125 8.296875 
L 54.390625 8.296875 
L 54.390625 0 
L 12.40625 0 
z
" id="DejaVuSans-49"/>
      </defs>
      <g transform="translate(482.243427 527.238438)scale(0.1 -0.1)">
       <use xlink:href="#DejaVuSans-49"/>
       <use x="63.623047" xlink:href="#DejaVuSans-48"/>
       <use x="127.246094" xlink:href="#DejaVuSans-48"/>
       <use x="190.869141" xlink:href="#DejaVuSans-48"/>
       <use x="254.492188" xlink:href="#DejaVuSans-48"/>
      </g>
     </g>
    </g>
   </g>
   <g id="matplotlib.axis_2">
    <g id="ytick_1">
     <g id="line2d_7">
      <defs>
       <path d="M 0 0 
L -3.5 0 
" id="mf2af120b7a" style="stroke:#000000;stroke-width:0.8;"/>
      </defs>
      <g>
       <use style="stroke:#000000;stroke-width:0.8;" x="72" xlink:href="#mf2af120b7a" y="498.67764"/>
      </g>
     </g>
     <g id="text_7">
      <!-- 1 -->
      <g transform="translate(58.6375 502.476859)scale(0.1 -0.1)">
       <use xlink:href="#DejaVuSans-49"/>
      </g>
     </g>
    </g>
    <g id="ytick_2">
     <g id="line2d_8">
      <g>
       <use style="stroke:#000000;stroke-width:0.8;" x="72" xlink:href="#mf2af120b7a" y="442.732161"/>
      </g>
     </g>
     <g id="text_8">
      <!-- 2 -->
      <g transform="translate(58.6375 446.53138)scale(0.1 -0.1)">
       <use xlink:href="#DejaVuSans-50"/>
      </g>
     </g>
    </g>
    <g id="ytick_3">
     <g id="line2d_9">
      <g>
       <use style="stroke:#000000;stroke-width:0.8;" x="72" xlink:href="#mf2af120b7a" y="386.786683"/>
      </g>
     </g>
     <g id="text_9">
      <!-- 3 -->
      <defs>
       <path d="M 40.578125 39.3125 
Q 47.65625 37.796875 51.625 33 
Q 55.609375 28.21875 55.609375 21.1875 
Q 55.609375 10.40625 48.1875 4.484375 
Q 40.765625 -1.421875 27.09375 -1.421875 
Q 22.515625 -1.421875 17.65625 -0.515625 
Q 12.796875 0.390625 7.625 2.203125 
L 7.625 11.71875 
Q 11.71875 9.328125 16.59375 8.109375 
Q 21.484375 6.890625 26.8125 6.890625 
Q 36.078125 6.890625 40.9375 10.546875 
Q 45.796875 14.203125 45.796875 21.1875 
Q 45.796875 27.640625 41.28125 31.265625 
Q 36.765625 34.90625 28.71875 34.90625 
L 20.21875 34.90625 
L 20.21875 43.015625 
L 29.109375 43.015625 
Q 36.375 43.015625 40.234375 45.921875 
Q 44.09375 48.828125 44.09375 54.296875 
Q 44.09375 59.90625 40.109375 62.90625 
Q 36.140625 65.921875 28.71875 65.921875 
Q 24.65625 65.921875 20.015625 65.03125 
Q 15.375 64.15625 9.8125 62.3125 
L 9.8125 71.09375 
Q 15.4375 72.65625 20.34375 73.4375 
Q 25.25 74.21875 29.59375 74.21875 
Q 40.828125 74.21875 47.359375 69.109375 
Q 53.90625 64.015625 53.90625 55.328125 
Q 53.90625 49.265625 50.4375 45.09375 
Q 46.96875 40.921875 40.578125 39.3125 
z
" id="DejaVuSans-51"/>
      </defs>
      <g transform="translate(58.6375 390.585901)scale(0.1 -0.1)">
       <use xlink:href="#DejaVuSans-51"/>
      </g>
     </g>
    </g>
    <g id="ytick_4">
     <g id="line2d_10">
      <g>
       <use style="stroke:#000000;stroke-width:0.8;" x="72" xlink:href="#mf2af120b7a" y="330.841204"/>
      </g>
     </g>
     <g id="text_10">
      <!-- 4 -->
      <g transform="translate(58.6375 334.640423)scale(0.1 -0.1)">
       <use xlink:href="#DejaVuSans-52"/>
      </g>
     </g>
    </g>
    <g id="ytick_5">
     <g id="line2d_11">
      <g>
       <use style="stroke:#000000;stroke-width:0.8;" x="72" xlink:href="#mf2af120b7a" y="274.895725"/>
      </g>
     </g>
     <g id="text_11">
      <!-- 5 -->
      <defs>
       <path d="M 10.796875 72.90625 
L 49.515625 72.90625 
L 49.515625 64.59375 
L 19.828125 64.59375 
L 19.828125 46.734375 
Q 21.96875 47.46875 24.109375 47.828125 
Q 26.265625 48.1875 28.421875 48.1875 
Q 40.625 48.1875 47.75 41.5 
Q 54.890625 34.8125 54.890625 23.390625 
Q 54.890625 11.625 47.5625 5.09375 
Q 40.234375 -1.421875 26.90625 -1.421875 
Q 22.3125 -1.421875 17.546875 -0.640625 
Q 12.796875 0.140625 7.71875 1.703125 
L 7.71875 11.625 
Q 12.109375 9.234375 16.796875 8.0625 
Q 21.484375 6.890625 26.703125 6.890625 
Q 35.15625 6.890625 40.078125 11.328125 
Q 45.015625 15.765625 45.015625 23.390625 
Q 45.015625 31 40.078125 35.4375 
Q 35.15625 39.890625 26.703125 39.890625 
Q 22.75 39.890625 18.8125 39.015625 
Q 14.890625 38.140625 10.796875 36.28125 
z
" id="DejaVuSans-53"/>
      </defs>
      <g transform="translate(58.6375 278.694944)scale(0.1 -0.1)">
       <use xlink:href="#DejaVuSans-53"/>
      </g>
     </g>
    </g>
    <g id="ytick_6">
     <g id="line2d_12">
      <g>
       <use style="stroke:#000000;stroke-width:0.8;" x="72" xlink:href="#mf2af120b7a" y="218.950246"/>
      </g>
     </g>
     <g id="text_12">
      <!-- 6 -->
      <g transform="translate(58.6375 222.749465)scale(0.1 -0.1)">
       <use xlink:href="#DejaVuSans-54"/>
      </g>
     </g>
    </g>
    <g id="ytick_7">
     <g id="line2d_13">
      <g>
       <use style="stroke:#000000;stroke-width:0.8;" x="72" xlink:href="#mf2af120b7a" y="163.004768"/>
      </g>
     </g>
     <g id="text_13">
      <!-- 7 -->
      <defs>
       <path d="M 8.203125 72.90625 
L 55.078125 72.90625 
L 55.078125 68.703125 
L 28.609375 0 
L 18.3125 0 
L 43.21875 64.59375 
L 8.203125 64.59375 
z
" id="DejaVuSans-55"/>
      </defs>
      <g transform="translate(58.6375 166.803986)scale(0.1 -0.1)">
       <use xlink:href="#DejaVuSans-55"/>
      </g>
     </g>
    </g>
    <g id="ytick_8">
     <g id="line2d_14">
      <g>
       <use style="stroke:#000000;stroke-width:0.8;" x="72" xlink:href="#mf2af120b7a" y="107.059289"/>
      </g>
     </g>
     <g id="text_14">
      <!-- 8 -->
      <g transform="translate(58.6375 110.858508)scale(0.1 -0.1)">
       <use xlink:href="#DejaVuSans-56"/>
      </g>
     </g>
    </g>
   </g>
   <g id="line2d_15">
    <path clip-path="url(#p559c188165)" d="M 92.290909 89.28 
L 92.493838 270.467923 
L 92.696768 312.790611 
L 93.224384 347.648067 
L 93.508485 354.341444 
L 93.873758 361.519566 
L 94.279617 366.509891 
L 95.618951 378.830489 
L 96.51184 385.051258 
L 98.094689 395.758879 
L 98.825235 400.077626 
L 99.474609 402.690187 
L 100.611014 406.058797 
L 101.260388 407.327656 
L 102.112691 408.452167 
L 102.843237 409.220127 
L 102.883823 409.169401 
L 102.924409 409.276496 
L 102.964995 409.41767 
L 103.005581 409.369304 
L 103.127338 409.294049 
L 103.249096 409.392367 
L 103.573783 409.797935 
L 103.857884 410.191219 
L 104.344914 411.261923 
L 105.318976 414.66676 
L 105.359561 414.425441 
L 105.400147 414.490279 
L 105.481319 414.942692 
L 105.521905 414.686007 
L 105.603077 414.654702 
L 105.643663 414.530855 
L 105.724834 414.636868 
L 105.887178 415.128777 
L 106.130693 415.945663 
L 106.536552 416.719479 
L 106.577138 416.71253 
L 106.780067 417.047805 
L 106.901825 417.164356 
L 107.14534 417.507234 
L 108.484674 418.798009 
L 108.52526 418.778028 
L 108.647017 419.245327 
L 108.687603 418.798396 
L 108.768775 418.827393 
L 108.809361 418.846267 
L 108.890533 419.061856 
L 108.931119 419.048305 
L 109.01229 418.975597 
L 109.21522 419.307097 
L 109.255806 419.359984 
L 109.296391 419.714907 
L 109.336977 419.528488 
L 109.499321 419.130523 
L 109.90518 419.5064 
L 111.77213 421.199395 
L 112.096817 421.408462 
L 112.421504 421.601656 
L 112.46209 421.572338 
L 112.502676 421.661399 
L 112.583847 421.670255 
L 112.705605 421.565709 
L 112.746191 421.714406 
L 112.786777 421.493975 
L 112.908534 421.516556 
L 112.94912 421.638323 
L 113.030292 421.544154 
L 113.111464 421.637296 
L 113.273807 421.714819 
L 113.517323 421.868371 
L 113.882596 422.113572 
L 114.044939 422.210529 
L 114.126111 422.267711 
L 114.166697 422.406764 
L 114.247868 422.314155 
L 116.114819 423.429356 
L 116.439506 423.537504 
L 116.723607 423.754854 
L 119.483447 425.145173 
L 119.889305 425.537216 
L 120.132821 425.869183 
L 120.457508 426.611948 
L 120.741609 427.850209 
L 121.147467 429.961044 
L 121.756256 432.368926 
L 122.770903 437.858362 
L 123.136175 439.092821 
L 123.663792 440.030033 
L 124.556681 440.990254 
L 124.840782 441.185596 
L 125.084298 441.408254 
L 125.246641 441.577693 
L 125.368399 441.639676 
L 125.490156 441.434011 
L 125.611914 441.868164 
L 125.6525 441.795229 
L 125.693086 441.746904 
L 125.733672 441.819465 
L 125.896015 442.024437 
L 126.261288 442.323138 
L 126.585975 442.464286 
L 126.667147 442.451374 
L 126.910662 442.699989 
L 127.194763 442.901013 
L 128.737026 443.809754 
L 129.264643 444.133892 
L 130.482219 445.272268 
L 130.806906 445.73996 
L 132.795614 449.559676 
L 133.039129 450.272082 
L 133.160887 450.574978 
L 133.850847 452.558678 
L 134.21612 453.802981 
L 134.500221 455.322863 
L 135.190181 461.045722 
L 135.271353 460.599397 
L 135.474282 462.66859 
L 135.514868 462.401554 
L 135.555454 462.457062 
L 135.798969 464.341097 
L 136.367171 467.721845 
L 136.732444 468.637122 
L 137.300646 469.612789 
L 137.990606 470.456132 
L 139.045839 471.389236 
L 140.22283 472.124758 
L 140.385173 472.223049 
L 140.547517 472.297064 
L 140.669274 472.321907 
L 140.750446 472.461467 
L 140.791032 472.441479 
L 140.912789 472.398736 
L 141.034547 472.591217 
L 141.075133 472.574443 
L 141.643335 473.046458 
L 141.968022 473.33086 
L 142.942083 474.39318 
L 143.063841 474.216786 
L 143.104427 474.34208 
L 143.185599 474.753838 
L 143.226184 474.699637 
L 143.347942 474.358934 
L 143.429114 474.934987 
L 143.4697 474.797541 
L 143.510286 474.687679 
L 143.550871 474.886636 
L 143.591457 475.09729 
L 143.672629 474.942944 
L 143.713215 474.906523 
L 143.794387 475.235709 
L 143.875558 475.118038 
L 143.95673 475.358363 
L 143.997316 475.307757 
L 144.037902 475.257951 
L 144.078488 475.323923 
L 144.240831 475.474387 
L 144.443761 475.635969 
L 144.84962 475.861629 
L 145.458408 476.131706 
L 146.067196 476.43074 
L 153.697341 479.247792 
L 153.90027 479.325362 
L 154.062614 479.381324 
L 154.346715 479.541031 
L 155.442533 480.124568 
L 156.538352 480.832233 
L 157.471827 481.526445 
L 157.715342 481.546459 
L 157.877686 481.59113 
L 158.040029 481.809807 
L 158.202373 481.778662 
L 158.364716 481.994031 
L 158.405302 481.950774 
L 158.486474 481.890264 
L 158.52706 481.938796 
L 158.648818 482.13103 
L 158.770575 482.010504 
L 158.892333 482.25379 
L 158.932919 482.202751 
L 159.01409 482.15692 
L 159.135848 482.359631 
L 159.176434 482.326545 
L 159.257606 482.324771 
L 159.419949 482.415005 
L 159.541707 482.493636 
L 159.866394 482.601597 
L 160.191081 482.704836 
L 160.799869 482.873728 
L 161.205728 483.003711 
L 161.77393 483.136708 
L 162.46389 483.285132 
L 162.788577 483.244817 
L 162.991506 483.42678 
L 163.235022 483.376814 
L 163.478537 483.547579 
L 163.965567 483.621054 
L 164.493184 483.741693 
L 164.614941 483.691941 
L 164.736699 483.449141 
L 164.777285 483.558443 
L 164.899043 483.7765 
L 164.939629 483.701925 
L 165.0208 483.442165 
L 165.061386 483.545158 
L 165.142558 483.848374 
L 165.183144 483.822251 
L 165.304901 483.519108 
L 165.386073 483.868836 
L 165.426659 483.727048 
L 165.507831 483.401096 
L 165.589003 483.79478 
L 165.629588 483.588168 
L 165.670174 483.48907 
L 165.71076 483.625069 
L 165.751346 483.842839 
L 165.832518 483.704112 
L 165.91369 483.884055 
L 165.954275 483.819937 
L 165.994861 483.721059 
L 166.035447 483.788118 
L 166.076033 483.910638 
L 166.116619 483.863087 
L 166.157205 483.664244 
L 166.197791 483.846774 
L 166.360134 483.987308 
L 168.227085 484.298133 
L 168.430014 484.1231 
L 168.4706 484.226066 
L 168.592357 484.371781 
L 168.632943 484.347119 
L 168.714115 484.233529 
L 168.754701 484.28931 
L 168.917044 484.365786 
L 169.038802 484.375496 
L 169.241731 484.400106 
L 169.485247 484.422074 
L 169.566418 484.29894 
L 169.607004 484.3329 
L 169.64759 484.385607 
L 169.688176 484.275091 
L 169.809934 484.12432 
L 169.891105 484.350987 
L 169.972277 484.02923 
L 170.053449 484.578314 
L 170.094035 484.429197 
L 170.175207 483.929085 
L 170.215792 484.404274 
L 170.296964 484.069806 
L 170.418722 484.568277 
L 170.459308 484.475868 
L 170.499894 484.367573 
L 170.54048 484.571098 
L 170.621651 484.517417 
L 170.662237 484.437 
L 170.702823 484.49871 
L 170.783995 484.607225 
L 170.824581 484.451619 
L 170.865167 484.504172 
L 170.946338 484.661166 
L 170.986924 484.625432 
L 171.02751 484.557259 
L 171.068096 484.605077 
L 171.230439 484.668108 
L 171.960985 484.783813 
L 172.448016 484.769047 
L 172.650945 484.858294 
L 172.853874 484.868725 
L 173.016218 484.777664 
L 173.056804 484.823081 
L 173.178561 484.924126 
L 173.340905 484.802753 
L 173.381491 484.891861 
L 173.503249 484.945368 
L 173.625006 484.821954 
L 173.665592 484.878089 
L 173.868521 484.978967 
L 174.071451 484.904279 
L 174.193208 485.030327 
L 174.233794 485.004164 
L 174.355552 484.857808 
L 174.517895 485.039904 
L 174.639653 484.912802 
L 174.680239 484.992112 
L 174.842582 485.061732 
L 175.126684 485.05469 
L 175.207855 485.111992 
L 175.248441 485.08054 
L 175.329613 484.935157 
L 175.370199 484.961887 
L 175.451371 485.105142 
L 175.491956 485.027819 
L 175.573128 484.809696 
L 175.613714 485.033422 
L 175.6543 485.072637 
L 175.776058 484.719881 
L 175.816643 485.083687 
L 175.857229 484.892948 
L 175.897815 484.59312 
L 175.938401 484.975012 
L 175.978987 485.074004 
L 176.019573 484.844869 
L 176.060159 484.975426 
L 176.100745 485.16125 
L 176.14133 485.088703 
L 176.222502 484.845143 
L 176.263088 485.022951 
L 176.425432 485.088749 
L 176.506603 484.904839 
L 176.547189 484.957746 
L 176.628361 485.158416 
L 176.668947 485.020363 
L 176.709533 484.948049 
L 176.750119 485.027079 
L 176.83129 485.242495 
L 176.871876 485.145478 
L 176.912462 485.100781 
L 176.953048 485.141176 
L 177.03422 485.264277 
L 177.074806 485.226736 
L 177.237149 485.185413 
L 177.358907 485.245916 
L 177.399493 485.193756 
L 177.440079 485.08282 
L 177.480664 485.170754 
L 177.52125 485.290273 
L 177.561836 485.269038 
L 177.643008 484.905653 
L 177.683594 485.126317 
L 177.72418 485.23798 
L 177.764766 485.131406 
L 177.845937 485.132359 
L 177.927109 485.269425 
L 177.967695 485.233145 
L 178.332968 485.387504 
L 179.063514 485.327694 
L 179.1041 485.264957 
L 179.144685 485.33489 
L 179.266443 485.444599 
L 179.388201 485.292801 
L 179.428787 485.409546 
L 179.469372 485.47287 
L 179.509958 485.433055 
L 179.59113 485.164498 
L 179.631716 485.31591 
L 179.672302 485.448467 
L 179.712888 485.356659 
L 179.794059 485.043899 
L 179.834645 485.375993 
L 179.915817 485.130732 
L 179.996989 485.486148 
L 180.037575 485.401563 
L 180.078161 485.352097 
L 180.118746 485.452555 
L 180.159332 485.506729 
L 180.199918 485.385336 
L 180.240504 485.206021 
L 180.28109 485.354051 
L 180.321676 485.486755 
L 180.362262 485.44782 
L 180.443433 485.302124 
L 180.524605 485.516113 
L 180.565191 485.430247 
L 180.686949 485.563658 
L 180.727535 485.52427 
L 180.808706 485.532052 
L 180.889878 485.567286 
L 180.930464 485.53368 
L 180.97105 485.463906 
L 181.011636 485.496239 
L 181.092807 485.599798 
L 181.133393 485.543504 
L 181.214565 485.444866 
L 181.255151 485.517767 
L 181.295737 485.600852 
L 181.336323 485.515213 
L 181.376909 485.332376 
L 181.417494 485.405317 
L 181.498666 485.575336 
L 181.539252 485.461445 
L 181.579838 485.345588 
L 181.620424 485.51798 
L 181.66101 485.620093 
L 181.742181 485.538535 
L 181.823353 485.612937 
L 181.945111 485.621713 
L 182.107454 485.653866 
L 182.269798 485.644202 
L 182.432141 485.691994 
L 183.203273 485.737705 
L 183.365617 485.578017 
L 183.446788 485.765228 
L 183.487374 485.691827 
L 183.568546 485.518267 
L 183.649718 485.758579 
L 183.690304 485.59503 
L 183.730889 485.466301 
L 183.771475 485.481066 
L 183.812061 485.71781 
L 183.852647 485.615631 
L 183.893233 485.378714 
L 183.933819 485.641474 
L 183.974405 485.785016 
L 184.055576 485.679322 
L 184.177334 485.78675 
L 184.258506 485.704619 
L 184.299092 485.751677 
L 184.380263 485.803183 
L 184.502021 485.653426 
L 184.583193 485.799308 
L 184.664365 485.583872 
L 184.70495 485.685978 
L 184.745536 485.787324 
L 184.786122 485.685811 
L 184.826708 485.564278 
L 184.867294 485.735164 
L 184.90788 485.835215 
L 184.989052 485.770611 
L 185.39491 485.787904 
L 185.516668 485.889076 
L 185.638426 485.817395 
L 185.719597 485.922142 
L 185.760183 485.862039 
L 185.841355 485.730649 
L 185.881941 485.840351 
L 185.922527 485.919948 
L 185.963113 485.768977 
L 186.003699 485.481807 
L 186.044284 485.689179 
L 186.08487 485.842031 
L 186.125456 485.772845 
L 186.206628 485.682704 
L 186.247214 485.838223 
L 186.328386 485.741833 
L 186.653073 485.843505 
L 186.734244 485.86538 
L 186.856002 485.991368 
L 186.896588 485.958089 
L 186.97776 485.842365 
L 187.018345 485.884401 
L 187.140103 485.99451 
L 187.261861 485.881533 
L 187.302447 485.973115 
L 187.424204 486.010369 
L 187.545962 485.909097 
L 187.708305 486.016898 
L 188.317094 485.959516 
L 188.398265 486.09174 
L 188.438851 486.052372 
L 188.520023 485.863026 
L 188.560609 485.940816 
L 188.601195 486.077668 
L 188.641781 486.0204 
L 188.722952 485.74316 
L 188.763538 485.923389 
L 188.804124 485.983045 
L 188.885296 485.617245 
L 188.966468 486.024661 
L 189.007053 485.880633 
L 189.088225 486.102871 
L 189.128811 486.033711 
L 189.169397 485.91836 
L 189.209983 485.93484 
L 189.250569 486.06441 
L 189.291155 485.995923 
L 189.33174 485.750143 
L 189.372326 485.83909 
L 189.453498 486.069932 
L 189.494084 485.965192 
L 189.53467 485.90008 
L 189.615842 486.144714 
L 189.656427 486.070245 
L 190.265216 486.175912 
L 190.468145 486.077068 
L 190.589903 485.941436 
L 190.752246 486.23178 
L 190.792832 486.207551 
L 190.955176 486.107813 
L 191.198691 486.223944 
L 191.523378 485.953501 
L 191.60455 486.229193 
L 191.645135 486.115676 
L 191.726307 485.819229 
L 191.807479 486.168843 
L 191.848065 486.007208 
L 191.929237 486.092107 
L 191.969822 486.034352 
L 192.010408 485.994976 
L 192.050994 486.076828 
L 192.09158 486.209612 
L 192.132166 486.166055 
L 192.253924 485.686172 
L 192.294509 485.97012 
L 192.375681 485.891477 
L 192.578611 486.192839 
L 192.619196 486.244072 
L 192.659782 486.116483 
L 192.740954 486.145581 
L 192.78154 486.256256 
L 192.822126 486.229293 
L 192.862712 486.079435 
L 192.903298 486.163534 
L 192.984469 486.312451 
L 193.025055 486.244685 
L 193.065641 486.164461 
L 193.106227 486.244212 
L 193.187399 486.346885 
L 193.227985 486.314799 
L 193.309156 486.216535 
L 193.349742 486.256063 
L 193.430914 486.341369 
L 193.552672 486.194286 
L 193.593258 486.332846 
L 193.633843 486.314746 
L 193.674429 486.160553 
L 193.755601 486.281179 
L 193.796187 486.351853 
L 193.836773 486.27483 
L 193.877359 486.167803 
L 193.917945 486.276664 
L 193.999116 486.376963 
L 194.039702 486.320328 
L 194.16146 486.352153 
L 194.283217 486.354801 
L 194.364389 486.24812 
L 194.404975 486.333613 
L 194.486147 486.380978 
L 194.567319 486.174912 
L 194.607904 486.302341 
L 194.64849 486.402526 
L 194.689076 486.344404 
L 194.770248 486.131262 
L 194.85142 486.372421 
L 194.892006 486.240537 
L 195.054349 486.407468 
L 195.094935 486.355981 
L 195.419622 486.367612 
L 195.460208 486.342883 
L 195.500794 486.415531 
L 195.581965 486.450658 
L 195.622551 486.406734 
L 195.703723 486.35188 
L 195.784895 486.488986 
L 195.825481 486.452165 
L 195.906652 486.29225 
L 195.947238 486.346291 
L 195.987824 486.480249 
L 196.02841 486.39691 
L 196.068996 486.117337 
L 196.109582 486.277911 
L 196.190754 486.409982 
L 196.271925 486.218529 
L 196.353097 486.45684 
L 196.393683 486.383225 
L 197.286572 486.453559 
L 197.40833 486.129235 
L 197.448916 486.227739 
L 197.570673 486.508453 
L 197.611259 486.424474 
L 197.773603 486.349012 
L 197.89536 486.272076 
L 197.976532 486.050651 
L 198.017118 485.963751 
L 198.09829 486.337674 
L 198.138876 486.208118 
L 198.179462 486.153597 
L 198.220047 486.278185 
L 198.301219 486.54412 
L 198.341805 486.449404 
L 198.504149 486.401739 
L 198.58532 486.487392 
L 198.625906 486.598754 
L 198.666492 486.567976 
L 198.78825 486.34345 
L 198.869421 486.594846 
L 198.910007 486.411803 
L 198.950593 486.330738 
L 198.991179 486.352087 
L 199.031765 486.543607 
L 199.072351 486.467431 
L 199.112937 486.23108 
L 199.153523 486.478168 
L 199.315866 486.582508 
L 199.559381 486.566102 
L 199.681139 486.586903 
L 199.843483 486.643952 
L 200.16817 486.670895 
L 200.289927 486.653522 
L 200.411685 486.588184 
L 200.533442 486.69964 
L 200.574028 486.678171 
L 200.695786 486.57866 
L 200.736372 486.643618 
L 200.939301 486.690589 
L 201.101645 486.530155 
L 201.142231 486.590938 
L 201.223402 486.658611 
L 201.263988 486.595553 
L 201.34516 486.45752 
L 201.426332 486.692697 
L 201.466918 486.540926 
L 201.548089 486.545427 
L 201.588675 486.688509 
L 201.629261 486.580161 
L 201.669847 486.344997 
L 201.710433 486.571771 
L 201.751019 486.684534 
L 201.83219 486.595313 
L 202.03512 486.658444 
L 202.156878 486.694331 
L 202.319221 486.74479 
L 202.440979 486.631947 
L 202.481565 486.703501 
L 202.562736 486.710697 
L 202.72508 486.460175 
L 202.846837 486.791928 
L 202.887423 486.746444 
L 202.968595 486.606591 
L 203.009181 486.658377 
L 203.090353 486.749679 
L 203.171524 486.328377 
L 203.21211 486.44048 
L 203.293282 486.758729 
L 203.333868 486.737641 
L 203.41504 486.445609 
L 203.455626 486.477808 
L 203.536797 486.676464 
L 203.577383 486.526107 
L 203.658555 486.510454 
L 203.739727 486.609478 
L 203.780313 486.44911 
L 203.820898 486.619436 
L 204.064414 486.729011 
L 204.186171 486.740222 
L 204.389101 486.773588 
L 204.470272 486.645339 
L 204.551444 486.770313 
L 204.632616 486.73618 
L 204.673202 486.641617 
L 204.713788 486.739108 
L 204.754374 486.797604 
L 204.794959 486.730798 
L 204.876131 486.511448 
L 204.957303 486.782531 
L 204.997889 486.59596 
L 205.119647 486.835025 
L 205.160232 486.804453 
L 205.28199 486.848797 
L 205.444334 486.842514 
L 205.566091 486.719621 
L 205.647263 486.892687 
L 205.687849 486.861995 
L 205.769021 486.707383 
L 205.809606 486.808982 
L 205.850192 486.879702 
L 205.890778 486.818492 
L 206.093708 486.401045 
L 206.215465 486.887925 
L 206.296637 486.724709 
L 206.377809 486.799665 
L 206.45898 486.898489 
L 206.499566 486.810309 
L 206.580738 486.745977 
L 206.702496 486.914115 
L 206.743082 486.880396 
L 206.864839 486.822067 
L 207.027183 486.897749 
L 207.270698 486.759289 
L 207.392456 486.916776 
L 207.554799 486.781311 
L 207.635971 486.948895 
L 207.676557 486.815624 
L 207.757729 486.661238 
L 207.798314 486.88429 
L 207.8389 486.811583 
L 207.879486 486.584922 
L 207.920072 486.885884 
L 207.960658 486.939758 
L 208.001244 486.812643 
L 208.123001 486.896828 
L 208.163587 486.820679 
L 208.204173 486.706936 
L 208.244759 486.816051 
L 208.325931 486.889072 
L 208.366517 486.834158 
L 208.407103 486.733046 
L 208.447688 486.900697 
L 208.488274 486.957859 
L 208.52886 486.833471 
L 208.610032 486.723202 
L 208.650618 486.911441 
L 208.73179 486.782645 
L 208.812961 486.976966 
L 208.853547 486.914662 
L 208.934719 486.82374 
L 208.975305 486.891406 
L 209.259406 487.010025 
L 209.502921 486.95385 
L 209.665265 487.040363 
L 209.949366 486.905999 
L 210.071123 487.059171 
L 210.111709 487.034988 
L 210.314639 486.900723 
L 210.558154 487.070295 
L 210.679912 486.839967 
L 210.720498 486.968369 
L 210.801669 487.084387 
L 210.842255 487.031067 
L 210.882841 486.905325 
L 210.964013 486.995646 
L 211.004599 486.989551 
L 211.126356 485.920214 
L 211.166942 486.011469 
L 211.207528 486.827222 
L 211.248114 486.582895 
L 211.2887 486.13603 
L 211.329286 486.477815 
L 211.369872 486.791461 
L 211.451043 486.62119 
L 211.491629 486.557032 
L 211.653973 486.938438 
L 211.856902 486.872219 
L 212.019246 487.059804 
L 212.181589 486.922352 
L 212.343933 487.123008 
L 212.384518 487.069815 
L 212.46569 486.955424 
L 212.506276 487.01388 
L 212.587448 487.112264 
L 212.628034 487.031407 
L 212.66862 486.920171 
L 212.709205 487.007684 
L 212.790377 487.112491 
L 212.830963 487.019275 
L 212.871549 486.849144 
L 212.912135 487.003163 
L 212.993307 487.083106 
L 213.074478 486.780817 
L 213.115064 487.025344 
L 213.15565 487.099413 
L 213.196236 486.993105 
L 213.561509 487.076451 
L 213.642681 486.688442 
L 213.683267 486.305495 
L 213.723852 486.327624 
L 213.805024 487.037282 
L 213.84561 486.72763 
L 214.089125 487.017141 
L 214.129711 486.907999 
L 214.170297 486.905225 
L 214.332641 487.140982 
L 214.454398 487.010132 
L 214.53557 487.121481 
L 215.266116 487.129824 
L 215.387873 487.074076 
L 215.590803 487.205907 
L 215.753146 486.947081 
L 215.834318 487.067367 
L 215.996661 487.174481 
L 216.159005 487.079065 
L 216.321348 487.222073 
L 216.361934 487.164444 
L 216.443106 487.070755 
L 216.483692 487.12805 
L 216.60545 487.211156 
L 216.646036 487.171934 
L 216.767793 487.165131 
L 216.848965 487.231997 
L 216.889551 487.15254 
L 216.970723 486.902437 
L 217.051894 487.063959 
L 217.133066 487.199811 
L 217.173652 487.118753 
L 217.254824 487.036008 
L 217.29541 487.086368 
L 217.376581 487.245549 
L 217.417167 487.168906 
L 217.457753 487.002622 
L 217.538925 487.121648 
L 217.620097 487.247676 
L 217.660682 487.219512 
L 218.107127 487.235111 
L 218.147713 487.287611 
L 218.188299 487.235832 
L 218.269471 486.950849 
L 218.350642 487.069021 
L 218.4724 486.791795 
L 218.512986 487.220619 
L 218.553572 487.05875 
L 218.594158 486.701867 
L 218.634743 487.108323 
L 218.675329 486.934189 
L 218.715915 486.842661 
L 218.756501 487.189454 
L 218.797087 486.724896 
L 218.878259 487.085481 
L 218.95943 486.983148 
L 219.000016 487.02223 
L 219.040602 486.827989 
L 219.081188 486.917483 
L 219.121774 487.048987 
L 219.16236 486.950316 
L 219.202946 486.931108 
L 219.243532 487.219979 
L 219.284118 486.938018 
L 219.324703 486.903918 
L 219.365289 487.271152 
L 219.405875 486.825548 
L 219.446461 486.860234 
L 219.487047 487.092904 
L 219.568219 486.450664 
L 219.608805 486.599515 
L 219.64939 486.345604 
L 219.689976 487.120621 
L 219.771148 486.692484 
L 219.933492 487.139381 
L 219.974077 487.094804 
L 220.014663 487.247463 
L 220.055249 487.22356 
L 220.095835 487.099426 
L 220.136421 487.219592 
L 220.177007 487.317263 
L 220.217593 487.237446 
L 220.258179 487.207694 
L 220.298764 487.268491 
L 220.379936 487.314522 
L 220.461108 487.246176 
L 220.501694 487.315969 
L 220.582866 487.347801 
L 220.623451 487.302457 
L 220.785795 487.304011 
L 221.069896 487.372884 
L 221.556927 487.142309 
L 221.638098 486.844442 
L 221.678684 486.930088 
L 221.759856 487.309693 
L 221.800442 487.129944 
L 221.841028 487.016774 
L 221.881614 487.216958 
L 221.922199 487.360093 
L 221.962785 487.244422 
L 222.003371 487.196583 
L 222.043957 487.262342 
L 222.206301 487.348795 
L 222.287472 487.22244 
L 222.328058 487.278281 
L 222.40923 487.400235 
L 222.449816 487.350929 
L 222.530988 487.173781 
L 222.571574 487.30023 
L 222.652745 487.372004 
L 222.693331 487.312981 
L 222.733917 487.196443 
L 222.774503 487.322725 
L 222.815089 487.321798 
L 222.855675 487.175709 
L 222.936846 487.293927 
L 222.977432 487.401969 
L 223.018018 487.380767 
L 223.058604 487.259494 
L 223.139776 487.358812 
L 223.302119 487.366808 
L 223.505049 487.375005 
L 223.707978 486.857553 
L 223.78915 486.332052 
L 223.870322 487.220132 
L 223.910907 486.772888 
L 223.992079 487.210569 
L 224.113837 487.172794 
L 224.316766 487.175415 
L 224.47911 487.403242 
L 224.560281 487.23207 
L 224.600867 487.363641 
L 224.682039 487.401969 
L 224.722625 487.330234 
L 224.763211 487.219919 
L 224.803797 487.383995 
L 224.844383 487.428692 
L 224.884968 487.361026 
L 224.96614 487.25856 
L 225.047312 487.436622 
L 225.087898 487.315229 
L 225.493757 487.467754 
L 225.574928 487.388003 
L 225.615514 487.446652 
L 225.696686 487.498299 
L 225.737272 487.450367 
L 225.777858 487.378193 
L 225.818444 487.428459 
L 225.899615 487.503154 
L 225.940201 487.435461 
L 226.061959 486.75232 
L 226.143131 484.575326 
L 226.264888 486.589864 
L 226.305474 486.649347 
L 226.386646 486.45754 
L 226.548989 487.044498 
L 226.589575 486.801152 
L 226.670747 486.90139 
L 226.833091 487.142189 
L 226.873676 487.075924 
L 226.914262 487.18778 
L 226.995434 487.291126 
L 227.03602 486.978433 
L 227.076606 487.242401 
L 227.157778 487.309053 
L 227.198363 487.26589 
L 227.238949 487.175975 
L 227.320121 487.398834 
L 227.360707 487.363167 
L 227.482465 487.406604 
L 227.644808 487.433541 
L 227.72598 487.386636 
L 227.766566 487.469521 
L 227.847738 487.4494 
L 227.928909 487.378666 
L 227.969495 487.470355 
L 228.010081 487.508936 
L 228.050667 487.428219 
L 228.131839 487.38821 
L 228.21301 487.500353 
L 228.253596 487.385696 
L 228.334768 487.488869 
L 228.41594 487.517033 
L 228.456526 487.45747 
L 228.90297 487.490049 
L 228.943556 487.416034 
L 228.984142 487.501787 
L 229.065314 487.52783 
L 229.146486 487.411312 
L 229.187071 487.52735 
L 229.227657 487.567499 
L 229.268243 487.516332 
L 229.349415 487.426491 
L 229.430587 487.56151 
L 229.471173 487.499172 
L 229.59293 487.561456 
L 229.714688 487.483873 
L 229.877031 487.37089 
L 229.958203 486.993412 
L 229.998789 487.051808 
L 230.079961 487.529111 
L 230.120547 487.448626 
L 230.161132 487.200698 
L 230.201718 487.317196 
L 230.242304 487.542016 
L 230.28289 487.520681 
L 230.364062 487.352516 
L 230.404648 487.535213 
L 230.485819 487.436235 
L 230.851092 487.591108 
L 230.97285 487.53576 
L 231.013436 487.586806 
L 231.135194 487.562377 
L 231.175779 487.516466 
L 231.216365 487.574088 
L 231.297537 487.62322 
L 231.338123 487.580977 
L 231.378709 487.511077 
L 231.419295 487.5544 
L 231.500466 487.617098 
L 231.541052 487.567359 
L 231.784568 487.153974 
L 231.825153 487.22274 
L 231.906325 487.618205 
L 231.946911 487.546004 
L 231.987497 487.314769 
L 232.028083 487.367075 
L 232.109255 487.615684 
L 232.14984 487.509737 
L 232.190426 487.379073 
L 232.231012 487.530925 
L 232.271598 487.616771 
L 232.312184 487.589801 
L 232.393356 487.486127 
L 232.433942 487.584605 
L 232.515113 487.624407 
L 232.555699 487.584292 
L 232.596285 487.530024 
L 232.677457 487.591361 
L 232.758629 487.655986 
L 232.799214 487.604126 
L 233.083316 487.238939 
L 233.123901 487.409178 
L 233.164487 487.565525 
L 233.245659 487.496592 
L 233.286245 487.454422 
L 233.326831 487.544303 
L 233.52976 487.626481 
L 233.895033 487.636845 
L 234.057377 487.640066 
L 234.21972 487.331128 
L 234.300892 486.660425 
L 234.341478 486.906752 
L 234.382064 487.544356 
L 234.463235 487.217618 
L 234.544407 487.560623 
L 234.584993 487.392205 
L 234.787922 487.594922 
L 234.828508 487.479638 
L 234.869094 487.611849 
L 235.193781 487.676367 
L 235.396711 487.550059 
L 236.005499 487.714435 
L 236.167842 487.691686 
L 236.370772 487.709106 
L 236.614287 487.547398 
L 236.695459 486.310964 
L 236.736045 485.157109 
L 236.77663 486.280226 
L 236.898388 487.273106 
L 236.97956 486.839253 
L 237.060732 487.069928 
L 237.263661 487.367682 
L 237.304247 487.327167 
L 237.344833 487.564411 
L 237.426004 487.516379 
L 237.46659 487.381994 
L 237.507176 487.510203 
L 237.588348 487.599938 
L 237.628934 487.508316 
L 237.66952 487.394239 
L 237.710106 487.559842 
L 237.791277 487.612302 
L 237.872449 487.380861 
L 237.913035 487.608361 
L 237.953621 487.589067 
L 237.994207 487.357365 
L 238.034793 487.633204 
L 238.237722 487.712661 
L 238.521823 487.729534 
L 238.643581 487.729174 
L 238.805924 487.72884 
L 239.617642 487.762753 
L 239.861157 487.68441 
L 239.942329 487.206881 
L 240.023501 486.716533 
L 240.104672 487.613763 
L 240.145258 487.211642 
L 240.22643 487.564011 
L 240.267016 487.329768 
L 240.429359 487.646829 
L 240.510531 487.536327 
L 240.551117 487.722571 
L 240.632289 487.698662 
L 240.672875 487.745727 
L 240.71346 487.662849 
L 240.875804 487.716296 
L 240.956976 487.789657 
L 240.997562 487.745347 
L 241.119319 487.680249 
L 241.971623 487.779587 
L 242.133966 487.848873 
L 242.418067 487.7961 
L 242.539825 487.838749 
L 242.620997 487.810785 
L 242.702168 487.333609 
L 242.78334 485.342793 
L 242.823926 486.15261 
L 242.864512 487.450274 
L 242.945684 487.437916 
L 243.026855 487.044665 
L 243.067441 487.34554 
L 243.108027 487.236805 
L 243.148613 487.343119 
L 243.392128 487.625988 
L 243.513886 487.46726 
L 243.595058 487.702657 
L 243.635644 487.636145 
L 243.676229 487.532925 
L 243.716815 487.560403 
L 243.797987 487.672285 
L 243.838573 487.461325 
L 243.879159 487.669151 
L 243.919745 487.801121 
L 244.000916 487.703251 
L 244.041502 487.662782 
L 244.082088 487.77009 
L 244.16326 487.835175 
L 244.203846 487.77872 
L 244.244432 487.726573 
L 244.325603 487.79764 
L 244.406775 487.851908 
L 244.447361 487.785642 
L 244.569119 487.855762 
L 244.65029 487.79612 
L 244.731462 487.758925 
L 244.812634 487.856916 
L 244.85322 487.732168 
L 244.934392 487.827985 
L 244.974977 487.891423 
L 245.015563 487.854195 
L 245.056149 487.746247 
L 245.096735 487.811712 
L 245.177907 487.903574 
L 245.218493 487.869508 
L 245.259079 487.774184 
L 245.299665 487.824984 
L 245.421422 487.875003 
L 245.462008 487.791691 
L 245.54318 487.87531 
L 245.624352 487.879718 
L 245.664937 487.794266 
L 245.746109 487.858924 
L 245.786695 487.907862 
L 245.827281 487.86764 
L 246.070796 487.376099 
L 246.151968 487.66547 
L 246.192554 487.903434 
L 246.23314 487.81372 
L 246.273726 487.59795 
L 246.314311 487.720504 
L 246.354897 487.896445 
L 246.395483 487.871122 
L 246.436069 487.750749 
L 246.476655 487.773491 
L 246.517241 487.879131 
L 246.598413 487.842344 
L 246.841928 487.908583 
L 246.9231 487.818335 
L 246.963685 487.875723 
L 247.004271 487.955481 
L 247.044857 487.928957 
L 247.166615 487.835308 
L 247.247787 487.952373 
L 247.288372 487.85733 
L 247.369544 487.819822 
L 247.41013 487.916559 
L 247.450716 487.898505 
L 247.491302 487.786636 
L 247.531888 487.864019 
L 247.613059 487.971347 
L 247.653645 487.911277 
L 247.694231 487.815654 
L 247.734817 487.897518 
L 247.815989 487.92763 
L 248.10009 487.656153 
L 248.221848 487.965858 
L 248.262434 487.878664 
L 248.303019 487.788623 
L 248.343605 487.860431 
L 248.424777 487.949278 
L 248.465363 487.898859 
L 248.505949 487.858197 
L 248.546535 487.928277 
L 248.749464 487.982911 
L 249.114737 487.981591 
L 249.195909 488.017831 
L 249.317666 487.983238 
L 249.358252 488.023827 
L 249.398838 487.970833 
L 249.48001 487.516019 
L 249.561182 485.948345 
L 249.601767 486.198961 
L 249.642353 487.620092 
L 249.723525 487.532258 
L 249.804697 487.241367 
L 249.845283 487.424944 
L 250.048212 487.725099 
L 250.088798 487.787056 
L 250.129384 487.62262 
L 250.16997 487.91862 
L 250.210556 487.753583 
L 250.372899 487.940421 
L 250.494657 488.04084 
L 250.535243 487.973041 
L 250.616414 488.04044 
L 251.468718 488.200908 
L 252.239849 488.267027 
L 252.442779 488.222156 
L 252.523951 487.810272 
L 252.605122 485.527351 
L 252.645708 485.818856 
L 252.686294 487.78046 
L 252.767466 487.546611 
L 252.808052 487.342533 
L 252.848638 487.416548 
L 252.929809 487.668171 
L 252.970395 487.441597 
L 253.010981 487.913958 
L 253.092153 487.666557 
L 253.21391 487.927163 
L 253.254496 487.740218 
L 253.295082 487.987733 
L 253.335668 487.890896 
L 253.376254 488.02238 
L 253.41684 487.958775 
L 253.619769 488.164927 
L 253.782113 488.119577 
L 253.985042 488.234521 
L 254.147386 488.223843 
L 255.649063 488.269754 
L 255.730235 488.019885 
L 255.851992 486.794403 
L 255.933164 488.116716 
L 256.014336 488.060181 
L 256.095508 487.891123 
L 256.136094 488.13681 
L 256.217265 487.985585 
L 256.379609 488.231966 
L 256.420195 488.151376 
L 256.501367 488.224904 
L 256.988397 488.345263 
L 257.231912 488.316686 
L 257.475428 488.375922 
L 258.571246 488.301813 
L 258.652418 486.869718 
L 258.693004 484.506913 
L 258.73359 484.898957 
L 258.774176 487.712721 
L 258.855347 487.334123 
L 258.936519 486.91911 
L 259.058277 487.645455 
L 259.098863 487.479025 
L 259.139448 487.5714 
L 259.22062 487.436915 
L 259.261206 487.987253 
L 259.301792 487.562997 
L 259.382964 487.786282 
L 259.545307 488.074353 
L 259.667065 488.173751 
L 259.707651 488.05824 
L 259.748237 488.264506 
L 259.91058 488.199961 
L 259.991752 488.157278 
L 260.032338 488.240243 
L 260.154095 488.33674 
L 260.275853 488.261631 
L 260.438197 488.357415 
L 260.478782 488.322001 
L 260.519368 488.378423 
L 260.681712 488.362643 
L 262.67042 488.528013 
L 262.913935 488.459327 
L 263.035693 487.975782 
L 263.116864 487.179997 
L 263.15745 487.36084 
L 263.198036 488.282879 
L 263.279208 487.888875 
L 263.319794 488.375001 
L 263.400966 488.095314 
L 263.441551 488.37941 
L 263.522723 488.209291 
L 263.563309 488.418605 
L 263.644481 488.352426 
L 263.806824 488.43313 
L 263.969168 488.447022 
L 264.172097 488.533035 
L 264.375027 488.47634 
L 264.577956 488.497161 
L 264.699714 488.516602 
L 264.821471 488.495547 
L 264.983815 488.552176 
L 265.186744 488.55491 
L 265.389674 488.538917 
L 265.633189 488.446068 
L 265.795532 488.156017 
L 265.836118 488.250627 
L 265.91729 488.516615 
L 265.998462 488.461588 
L 266.363735 488.509673 
L 266.444906 488.575998 
L 266.566664 488.507078 
L 266.647836 488.584035 
L 266.688422 488.509713 
L 267.053694 488.498202 
L 267.216038 487.567705 
L 267.256624 487.64178 
L 267.337796 488.444475 
L 267.378381 488.051004 
L 267.459553 488.538711 
L 267.500139 488.230326 
L 267.703068 488.517056 
L 267.743654 488.350992 
L 267.78424 488.392488 
L 267.824826 488.544893 
L 267.905998 488.45071 
L 268.068341 488.598867 
L 268.149513 488.469564 
L 268.190099 488.511127 
L 268.352443 488.555891 
L 268.393028 488.48507 
L 268.433614 488.530861 
L 268.514786 488.622396 
L 268.555372 488.563507 
L 268.595958 488.492066 
L 268.636544 488.552456 
L 268.717715 488.621776 
L 268.758301 488.564787 
L 268.798887 488.51891 
L 268.839473 488.583148 
L 268.920645 488.616474 
L 268.961231 488.566001 
L 269.042402 488.602015 
L 269.123574 488.628232 
L 269.16416 488.579793 
L 269.245332 488.597546 
L 269.326504 488.648019 
L 269.367089 488.609244 
L 269.448261 488.602535 
L 269.529433 488.664572 
L 269.570019 488.628278 
L 269.651191 488.596706 
L 269.691776 488.631486 
L 269.772948 488.577672 
L 269.85412 488.12892 
L 269.975878 486.542379 
L 270.016463 487.959736 
L 270.097635 487.898032 
L 270.178807 487.855449 
L 270.259979 488.219302 
L 270.300565 488.099696 
L 270.34115 488.061521 
L 270.381736 488.32735 
L 270.462908 488.28346 
L 270.503494 488.237135 
L 270.665837 488.491446 
L 270.747009 488.566941 
L 270.787595 488.4053 
L 270.949939 488.584361 
L 271.071696 488.534149 
L 271.23404 488.625924 
L 271.436969 488.619175 
L 271.680484 488.664252 
L 272.938647 488.661984 
L 273.019818 488.377135 
L 273.141576 487.013146 
L 273.182162 487.854342 
L 273.222748 488.55431 
L 273.303919 488.327176 
L 273.344505 488.361069 
L 273.385091 488.153983 
L 273.425677 488.493607 
L 273.506849 488.294804 
L 273.588021 488.450584 
L 273.628606 488.462475 
L 273.669192 488.612352 
L 273.709778 488.432817 
L 273.750364 488.581434 
L 273.912708 488.609738 
L 274.075051 488.641377 
L 274.237395 488.678704 
L 275.6579 488.667393 
L 275.86083 488.006493 
L 275.901416 488.157078 
L 275.982587 488.710797 
L 276.023173 488.466056 
L 276.266688 488.729304 
L 276.307274 488.626044 
L 276.34786 488.670454 
L 276.388446 488.756387 
L 276.469618 488.669207 
L 276.631961 488.739748 
L 276.834891 488.782057 
L 277.159578 488.666259 
L 277.362507 488.791914 
L 277.565437 488.753753 
L 277.849538 488.808454 
L 278.052467 488.74615 
L 278.133639 488.44014 
L 278.255396 486.602469 
L 278.295982 487.806357 
L 278.41774 488.450283 
L 278.458326 488.115935 
L 278.498912 488.201548 
L 278.580083 488.430809 
L 278.620669 488.37937 
L 279.067114 488.689188 
L 279.1077 488.623076 
L 279.148286 488.656322 
L 279.270043 488.743016 
L 279.391801 488.666486 
L 279.432387 488.747144 
L 280.000589 488.835691 
L 280.852893 488.792981 
L 280.97465 488.53647 
L 281.096408 487.628182 
L 281.136994 488.062962 
L 281.17758 488.739654 
L 281.258751 488.38966 
L 281.299337 488.768485 
L 281.380509 488.52784 
L 281.421095 488.766891 
L 281.502267 488.58136 
L 281.66461 488.829088 
L 281.705196 488.7372 
L 281.786368 488.822806 
L 281.948711 488.773714 
L 282.476328 488.85866 
L 282.801015 488.890999 
L 283.288045 488.843394 
L 283.490975 488.554517 
L 283.612732 487.489535 
L 283.693904 488.656456 
L 283.73449 488.140531 
L 283.775076 488.599274 
L 283.856247 488.402138 
L 284.018591 488.766658 
L 284.099763 488.647199 
L 284.140349 488.818758 
L 284.22152 488.793775 
L 284.383864 488.796703 
L 284.505621 488.825334 
L 284.667965 488.861361 
L 284.952066 488.870171 
L 285.073824 488.74487 
L 285.11441 488.820258 
L 285.195581 488.927593 
L 285.236167 488.896168 
L 285.317339 488.835851 
L 285.357925 488.881755 
L 285.439097 488.926539 
L 285.479683 488.878414 
L 285.60144 488.916915 
L 285.723198 488.883676 
L 285.844955 488.940058 
L 285.966713 488.887144 
L 286.088471 488.689762 
L 286.210228 488.031203 
L 286.250814 488.148068 
L 286.331986 488.694083 
L 286.372572 488.612952 
L 286.575501 488.880248 
L 286.656673 488.687928 
L 286.697259 488.905644 
L 286.737845 488.84206 
L 286.778431 488.716932 
L 286.819016 488.86739 
L 286.859602 488.923305 
L 286.940774 488.857539 
L 287.143703 488.922744 
L 287.224875 488.884903 
L 287.265461 488.935202 
L 287.387219 488.932088 
L 287.590148 488.925119 
L 287.793077 488.944799 
L 288.117765 488.935182 
L 288.239522 488.879461 
L 288.36128 488.370179 
L 288.401866 488.078128 
L 288.442452 488.132982 
L 288.523623 488.953883 
L 288.564209 488.732271 
L 288.604795 488.566935 
L 288.645381 488.782644 
L 288.767139 488.828695 
L 288.888896 488.863095 
L 288.929482 488.958178 
L 288.970068 488.849736 
L 289.010654 488.79072 
L 289.091826 488.967375 
L 289.132411 488.885397 
L 289.497684 488.951202 
L 289.619442 488.989603 
L 289.781785 488.93763 
L 290.025301 489.009418 
L 290.471745 488.914601 
L 290.674675 489.016374 
L 290.999362 488.909192 
L 291.202291 489.029519 
L 291.567564 488.979086 
L 291.648736 488.498215 
L 291.729908 486.113949 
L 291.770493 486.520031 
L 291.811079 488.478781 
L 291.892251 488.340008 
L 291.932837 488.087371 
L 292.014009 488.148815 
L 292.135766 488.417691 
L 292.176352 488.242624 
L 292.216938 488.422359 
L 292.29811 488.282246 
L 292.338696 488.722848 
L 292.419867 488.642177 
L 292.460453 488.67519 
L 292.541625 488.821366 
L 292.582211 488.773874 
L 292.622797 488.710383 
L 292.703969 488.892653 
L 292.744554 488.814643 
L 293.353343 488.998874 
L 293.434514 488.946954 
L 293.4751 489.013866 
L 293.718615 489.061791 
L 293.880959 489.063478 
L 294.286818 489.064852 
L 294.692677 489.068894 
L 294.814434 488.882229 
L 294.936192 488.327857 
L 294.976778 488.437705 
L 295.057949 488.98096 
L 295.098535 488.806273 
L 295.179707 489.024083 
L 295.220293 488.897108 
L 295.260879 488.85944 
L 295.342051 489.039682 
L 295.382636 488.909266 
L 295.585566 489.054315 
L 296.03201 489.090702 
L 296.437869 489.106181 
L 297.006072 489.014299 
L 297.087243 488.095908 
L 297.168415 485.971481 
L 297.290173 488.027288 
L 297.452516 488.492593 
L 297.533688 488.297652 
L 297.61486 488.408734 
L 297.696031 488.366178 
L 297.736617 488.797243 
L 297.817789 488.71241 
L 297.858375 488.777742 
L 297.980133 488.854992 
L 298.061304 488.948167 
L 298.183062 488.942125 
L 298.223648 488.889131 
L 298.264234 489.030299 
L 298.345405 488.988023 
L 298.426577 488.924952 
L 298.467163 489.019822 
L 298.548335 489.040143 
L 298.588921 488.995739 
L 298.670092 489.03416 
L 298.710678 489.111523 
L 298.751264 489.054048 
L 298.832436 489.043464 
L 298.913608 489.118106 
L 298.954194 489.062571 
L 299.806497 489.180663 
L 300.17177 489.196329 
L 300.455871 489.14629 
L 300.537043 488.906812 
L 300.6588 487.421363 
L 300.699386 488.083236 
L 300.739972 488.940878 
L 300.821144 488.794949 
L 300.86173 488.834891 
L 300.902316 488.608437 
L 300.942902 488.883969 
L 300.983487 488.943732 
L 301.024073 488.793768 
L 301.064659 488.939711 
L 302.201064 489.216917 
L 303.41864 489.083606 
L 303.499812 487.575442 
L 303.540398 485.155415 
L 303.580984 485.273213 
L 303.621569 488.491773 
L 303.702741 488.296018 
L 303.743327 487.83985 
L 303.783913 487.849447 
L 303.946256 488.425314 
L 303.986842 488.225757 
L 304.027428 488.731058 
L 304.1086 488.692049 
L 304.230358 488.698672 
L 304.352115 488.90393 
L 304.392701 488.82366 
L 304.433287 488.950675 
L 304.473873 488.887924 
L 304.59563 489.044284 
L 304.636216 489.006503 
L 304.717388 488.913534 
L 304.757974 488.967075 
L 304.879732 489.092116 
L 304.920317 489.064118 
L 305.001489 489.045178 
L 305.123247 489.142562 
L 305.245005 489.170793 
L 305.529106 489.226988 
L 306.016136 489.252397 
L 306.909025 489.295294 
L 307.720743 489.220152 
L 307.842501 488.723181 
L 307.923672 488.330698 
L 308.004844 489.222532 
L 308.086016 488.874999 
L 308.248359 489.159435 
L 308.288945 489.243801 
L 308.329531 489.061791 
L 308.370117 489.123601 
L 308.410703 489.282709 
L 308.491875 489.16299 
L 308.654218 489.300963 
L 308.73539 489.196603 
L 308.816562 489.28567 
L 309.22242 489.309019 
L 309.709451 489.332395 
L 310.237067 489.237178 
L 310.318239 488.838979 
L 310.399411 487.950292 
L 310.439997 488.134542 
L 310.60234 489.171546 
L 310.683512 488.807807 
L 310.724098 489.179649 
L 310.80527 488.967355 
L 310.845855 489.187879 
L 310.927027 489.148631 
L 311.048785 489.280201 
L 311.008199 489.098825 
L 311.089371 489.233403 
L 311.129957 489.175148 
L 311.170543 489.281148 
L 311.251714 489.263475 
L 311.2923 489.333041 
L 311.373472 489.26895 
L 311.616987 489.32882 
L 312.631634 489.3818 
L 312.753392 489.26709 
L 312.875149 488.699772 
L 312.956321 488.351726 
L 313.037493 489.334235 
L 313.078079 489.033934 
L 313.118665 488.977125 
L 313.15925 489.297901 
L 313.199836 489.144263 
L 313.240422 489.048773 
L 313.281008 489.310813 
L 313.36218 489.144869 
L 313.402766 489.316715 
L 313.483937 489.199637 
L 313.524523 489.344746 
L 313.605695 489.281775 
L 313.768039 489.362473 
L 315.43206 489.380153 
L 315.513231 488.564167 
L 315.594403 483.773832 
L 315.634989 485.506563 
L 315.675575 488.100096 
L 315.756747 487.432434 
L 316.040848 488.391047 
L 316.081434 488.152416 
L 316.122019 488.496161 
L 316.527878 489.097365 
L 316.568464 489.065192 
L 316.730808 489.073502 
L 316.933737 489.247655 
L 317.258424 489.322571 
L 317.704869 489.400494 
L 320.342951 489.476323 
L 320.424122 489.341371 
L 320.586466 488.238789 
L 320.627052 488.719046 
L 320.667638 489.404922 
L 320.748809 489.029238 
L 320.911153 489.429618 
L 320.992325 489.217597 
L 321.073496 489.371316 
L 321.114082 489.34672 
L 321.154668 489.466799 
L 321.23584 489.3632 
L 321.398183 489.499459 
L 321.601113 489.452794 
L 321.804042 489.518953 
L 322.575174 489.529697 
L 322.899861 489.526215 
L 323.062204 489.347434 
L 323.224548 488.777115 
L 323.30572 489.490962 
L 323.346306 489.45046 
L 323.427477 489.153846 
L 323.508649 489.502633 
L 323.549235 489.346407 
L 323.589821 489.307238 
L 323.630407 489.420448 
L 323.670993 489.523388 
L 323.711578 489.436048 
L 323.752164 489.346793 
L 323.79275 489.462724 
L 323.833336 489.548931 
L 323.873922 489.512837 
L 323.955094 489.471234 
L 324.036265 489.568792 
L 324.076851 489.518252 
L 324.198609 489.575441 
L 324.48271 489.57276 
L 324.847983 489.294233 
L 324.969741 488.618214 
L 325.010326 488.920463 
L 325.050912 489.469747 
L 325.132084 489.167545 
L 325.213256 489.539494 
L 325.253842 489.327666 
L 325.456771 489.562503 
L 325.497357 489.493049 
L 325.537943 489.461484 
L 325.578529 489.562476 
L 325.822044 489.561929 
L 325.984388 489.590814 
L 326.187317 489.579029 
L 326.34966 489.536933 
L 326.471418 489.60666 
L 326.593176 489.572813 
L 326.755519 489.598003 
L 326.917863 489.625867 
L 327.03962 489.556087 
L 327.120792 489.327286 
L 327.24255 487.62434 
L 327.283136 487.835175 
L 327.323721 489.351295 
L 327.404893 488.878861 
L 327.445479 489.263555 
L 327.526651 489.202211 
L 327.851338 489.38076 
L 327.973095 489.506881 
L 328.013681 489.455222 
L 328.054267 489.499565 
L 328.257197 489.58181 
L 328.41954 489.576501 
L 328.62247 489.614082 
L 328.825399 489.540401 
L 328.906571 489.463952 
L 328.947157 489.516685 
L 329.028328 489.648889 
L 329.068914 489.588286 
L 329.150086 489.53768 
L 329.231258 489.659 
L 329.271844 489.608807 
L 329.353015 489.574934 
L 329.393601 489.636544 
L 329.515359 489.610281 
L 329.921218 489.503714 
L 330.083561 488.764544 
L 330.124147 489.040723 
L 330.205319 489.586885 
L 330.245905 489.288671 
L 330.448834 489.624213 
L 330.530006 489.471434 
L 330.570592 489.602231 
L 330.732935 489.648549 
L 330.814107 489.600917 
L 330.97645 489.683296 
L 331.219966 489.641119 
L 331.341723 489.655705 
L 331.544653 489.688338 
L 332.112855 489.614963 
L 332.194027 489.104667 
L 332.275198 486.852998 
L 332.315784 487.304691 
L 332.35637 489.306111 
L 332.437542 489.004949 
L 332.478128 488.879474 
L 332.518714 489.05056 
L 332.5593 489.040863 
L 332.599885 489.237952 
L 332.681057 489.191847 
L 332.762229 489.163236 
L 332.883987 489.496744 
L 332.924572 489.329433 
L 333.005744 489.464078 
L 335.197382 489.787049 
L 335.522069 489.681488 
L 335.60324 489.148557 
L 335.684412 485.856177 
L 335.724998 486.151997 
L 335.765584 489.22376 
L 335.846756 488.949395 
L 335.887341 488.471031 
L 335.927927 488.741515 
L 335.968513 488.889398 
L 336.009099 488.862908 
L 336.049685 488.749918 
L 336.130857 488.714525 
L 336.171443 489.257286 
L 336.212028 488.75522 
L 336.252614 489.307645 
L 336.2932 489.142975 
L 336.374372 489.257913 
L 336.49613 489.448452 
L 336.536715 489.393411 
L 336.658473 489.574387 
L 336.699059 489.487621 
L 336.780231 489.553393 
L 337.18609 489.682035 
L 338.85011 489.810198 
L 339.377727 489.831179 
L 339.661828 489.773457 
L 339.783586 489.442717 
L 339.864757 489.058783 
L 339.905343 489.165751 
L 339.986515 489.694833 
L 340.027101 489.540921 
L 340.108273 489.792271 
L 340.148859 489.667943 
L 340.189444 489.567765 
L 340.23003 489.748454 
L 340.270616 489.817294 
L 340.311202 489.680388 
L 341.041748 489.867433 
L 341.204091 489.855695 
L 341.447607 489.861824 
L 341.731708 489.853467 
L 341.853465 489.673298 
L 342.015809 489.111617 
L 342.096981 489.691612 
L 342.137566 489.409637 
L 342.178152 489.47657 
L 342.218738 489.821108 
L 342.259324 489.731694 
L 342.29991 489.518259 
L 342.340496 489.690492 
L 342.381082 489.834413 
L 342.421668 489.68483 
L 342.462253 489.695574 
L 342.502839 489.825844 
L 342.584011 489.756364 
L 342.746355 489.861431 
L 342.949284 489.884713 
L 343.111628 489.90314 
L 343.314557 489.909469 
L 343.923345 489.891782 
L 344.004517 489.698441 
L 344.126274 488.063209 
L 344.16686 488.165714 
L 344.329204 489.613155 
L 344.36979 489.155013 
L 344.410376 489.403809 
L 344.450961 489.637958 
L 344.532133 489.545536 
L 344.694477 489.685136 
L 345.384437 489.912977 
L 345.627952 489.935225 
L 345.952639 489.970199 
L 346.439669 489.882172 
L 346.520841 489.615343 
L 346.642599 488.777936 
L 346.723771 489.784835 
L 346.804942 489.527509 
L 346.845528 489.890502 
L 346.9267 489.619765 
L 346.967286 489.835767 
L 347.048458 489.746246 
L 347.210801 489.910449 
L 347.251387 489.837135 
L 347.332559 489.895437 
L 347.454316 489.936353 
L 347.860175 489.977328 
L 348.144276 490.008747 
L 348.550135 490.008587 
L 348.712479 490.00768 
L 348.834236 489.887267 
L 348.915408 489.192021 
L 348.99658 487.246342 
L 349.037166 488.385939 
L 349.158923 489.576775 
L 349.199509 489.107288 
L 349.240095 489.324271 
L 349.402438 489.612395 
L 349.443024 489.560515 
L 349.48361 489.625327 
L 349.808297 489.888374 
L 349.930055 489.890222 
L 350.092398 489.94729 
L 350.335914 489.983551 
L 350.660601 490.033323 
L 350.985288 490.069043 
L 351.756419 490.0088 
L 351.837591 489.61747 
L 351.959349 487.991554 
L 351.999935 489.363013 
L 352.081106 488.982981 
L 352.121692 489.72099 
L 352.202864 489.5029 
L 352.365207 489.704244 
L 352.405793 489.615876 
L 352.446379 489.839709 
L 352.527551 489.766768 
L 352.649309 489.960955 
L 352.689894 489.840389 
L 352.771066 489.931677 
L 352.93341 489.987939 
L 353.055167 490.031069 
L 353.501612 490.080101 
L 354.556845 490.124911 
L 354.638017 490.04224 
L 354.719188 489.506214 
L 354.80036 487.566565 
L 354.840946 488.061808 
L 354.881532 489.732174 
L 354.962704 489.514744 
L 355.409148 489.870834 
L 355.449734 489.769675 
L 355.49032 489.956153 
L 355.612078 489.936546 
L 356.829654 490.186235 
L 357.35727 490.205562 
L 357.681957 490.160992 
L 357.763129 489.91277 
L 357.884887 488.289162 
L 357.925473 488.892059 
L 357.966058 489.874382 
L 358.04723 489.765547 
L 358.087816 489.886013 
L 358.128402 489.58141 
L 358.168988 489.844077 
L 358.290745 489.915951 
L 358.331331 489.873969 
L 358.371917 489.954613 
L 358.534261 490.049529 
L 358.696604 490.107505 
L 359.102463 490.215106 
L 359.264806 490.206249 
L 359.711251 490.246645 
L 360.320039 490.221135 
L 360.401211 489.987572 
L 360.522969 488.296391 
L 360.563555 488.857833 
L 360.60414 489.930297 
L 360.685312 489.637418 
L 360.725898 489.981677 
L 360.80707 489.849306 
L 361.009999 489.954026 
L 361.131757 490.065875 
L 361.212929 490.083656 
L 361.375272 490.156884 
L 361.618787 490.244324 
L 361.862303 490.251527 
L 362.105818 490.27849 
L 362.633434 490.330497 
L 363.039293 490.298264 
L 363.120465 490.032022 
L 363.242222 487.381621 
L 363.282808 488.201155 
L 363.404566 489.847719 
L 363.445152 489.322217 
L 363.526324 489.582237 
L 363.648081 489.832773 
L 363.688667 489.59975 
L 363.729253 489.944302 
L 363.769839 489.694066 
L 363.932182 490.021659 
L 363.972768 489.939374 
L 364.013354 490.150781 
L 364.094526 490.124685 
L 364.216283 490.178779 
L 366.326749 490.345423 
L 366.407921 490.175024 
L 366.570264 488.928787 
L 366.732608 490.203615 
L 366.81378 489.993881 
L 366.854365 490.211298 
L 366.935537 490.173257 
L 367.179052 490.305507 
L 367.219638 490.209337 
L 367.30081 490.275289 
L 367.463154 490.331904 
L 367.747255 490.384237 
L 368.883659 490.283659 
L 369.005417 489.437475 
L 369.046003 489.138867 
L 369.086589 489.577062 
L 369.127175 490.312877 
L 369.208346 489.914944 
L 369.248932 490.284066 
L 369.330104 490.099062 
L 369.37069 490.351638 
L 369.451862 490.195578 
L 369.614205 490.369278 
L 369.735963 490.368491 
L 371.115882 490.36441 
L 371.23764 489.74798 
L 371.278226 489.466026 
L 371.318812 489.621379 
L 371.399984 490.418444 
L 371.44057 490.0964 
L 371.643499 490.450903 
L 371.724671 490.281565 
L 371.765257 490.415556 
L 371.846428 490.369605 
L 371.887014 490.449029 
L 372.049358 490.459386 
L 372.252287 490.447622 
L 372.576974 490.523744 
L 373.023419 490.513327 
L 373.185762 490.515674 
L 373.266934 490.43447 
L 373.348106 489.762286 
L 373.429277 486.551036 
L 373.469863 487.562003 
L 373.510449 489.967871 
L 373.591621 489.634697 
L 373.632207 489.241246 
L 373.672793 489.339451 
L 373.79455 489.770856 
L 373.835136 489.56379 
L 373.875722 489.675546 
L 373.99748 489.934645 
L 374.038066 489.859523 
L 374.159823 490.073365 
L 374.281581 490.097394 
L 374.403339 490.246765 
L 374.443924 490.162286 
L 374.48451 490.270074 
L 374.606268 490.316185 
L 374.646854 490.277863 
L 374.728026 490.406499 
L 374.768611 490.379082 
L 374.890369 490.454771 
L 376.594976 490.623602 
L 377.203764 490.594598 
L 377.284936 490.374507 
L 377.406693 488.334719 
L 377.447279 488.802625 
L 377.487865 490.244691 
L 377.569037 490.002751 
L 377.609623 490.203968 
L 377.690795 490.152989 
L 379.030128 490.641429 
L 379.517159 490.67761 
L 380.166533 490.581119 
L 380.247705 489.703117 
L 380.328877 486.71724 
L 380.369462 488.907672 
L 380.410048 489.779659 
L 380.49122 489.750255 
L 380.572392 489.710493 
L 380.694149 490.097954 
L 380.734735 489.958348 
L 380.815907 490.105151 
L 380.856493 489.975414 
L 380.978251 490.321793 
L 381.018836 490.25961 
L 381.059422 490.378815 
L 381.100008 490.346856 
L 381.140594 490.401837 
L 381.627625 490.615599 
L 381.87114 490.620828 
L 383.04813 490.753392 
L 384.022191 490.697637 
L 384.103363 490.157991 
L 384.184535 487.928604 
L 384.225121 488.125319 
L 384.265707 490.192177 
L 384.346878 490.058693 
L 384.42805 489.968892 
L 384.468636 490.06885 
L 384.590394 490.219588 
L 384.671565 490.237008 
L 384.793323 490.399483 
L 384.833909 490.388766 
L 384.874495 490.528052 
L 384.955666 490.482902 
L 385.280353 490.689534 
L 385.402111 490.666145 
L 385.686212 490.736099 
L 386.660273 490.836417 
L 387.309647 490.821672 
L 387.390819 490.587515 
L 387.471991 489.235918 
L 387.512577 487.912264 
L 387.553163 488.680045 
L 387.593748 490.45239 
L 387.67492 490.167881 
L 387.715506 489.979009 
L 387.756092 490.221448 
L 387.87785 490.245911 
L 387.918435 490.41685 
L 387.999607 490.298298 
L 388.121365 490.506911 
L 388.161951 490.415389 
L 388.202537 490.589089 
L 388.324294 490.554076 
L 388.486638 490.745502 
L 388.527224 490.640822 
L 388.608395 490.718659 
L 388.770739 490.762209 
L 388.892497 490.795422 
L 389.05484 490.802044 
L 390.637689 490.924037 
L 390.718861 490.817897 
L 390.800033 489.935966 
L 390.881204 486.641544 
L 390.92179 488.82452 
L 390.962376 489.9375 
L 391.043548 489.873875 
L 391.084134 489.915565 
L 391.12472 489.794205 
L 391.165306 490.020525 
L 391.205891 489.937286 
L 391.246477 490.321153 
L 391.327649 490.260457 
L 391.408821 490.180039 
L 391.530579 490.54762 
L 391.571164 490.429308 
L 391.61175 490.604642 
L 391.652336 490.516095 
L 391.81468 490.708235 
L 392.017609 490.753479 
L 392.342296 490.848675 
L 392.545225 490.858879 
L 393.072842 490.943632 
L 394.615105 490.932761 
L 394.696277 490.72222 
L 394.818035 489.605973 
L 394.85862 489.856855 
L 394.939792 490.665652 
L 394.980378 490.426273 
L 395.020964 490.833523 
L 395.102136 490.566027 
L 395.264479 490.86977 
L 395.345651 490.81713 
L 395.386237 490.892259 
L 396.522641 491.043623 
L 397.13143 491.002327 
L 397.212601 490.359848 
L 397.334359 485.941769 
L 397.374945 489.960622 
L 397.456117 489.917199 
L 397.496702 489.208247 
L 397.577874 489.426617 
L 397.740218 489.950405 
L 397.780804 489.917672 
L 397.861975 489.77313 
L 397.943147 490.365544 
L 397.983733 490.125732 
L 398.024319 490.425673 
L 398.064905 490.247645 
L 398.186662 490.606969 
L 398.227248 490.505851 
L 398.267834 490.685746 
L 398.389592 490.671814 
L 398.551935 490.79158 
L 398.754865 490.869817 
L 399.48541 491.030745 
L 401.677048 491.122433 
L 401.961149 490.99175 
L 402.123492 490.282158 
L 402.164078 490.334979 
L 402.24525 491.0005 
L 402.326422 490.867516 
L 402.367008 491.072154 
L 402.407593 491.011024 
L 402.448179 490.852997 
L 402.488765 490.961412 
L 402.529351 491.097637 
L 402.610523 490.996572 
L 402.813452 491.129329 
L 402.975796 491.117965 
L 403.503412 491.17552 
L 403.787513 491.131337 
L 403.909271 490.874378 
L 404.031029 490.170869 
L 404.071614 490.3042 
L 404.152786 491.118485 
L 404.193372 490.939263 
L 404.233958 490.792474 
L 404.274544 490.91372 
L 404.436887 491.01648 
L 404.477473 490.936742 
L 404.518059 490.972776 
L 404.599231 491.123534 
L 404.639817 490.999987 
L 404.720988 491.138546 
L 404.761574 491.162182 
L 404.80216 491.069987 
L 404.883332 491.128989 
L 405.126847 491.17362 
L 405.613878 491.035387 
L 405.776221 490.014596 
L 405.816807 490.412722 
L 405.857393 491.058229 
L 405.938565 490.757147 
L 406.019737 491.020581 
L 406.060322 490.850663 
L 406.141494 491.146056 
L 406.18208 490.972789 
L 406.547353 491.186545 
L 406.709696 491.162415 
L 407.115555 491.220124 
L 407.480828 491.196108 
L 407.602586 490.906451 
L 407.724343 490.128499 
L 407.764929 490.388206 
L 407.846101 491.049505 
L 407.886687 490.896974 
L 408.089616 491.1914 
L 408.170788 490.934615 
L 408.211374 491.123874 
L 408.25196 491.192414 
L 408.292546 491.092862 
L 409.591294 491.313613 
L 409.753637 491.28635 
L 409.834809 490.870704 
L 409.915981 485.797574 
L 409.956567 481.865635 
L 409.997152 486.268995 
L 410.037738 485.194016 
L 410.078324 485.662402 
L 410.11891 487.948284 
L 410.200082 487.685817 
L 410.281254 486.853078 
L 410.403011 488.78101 
L 410.443597 488.653915 
L 410.484183 488.378016 
L 410.524769 489.510509 
L 410.605941 489.197596 
L 410.687112 489.085287 
L 410.849456 490.001704 
L 410.890042 489.847145 
L 411.052385 490.467976 
L 411.092971 490.342748 
L 411.133557 490.55619 
L 411.214729 490.544432 
L 411.377072 490.728089 
L 411.539416 490.891038 
L 411.580002 490.861333 
L 411.945275 491.05182 
L 412.391719 491.159094 
L 413.406366 491.272504 
L 414.218084 491.246187 
L 414.421013 491.211347 
L 414.542771 491.317655 
L 414.583357 491.280261 
L 414.705114 491.262254 
L 414.867458 491.325978 
L 415.070387 491.346079 
L 415.719761 491.364873 
L 416.81558 491.172006 
L 416.937337 490.103503 
L 416.977923 489.713661 
L 417.018509 490.004872 
L 417.099681 491.186538 
L 417.140267 490.589123 
L 417.221439 491.181616 
L 417.30261 491.095256 
L 417.383782 491.022228 
L 417.424368 491.236604 
L 417.50554 491.09479 
L 417.667883 491.2783 
L 417.708469 491.219004 
L 417.749055 491.283689 
L 417.911398 491.308671 
L 418.114328 491.355256 
L 418.317257 491.379945 
L 419.128975 491.43494 
L 419.331904 491.364379 
L 419.413076 491.064605 
L 419.534833 488.586376 
L 419.575419 489.083626 
L 419.616005 490.953909 
L 419.697177 490.581813 
L 419.818935 490.935695 
L 419.85952 490.906291 
L 419.900106 490.811988 
L 419.940692 490.95693 
L 420.143622 491.178708 
L 421.361198 491.451139 
L 422.172915 491.378678 
L 422.294673 491.000113 
L 422.416431 490.178078 
L 422.457017 490.203575 
L 422.538188 491.363532 
L 422.578774 490.895673 
L 422.61936 490.987522 
L 422.659946 491.368714 
L 422.741118 491.16509 
L 422.781704 491.341451 
L 422.862875 491.233789 
L 423.025219 491.386334 
L 423.065805 491.321423 
L 423.146977 491.39283 
L 423.634007 491.469913 
L 424.121038 491.466318 
L 424.567482 491.151771 
L 424.608068 491.264515 
L 424.68924 491.492068 
L 424.729826 491.452773 
L 424.810997 491.351948 
L 424.851583 491.418293 
L 424.932755 491.511402 
L 424.973341 491.466939 
L 425.054513 491.441576 
L 425.095099 491.48668 
L 425.216856 491.496303 
L 425.3792 491.497864 
L 425.541543 491.509188 
L 425.663301 491.33979 
L 425.744473 490.233233 
L 425.825644 487.20588 
L 425.86623 489.365881 
L 425.987988 490.410094 
L 426.028574 490.087917 
L 426.190917 490.778508 
L 426.231503 490.710122 
L 426.272089 490.691168 
L 426.393847 490.998339 
L 426.434433 490.910499 
L 426.475018 491.053974 
L 426.677948 491.263101 
L 426.718534 491.16447 
L 426.75912 491.313613 
L 426.880877 491.27922 
L 427.043221 491.394091 
L 427.164978 491.403935 
L 427.773766 491.511036 
L 429.1131 491.499098 
L 429.234858 491.126628 
L 429.397202 489.93888 
L 429.478373 491.438048 
L 429.559545 491.021842 
L 429.600131 491.419334 
L 429.681303 491.247895 
L 429.721889 491.386948 
L 429.80306 491.356963 
L 429.965404 491.443203 
L 430.00599 491.370188 
L 430.046576 491.472728 
L 430.290091 491.500832 
L 430.49302 491.520966 
L 430.777121 491.568091 
L 431.345324 491.378185 
L 431.426495 491.072414 
L 431.467081 491.105153 
L 431.548253 491.249169 
L 431.629425 491.073781 
L 431.710597 491.508615 
L 431.791768 491.393597 
L 432.278799 491.575 
L 432.644072 491.212928 
L 432.765829 490.628611 
L 432.847001 491.46083 
L 432.928173 491.249936 
L 433.131102 491.52248 
L 433.171688 491.378505 
L 433.212274 491.417373 
L 433.25286 491.576387 
L 433.334032 491.450192 
L 433.536961 491.557627 
L 434.42985 491.573479 
L 434.511022 491.351061 
L 434.673366 490.068637 
L 434.835709 491.3301 
L 434.916881 491.064878 
L 434.957467 491.429231 
L 434.998053 491.273231 
L 435.038638 491.120106 
L 435.079224 491.480724 
L 435.160396 491.242873 
L 435.200982 491.542461 
L 435.282154 491.411951 
L 435.403911 491.526662 
L 435.647427 491.533124 
L 435.728598 491.597062 
L 435.769184 491.558014 
L 436.053285 491.624906 
L 436.98676 491.537732 
L 437.067932 489.468934 
L 437.149104 482.664414 
L 437.18969 485.355011 
L 437.311448 487.732529 
L 437.352033 487.625668 
L 437.433205 488.159846 
L 437.473791 487.123595 
L 437.514377 488.143719 
L 437.757892 489.720343 
L 437.798478 489.582917 
L 437.839064 489.636811 
L 437.920236 489.751708 
L 438.041993 490.431102 
L 438.082579 490.307895 
L 438.650781 491.180996 
L 438.813125 491.221645 
L 438.975468 491.344172 
L 439.340741 491.462904 
L 440.030701 491.582123 
L 440.598904 491.573239 
L 440.761247 491.235643 
L 440.801833 491.332934 
L 440.883005 491.596882 
L 440.923591 491.497004 
L 441.004762 491.563342 
L 441.045348 491.616456 
L 441.085934 491.574993 
L 441.12652 491.5228 
L 441.167106 491.584637 
L 441.207692 491.650809 
L 441.288863 491.585157 
L 441.532379 491.650362 
L 441.81648 491.690138 
L 443.480501 491.697754 
L 443.602258 491.686383 
L 443.764602 491.739983 
L 444.332804 491.756483 
L 444.495148 491.63481 
L 444.698077 490.985014 
L 444.738663 491.079777 
L 444.819835 491.734641 
L 444.860421 491.646841 
L 444.901006 491.431879 
L 444.941592 491.538673 
L 444.982178 491.708751 
L 445.06335 491.606959 
L 445.144522 491.706157 
L 445.185108 491.623812 
L 445.428623 491.746466 
L 445.672138 491.732934 
L 445.996825 491.792683 
L 446.402684 491.642866 
L 446.483856 491.233489 
L 446.605613 490.04368 
L 446.686785 491.651823 
L 446.727371 491.189286 
L 446.767957 491.013292 
L 446.849129 491.509175 
L 446.889714 491.291145 
L 446.970886 491.61036 
L 447.011472 491.422815 
L 447.092644 491.638945 
L 447.173816 491.609347 
L 447.417331 491.729739 
L 447.457917 491.675765 
L 447.498503 491.721676 
L 447.742018 491.793731 
L 448.472564 491.688637 
L 448.553735 491.20023 
L 448.675493 489.732554 
L 448.837837 491.535798 
L 448.878422 491.094723 
L 448.959594 491.390876 
L 449.121938 491.549537 
L 449.162524 491.462097 
L 449.203109 491.623139 
L 449.243695 491.501158 
L 449.406039 491.719455 
L 449.446625 491.616323 
L 449.487211 491.698181 
L 449.649554 491.717728 
L 450.014827 491.816306 
L 450.501857 491.848458 
L 450.826544 491.835113 
L 450.948302 491.668883 
L 451.191817 490.554443 
L 451.272989 491.719816 
L 451.313575 491.267976 
L 451.516504 491.764339 
L 451.55709 491.577154 
L 451.597676 491.617897 
L 451.76002 491.803114 
L 451.800606 491.69792 
L 451.841191 491.73234 
L 452.003535 491.823275 
L 452.206464 491.796872 
L 452.44998 491.866612 
L 453.058768 491.767781 
L 453.139939 491.325605 
L 453.221111 490.619994 
L 453.261697 490.81793 
L 453.302283 490.807826 
L 453.342869 490.929673 
L 453.424041 491.560441 
L 453.464626 491.389536 
L 453.505212 491.345472 
L 453.545798 491.705884 
L 453.586384 491.572112 
L 453.62697 491.41888 
L 453.667556 491.740777 
L 453.748728 491.586504 
L 453.829899 491.791263 
L 453.870485 491.702302 
L 454.601031 491.90506 
L 454.966304 491.919112 
L 455.209819 491.86331 
L 455.290991 491.435573 
L 455.372163 488.435698 
L 455.412749 486.027442 
L 455.453334 489.476983 
L 455.615678 490.730437 
L 455.656264 490.291015 
L 455.69685 490.623989 
L 455.778021 490.756727 
L 455.940365 491.110636 
L 455.980951 490.880334 
L 456.021537 491.213248 
L 456.062123 490.911526 
L 456.102708 491.442723 
L 456.18388 491.411277 
L 456.224466 491.165903 
L 456.265052 491.4536 
L 456.305638 491.284989 
L 456.467981 491.562609 
L 456.589739 491.621058 
L 456.792668 491.68743 
L 456.914426 491.780659 
L 457.036184 491.775717 
L 457.157941 491.844263 
L 457.198527 491.809316 
L 457.401457 491.857622 
L 457.807315 491.905867 
L 458.172588 491.842082 
L 458.334932 491.525288 
L 458.416103 491.897177 
L 458.456689 491.830678 
L 458.497275 491.761278 
L 458.537861 491.796585 
L 458.619033 491.886293 
L 458.659619 491.816746 
L 459.268407 491.953999 
L 459.917781 491.845204 
L 459.998953 491.412611 
L 460.12071 489.996442 
L 460.201882 491.676045 
L 460.283054 491.478897 
L 460.364226 491.387728 
L 460.404811 491.743271 
L 460.485983 491.54899 
L 460.526569 491.759631 
L 460.607741 491.686543 
L 460.770084 491.858869 
L 460.81067 491.743431 
L 460.851256 491.86239 
L 461.257115 491.936485 
L 461.744145 491.981149 
L 462.312348 491.929796 
L 462.393519 491.688784 
L 462.555863 490.004225 
L 462.596449 490.490191 
L 462.637035 491.618964 
L 462.718206 491.115904 
L 462.758792 491.732901 
L 462.839964 491.49535 
L 462.961722 491.728165 
L 463.042893 491.699028 
L 463.205237 491.858642 
L 463.286409 491.813438 
L 463.326995 491.932717 
L 463.408166 491.88792 
L 463.57051 491.937739 
L 464.544571 492.011347 
L 464.625743 491.905287 
L 464.7475 491.402507 
L 464.788086 491.531323 
L 464.828672 491.711332 
L 464.869258 491.420341 
L 464.991015 490.718425 
L 465.072187 491.781733 
L 465.153359 491.651076 
L 465.275117 491.830851 
L 465.234531 491.604785 
L 465.315702 491.809343 
L 465.356288 491.701595 
L 465.396874 491.893095 
L 465.478046 491.773003 
L 465.518632 491.919099 
L 465.599804 491.842209 
L 465.762147 491.995168 
L 465.843319 491.930003 
L 466.005662 492.013328 
L 466.492693 492.044146 
L 466.857966 492.051503 
L 466.979723 491.891595 
L 467.060895 491.180749 
L 467.142067 489.216183 
L 467.182653 489.463011 
L 467.263825 491.013665 
L 467.30441 491.007803 
L 467.426168 491.411377 
L 467.466754 491.151898 
L 467.50734 491.546449 
L 467.547926 491.308378 
L 467.710269 491.788295 
L 467.750855 491.513563 
L 467.791441 491.884612 
L 467.832027 491.61813 
L 467.99437 491.899544 
L 468.034956 491.793277 
L 468.116128 491.867212 
L 468.643744 492.039291 
L 469.780149 492.045594 
L 469.861321 491.568237 
L 469.983078 487.057823 
L 470.104836 490.67737 
L 470.145422 490.530133 
L 470.186008 491.048465 
L 470.267179 491.014232 
L 470.470109 491.165096 
L 470.591866 491.42581 
L 470.632452 491.224819 
L 470.673038 491.61925 
L 470.75421 491.58365 
L 470.794796 491.425503 
L 470.835382 491.653637 
L 470.875968 491.568691 
L 470.916553 491.656198 
L 471.119483 491.877309 
L 471.160069 491.787935 
L 471.200655 491.91463 
L 471.24124 491.852446 
L 471.403584 491.948043 
L 472.62116 492.022045 
L 472.742918 491.955526 
L 472.783504 492.001904 
L 472.905261 492.105063 
L 472.945847 492.066568 
L 473.270534 492.106797 
L 473.51405 492.12273 
L 474.00108 492.12277 
L 474.122838 491.983557 
L 474.244595 491.165743 
L 474.325767 490.642356 
L 474.406939 492.056725 
L 474.447525 491.616583 
L 474.650454 491.983657 
L 474.69104 491.802661 
L 474.731626 491.923654 
L 474.853384 492.022031 
L 474.893969 491.995388 
L 474.934555 491.952205 
L 474.975141 492.084048 
L 475.056313 492.016749 
L 475.218656 492.133974 
L 475.421586 492.10589 
L 475.746273 492.155236 
L 476.273889 492.076586 
L 476.517404 491.402327 
L 476.598576 489.688638 
L 476.639162 490.414589 
L 476.679748 491.897997 
L 476.76092 491.473815 
L 476.801506 491.769068 
L 476.882677 491.692538 
L 477.045021 491.836807 
L 477.085607 491.759631 
L 477.126193 491.899618 
L 478.181425 492.185961 
L 478.384355 492.125764 
L 478.546698 491.540887 
L 478.587284 491.830618 
L 478.62787 492.093025 
L 478.709042 491.936845 
L 478.790214 492.070843 
L 478.830799 491.984684 
L 479.074315 492.141104 
L 479.358416 491.997295 
L 479.520759 491.101372 
L 479.561345 491.41766 
L 479.642517 492.079727 
L 479.683103 491.737349 
L 479.764275 492.136649 
L 479.845446 492.023185 
L 479.886032 492.168834 
L 479.926618 491.986358 
L 480.129548 492.186408 
L 480.170133 492.143918 
L 480.332477 492.153635 
L 480.535406 492.225116 
L 480.900679 492.227663 
L 481.144194 492.157923 
L 481.347124 491.85256 
L 481.468881 491.708538 
L 481.590639 492.242562 
L 481.631225 492.107571 
L 481.671811 492.006405 
L 481.712397 492.124017 
L 481.752983 492.2539 
L 481.793568 492.205555 
L 481.834154 492.114073 
L 481.87474 492.150507 
L 481.955912 492.241249 
L 481.996498 492.175717 
L 482.280599 492.267692 
L 482.5647 492.202814 
L 482.686458 491.946002 
L 482.848801 491.40138 
L 482.889387 491.555739 
L 482.970559 492.233666 
L 483.011145 491.981249 
L 483.051731 491.898697 
L 483.132902 492.211571 
L 483.173488 492.018323 
L 483.417004 492.261009 
L 483.498175 492.180812 
L 483.538761 492.260383 
L 483.863448 492.095853 
L 483.985206 491.968918 
L 484.106963 492.230491 
L 484.147549 492.216072 
L 484.350479 492.13154 
L 484.553408 492.281124 
L 484.796923 492.093912 
L 484.959267 491.067652 
L 484.999853 491.280501 
L 485.081024 492.24617 
L 485.12161 491.877383 
L 485.162196 491.770302 
L 485.243368 492.168707 
L 485.283954 492.003644 
L 485.81157 492.294302 
L 485.892742 492.190042 
L 485.933328 492.253166 
L 486.0145 492.304153 
L 486.055086 492.262583 
L 486.176843 492.31369 
L 486.420358 492.325301 
L 486.542116 492.116934 
L 486.623288 490.902903 
L 486.70446 487.782394 
L 486.826217 490.934368 
L 486.866803 491.006883 
L 486.907389 491.405669 
L 486.988561 491.373036 
L 487.029147 491.271957 
L 487.150904 491.780672 
L 487.19149 491.190846 
L 487.232076 491.825789 
L 487.272662 491.40202 
L 487.313248 491.849499 
L 487.394419 491.763059 
L 487.516177 491.975473 
L 487.556763 491.875035 
L 487.678521 492.078066 
L 487.840864 492.088477 
L 488.814925 492.29833 
L 489.139612 492.295049 
L 489.301956 492.303552 
L 489.464299 492.328169 
L 489.667229 492.345542 
L 490.276017 492.189055 
L 490.43836 491.225239 
L 490.519532 491.685509 
L 490.681875 492.05471 
L 490.925391 492.189475 
L 491.655937 492.36597 
L 492.061795 492.398809 
L 492.142967 492.327362 
L 492.224139 491.692445 
L 492.305311 488.371687 
L 492.345896 488.646292 
L 492.386482 491.570712 
L 492.467654 491.153852 
L 492.50824 490.855631 
L 492.548826 491.457428 
L 492.629998 491.37487 
L 492.670583 491.300115 
L 492.792341 491.641319 
L 492.832927 491.37551 
L 492.914099 491.273398 
L 492.954685 491.919552 
L 492.99527 491.709305 
L 493.076442 491.802247 
L 493.1982 492.005705 
L 493.238786 491.993247 
L 493.360543 492.204835 
L 493.401129 492.091038 
L 493.482301 492.169641 
L 493.725816 492.294716 
L 493.88816 492.319505 
L 494.37519 492.380569 
L 494.537534 492.351224 
L 494.699877 491.953372 
L 494.740463 492.034776 
L 494.821635 492.359007 
L 494.862221 492.271093 
L 494.902807 492.230838 
L 494.943393 492.299337 
L 495.105736 492.381936 
L 495.389837 492.410067 
L 496.120383 492.309515 
L 496.242141 491.552365 
L 496.323312 490.935055 
L 496.404484 492.338833 
L 496.485656 491.953652 
L 496.647999 492.343228 
L 496.729171 492.138649 
L 496.769757 492.305446 
L 496.850929 492.263357 
L 496.891515 492.364476 
L 496.9321 492.316971 
L 496.972686 492.255547 
L 497.013272 492.395974 
L 497.094444 492.332804 
L 497.13503 492.410967 
L 497.216202 492.352231 
L 497.419131 492.449948 
L 498.109091 492.47079 
L 498.109091 492.47079 
" style="fill:none;stroke:#1f77b4;stroke-linecap:square;stroke-width:1.5;"/>
   </g>
   <g id="patch_3">
    <path d="M 72 512.64 
L 72 69.12 
" style="fill:none;stroke:#000000;stroke-linecap:square;stroke-linejoin:miter;stroke-width:0.8;"/>
   </g>
   <g id="patch_4">
    <path d="M 518.4 512.64 
L 518.4 69.12 
" style="fill:none;stroke:#000000;stroke-linecap:square;stroke-linejoin:miter;stroke-width:0.8;"/>
   </g>
   <g id="patch_5">
    <path d="M 72 512.64 
L 518.4 512.64 
" style="fill:none;stroke:#000000;stroke-linecap:square;stroke-linejoin:miter;stroke-width:0.8;"/>
   </g>
   <g id="patch_6">
    <path d="M 72 69.12 
L 518.4 69.12 
" style="fill:none;stroke:#000000;stroke-linecap:square;stroke-linejoin:miter;stroke-width:0.8;"/>
   </g>
  </g>
 </g>
 <defs>
  <clipPath id="p559c188165">
   <rect height="443.52" width="446.4" x="72" y="69.12"/>
  </clipPath>
 </defs>
</svg>
